<?xml version="1.0" encoding="UTF-8" standalone="no"?>
<!-- Created with Inkscape (http://www.inkscape.org/) -->

<svg
   xmlns:dc="http://purl.org/dc/elements/1.1/"
   xmlns:cc="http://creativecommons.org/ns#"
   xmlns:rdf="http://www.w3.org/1999/02/22-rdf-syntax-ns#"
   xmlns:svg="http://www.w3.org/2000/svg"
   xmlns="http://www.w3.org/2000/svg"
   xmlns:sodipodi="http://sodipodi.sourceforge.net/DTD/sodipodi-0.dtd"
   xmlns:inkscape="http://www.inkscape.org/namespaces/inkscape"
   width="64px"
   height="64px"
   id="svg2985"
   version="1.1"
   inkscape:version="0.48.4 r9939"
   sodipodi:docname="chocolate.svg">
  <defs
     id="defs2987" />
  <sodipodi:namedview
     id="base"
     pagecolor="#ffffff"
     bordercolor="#666666"
     borderopacity="1.0"
     inkscape:pageopacity="0.0"
     inkscape:pageshadow="2"
     inkscape:zoom="7.7781746"
     inkscape:cx="45.010455"
     inkscape:cy="14.644424"
     inkscape:current-layer="layer1"
     showgrid="true"
     inkscape:document-units="px"
     inkscape:grid-bbox="true"
     showguides="true"
     inkscape:window-width="1450"
     inkscape:window-height="1043"
     inkscape:window-x="1876"
     inkscape:window-y="36"
     inkscape:window-maximized="0" />
  <metadata
     id="metadata2990">
    <rdf:RDF>
      <cc:Work
         rdf:about="">
        <dc:format>image/svg+xml</dc:format>
        <dc:type
           rdf:resource="http://purl.org/dc/dcmitype/StillImage" />
        <dc:title></dc:title>
      </cc:Work>
    </rdf:RDF>
  </metadata>
  <g
     id="layer1"
     inkscape:label="Layer 1"
     inkscape:groupmode="layer">
    <path
       inkscape:connector-curvature="0"
       style="fill:#5d4d31;fill-opacity:1;stroke:#c1ad79;stroke-width:0.36399999;stroke-linecap:butt;stroke-linejoin:round;stroke-miterlimit:4;stroke-opacity:1;stroke-dasharray:none;marker-mid:none"
       d="M 62.21875,37.6875 39.125,55.375 1.1875,47.125 0.4375,55.28125 39.75,63.65625 63.5,42.96875 62.21875,37.6875 z"
       id="path4362" />
    <path
       style="fill:#5d4d31;fill-opacity:1;stroke:#c1ad79;stroke-width:0.3642931;stroke-linecap:butt;stroke-linejoin:round;stroke-miterlimit:4;stroke-opacity:1;stroke-dasharray:none;marker-mid:none"
       d="M 1.0722879,47.110131 C 13.754104,49.865512 26.435919,52.620892 39.117735,55.376273 46.81867,49.441607 54.519606,43.506941 62.220541,37.572275 51.128368,35.77068 40.036195,33.969086 28.944022,32.167491 c -9.290578,4.98088 -18.581156,9.96176 -27.8717341,14.94264 z"
       id="path4410"
       inkscape:connector-curvature="0" />
    <path
       style="fill:#5d4d31;fill-opacity:1;stroke:#c1ad79;stroke-width:0.36399999;stroke-linecap:butt;stroke-linejoin:round;stroke-miterlimit:4;stroke-opacity:1;stroke-dasharray:none;marker-mid:none"
       d="m 40.662199,31.55422 c 0.741833,0.883135 1.483666,1.76627 2.225499,2.649405 -2.084198,1.342365 -4.168396,2.68473 -6.252594,4.027095 0,-1.37769 0,-2.755381 0,-4.133071 1.342365,-0.84781 2.68473,-1.695619 4.027095,-2.543429 z"
       id="path4374"
       inkscape:connector-curvature="0" />
    <path
       style="fill:#5d4d31;fill-opacity:1;stroke:#c1ad79;stroke-width:0.36399999;stroke-linecap:butt;stroke-linejoin:round;stroke-miterlimit:4;stroke-opacity:1;stroke-dasharray:none;marker-mid:none"
       d="m 33.414109,40.347001 c -0.729011,1.171563 -1.458022,2.343127 -2.187033,3.51469 5.30097,1.091423 10.601941,2.182846 15.902911,3.274269 -0.05898,-1.331326 -0.117957,-2.662652 -0.176936,-3.993978 -4.512981,-0.93166 -9.025961,-1.863321 -13.538942,-2.794981 z"
       id="path4364-1"
       inkscape:connector-curvature="0" />
    <path
       style="fill:#5d4d31;fill-opacity:1;stroke:#c1ad79;stroke-width:0.36399999;stroke-linecap:butt;stroke-linejoin:round;stroke-miterlimit:4;stroke-opacity:1;stroke-dasharray:none;marker-mid:none"
       d="m 41.933913,35.369363 c -0.706508,1.165738 -1.413016,2.331475 -2.119524,3.497213 5.016206,0.953786 10.032411,1.907571 15.048617,2.861357 -0.247278,-1.518992 -0.494556,-3.037984 -0.741834,-4.556976 -4.06242,-0.600531 -8.124839,-1.201063 -12.187259,-1.801594 z"
       id="path4386"
       inkscape:connector-curvature="0" />
    <path
       style="fill:#5d4d31;fill-opacity:1;stroke:#c1ad79;stroke-width:0.36399999;stroke-linecap:butt;stroke-linejoin:round;stroke-miterlimit:4;stroke-opacity:1;stroke-dasharray:none;marker-mid:none"
       d="m 24.129915,46.284908 c -1.165738,1.271714 -2.331475,2.543429 -3.497213,3.815143 5.934666,1.342365 11.869331,2.68473 17.803997,4.027095 -0.282603,-1.660294 -0.565207,-3.320587 -0.84781,-4.980881 -4.486325,-0.953786 -8.972649,-1.907571 -13.458974,-2.861357 z"
       id="path4364"
       inkscape:connector-curvature="0" />
    <path
       style="fill:#5d4d31;fill-opacity:1;stroke:#c1ad79;stroke-width:0.36399999;stroke-linecap:butt;stroke-linejoin:round;stroke-miterlimit:4;stroke-opacity:1;stroke-dasharray:none;marker-mid:none"
       d="m 54.015197,37.170957 c 0.317928,1.518992 0.635857,3.037984 0.953785,4.556976 1.942897,-1.483666 3.885793,-2.967333 5.82869,-4.450999 -0.91846,-0.883135 -1.836921,-1.76627 -2.755381,-2.649405 -1.342365,0.847809 -2.684729,1.695619 -4.027094,2.543428 z"
       id="path4372"
       inkscape:connector-curvature="0" />
    <path
       style="fill:#5d4d31;fill-opacity:1;stroke:#c1ad79;stroke-width:0.36399999;stroke-linecap:butt;stroke-linejoin:round;stroke-miterlimit:4;stroke-opacity:1;stroke-dasharray:none;marker-mid:none"
       d="m 4.8422522,42.469766 c -0.953786,1.342365 -1.907572,2.68473 -2.861357,4.027095 5.192832,1.095087 10.3856648,2.190174 15.5784968,3.285261 -0.247278,-1.660293 -0.494555,-3.320587 -0.741833,-4.98088 C 12.82579,44.024083 8.8340212,43.246925 4.8422522,42.469766 z"
       id="path4380"
       inkscape:connector-curvature="0" />
    <path
       style="fill:#5d4d31;fill-opacity:1;stroke:#c1ad79;stroke-width:0.36399999;stroke-linecap:butt;stroke-linejoin:round;stroke-miterlimit:4;stroke-opacity:1;stroke-dasharray:none;marker-mid:none"
       d="m 24.871749,32.613982 c -0.706508,1.342365 -1.413016,2.68473 -2.119524,4.027095 4.627626,0.529881 9.255253,1.059762 13.882879,1.589643 0.03533,-1.342365 0.07065,-2.68473 0.105976,-4.027095 -3.956444,-0.529881 -7.912887,-1.059762 -11.869331,-1.589643 z"
       id="path4384"
       inkscape:connector-curvature="0" />
    <path
       style="fill:#5d4d31;fill-opacity:1;stroke:#c1ad79;stroke-width:0.36399999;stroke-linecap:butt;stroke-linejoin:round;stroke-miterlimit:4;stroke-opacity:1;stroke-dasharray:none;marker-mid:none"
       d="m 27.415177,39.396457 c 0.141301,1.483666 0.282603,2.967333 0.423904,4.450999 2.614079,-1.766269 5.228158,-3.532539 7.842237,-5.298808 -0.953785,-0.777159 -1.907571,-1.554317 -2.861356,-2.331476 -1.801595,1.059762 -3.60319,2.119523 -5.404785,3.179285 z"
       id="path4376"
       inkscape:connector-curvature="0" />
    <path
       style="fill:#5d4d31;fill-opacity:1;stroke:#c1ad79;stroke-width:0.36399999;stroke-linecap:butt;stroke-linejoin:round;stroke-miterlimit:4;stroke-opacity:1;stroke-dasharray:none;marker-mid:none"
       d="m 15.545845,37.276934 c -0.600531,1.271714 -1.201063,2.543428 -1.801594,3.815142 4.733602,0.847809 9.467205,1.695619 14.200807,2.543428 C 27.733105,42.222488 27.521153,40.809473 27.3092,39.396457 23.388082,38.689949 19.466963,37.983442 15.545845,37.276934 z"
       id="path4382"
       inkscape:connector-curvature="0" />
    <path
       style="fill:#5d4d31;fill-opacity:1;stroke:#c1ad79;stroke-width:0.36399999;stroke-linecap:butt;stroke-linejoin:round;stroke-miterlimit:4;stroke-opacity:1;stroke-dasharray:none;marker-mid:none"
       d="m 17.029511,44.695266 c 0.176627,1.730944 0.353254,3.461889 0.529881,5.192833 2.896682,-1.942897 5.793365,-3.885793 8.690047,-5.82869 -0.989111,-0.812484 -1.978222,-1.624968 -2.967333,-2.437452 -2.084198,1.024436 -4.168397,2.048873 -6.252595,3.073309 z"
       id="path4378"
       inkscape:connector-curvature="0" />
    <path
       style="fill:#5d4d31;fill-opacity:1;stroke:#c1ad79;stroke-width:0.36399999;stroke-linecap:butt;stroke-linejoin:round;stroke-miterlimit:4;stroke-opacity:1;stroke-dasharray:none;marker-mid:none"
       d="m 47.020769,42.999647 c 0.07065,1.413016 0.141301,2.826031 0.211952,4.239047 2.190174,-1.589643 4.380349,-3.179285 6.570523,-4.768928 -0.847809,-0.953785 -1.695619,-1.907571 -2.543428,-2.861356 -1.413016,1.130412 -2.826031,2.260825 -4.239047,3.391237 z"
       id="path4370"
       inkscape:connector-curvature="0" />
    <path
       style="fill:#5d4d31;fill-opacity:1;stroke:#c1ad79;stroke-width:0.36399999;stroke-linecap:butt;stroke-linejoin:round;stroke-miterlimit:4;stroke-opacity:1;stroke-dasharray:none;marker-mid:none"
       d="m 42.887698,45.225147 c 1.095087,1.130412 2.190175,2.260825 3.285262,3.391237 -2.508103,1.836921 -5.016206,3.673841 -7.524309,5.510762 -0.388579,-1.624968 -0.777158,-3.249937 -1.165737,-4.874905 1.801595,-1.342365 3.603189,-2.684729 5.404784,-4.027094 z"
       id="path4366"
       inkscape:connector-curvature="0" />
    <path
       style="fill:#5d4d31;fill-opacity:1;stroke:#c1ad79;stroke-width:0.3642931;stroke-linecap:butt;stroke-linejoin:round;stroke-miterlimit:4;stroke-opacity:1;stroke-dasharray:none;marker-mid:none"
       d="m 24.046528,46.284909 c 1.907571,-1.130413 3.815143,-2.260825 5.722714,-3.391238 4.345023,0.812484 8.690048,1.624968 13.03507,2.437452 -1.695619,1.271714 -3.391238,2.543429 -5.086857,3.815143 -4.556976,-0.953786 -9.113951,-1.907571 -13.670927,-2.861357 z"
       id="path4360"
       inkscape:connector-curvature="0" />
    <path
       style="fill:#5d4d31;fill-opacity:1;stroke:#c1ad79;stroke-width:0.3642931;stroke-linecap:butt;stroke-linejoin:round;stroke-miterlimit:4;stroke-opacity:1;stroke-dasharray:none;marker-mid:none"
       d="m 4.7588655,42.469766 c 4.1015933,0.739164 8.2550285,1.695865 12.3149375,2.370474 2.112289,-1.108086 4.224579,-2.216173 6.336868,-3.324259 -4.097745,-0.671182 -8.19549,-1.342365 -12.293235,-2.013547 -2.1195237,0.989111 -4.2390471,1.978221 -6.3585705,2.967332 z"
       id="path4350"
       inkscape:connector-curvature="0" />
    <path
       style="fill:#5d4d31;fill-opacity:1;stroke:#c1ad79;stroke-width:0.3642931;stroke-linecap:butt;stroke-linejoin:round;stroke-miterlimit:4;stroke-opacity:1;stroke-dasharray:none;marker-mid:none"
       d="m 33.266456,40.350243 c 1.730944,-0.953786 3.461888,-1.907571 5.192833,-2.861357 4.309698,0.671183 8.619396,1.342365 12.929094,2.013548 -1.448341,1.201063 -2.896682,2.402127 -4.345023,3.60319 -4.592301,-0.91846 -9.184602,-1.836921 -13.776904,-2.755381 z"
       id="path4354"
       inkscape:connector-curvature="0" />
    <path
       style="fill:#5d4d31;fill-opacity:1;stroke:#c1ad79;stroke-width:0.3642931;stroke-linecap:butt;stroke-linejoin:round;stroke-miterlimit:4;stroke-opacity:1;stroke-dasharray:none;marker-mid:none"
       d="m 42.27443,35.369363 c 1.30704,-0.847809 2.614079,-1.695619 3.921119,-2.543428 3.991769,0.565206 7.983539,1.130412 11.975308,1.695618 -1.362363,0.84151 -2.662778,1.956897 -4.063694,2.627956 -3.944245,-0.593382 -7.888489,-1.186764 -11.832733,-1.780146 z"
       id="path4356"
       inkscape:connector-curvature="0" />
    <path
       style="fill:#5d4d31;fill-opacity:1;stroke:#c1ad79;stroke-width:0.3642931;stroke-linecap:butt;stroke-linejoin:round;stroke-miterlimit:4;stroke-opacity:1;stroke-dasharray:none;marker-mid:none"
       d="m 24.894338,32.613982 c 1.589643,-0.91846 3.179285,-1.83692 4.768928,-2.75538 3.709166,0.529881 7.418333,1.059761 11.127498,1.589642 -1.37769,0.883135 -2.75538,1.766269 -4.13307,2.649404 -3.921118,-0.494555 -7.842237,-0.989111 -11.763356,-1.483666 z"
       id="path4358"
       inkscape:connector-curvature="0" />
    <path
       style="fill:#5d4d31;fill-opacity:1;stroke:#c1ad79;stroke-width:0.3642931;stroke-linecap:butt;stroke-linejoin:round;stroke-miterlimit:4;stroke-opacity:1;stroke-dasharray:none;marker-mid:none"
       d="m 15.568435,37.276934 c 1.994741,-0.88435 3.955948,-1.987005 5.971523,-2.735724 3.802856,0.523329 7.605713,1.046657 11.408569,1.569986 -1.83692,1.095087 -3.673841,2.190175 -5.510761,3.285262 -3.956444,-0.706508 -7.912887,-1.413016 -11.869331,-2.119524 z"
       id="path4390"
       inkscape:connector-curvature="0" />
    <path
       style="fill:none;stroke:#c1ad79;stroke-width:0.40000001;stroke-linecap:butt;stroke-linejoin:miter;stroke-miterlimit:0;stroke-opacity:1;stroke-dasharray:none"
       d="m 39.08372,55.386154 c 0.385695,8.228151 0.385695,8.228151 0.385695,8.228151 l 0,0 0,0 0,0"
       id="path6628"
       inkscape:connector-curvature="0" />
  </g>
</svg>
