<?xml version="1.0" encoding="UTF-8" standalone="no"?>
<!-- Created with Inkscape (http://www.inkscape.org/) -->

<svg
   xmlns:dc="http://purl.org/dc/elements/1.1/"
   xmlns:cc="http://creativecommons.org/ns#"
   xmlns:rdf="http://www.w3.org/1999/02/22-rdf-syntax-ns#"
   xmlns:svg="http://www.w3.org/2000/svg"
   xmlns="http://www.w3.org/2000/svg"
   xmlns:sodipodi="http://sodipodi.sourceforge.net/DTD/sodipodi-0.dtd"
   xmlns:inkscape="http://www.inkscape.org/namespaces/inkscape"
   width="64px"
   height="64px"
   id="svg4374"
   version="1.1"
   inkscape:version="0.48.4 r9939"
   sodipodi:docname="corn.svg">
  <defs
     id="defs4376" />
  <sodipodi:namedview
     id="base"
     pagecolor="#ffffff"
     bordercolor="#666666"
     borderopacity="1.0"
     inkscape:pageopacity="0.0"
     inkscape:pageshadow="2"
     inkscape:zoom="11"
     inkscape:cx="13.961419"
     inkscape:cy="28.598503"
     inkscape:current-layer="layer1"
     showgrid="true"
     inkscape:document-units="px"
     inkscape:grid-bbox="true"
     inkscape:window-width="1918"
     inkscape:window-height="1078"
     inkscape:window-x="0"
     inkscape:window-y="0"
     inkscape:window-maximized="1" />
  <metadata
     id="metadata4379">
    <rdf:RDF>
      <cc:Work
         rdf:about="">
        <dc:format>image/svg+xml</dc:format>
        <dc:type
           rdf:resource="http://purl.org/dc/dcmitype/StillImage" />
        <dc:title />
      </cc:Work>
    </rdf:RDF>
  </metadata>
  <g
     id="layer1"
     inkscape:label="Layer 1"
     inkscape:groupmode="layer">
    <path
       style="fill:#5d4d31;fill-opacity:1;stroke:#5d4d31;stroke-width:1.18355334;stroke-miterlimit:4;stroke-opacity:1;stroke-dasharray:none"
       d="M 47.15625 0.8125 C 46.398761 0.885289 45.51361 1.3768009 44.3125 2.375 C 41.71336 4.5350451 37.910186 9.050208 33.09375 15.71875 C 32.198211 16.958667 31.49805 17.842487 31.53125 17.6875 C 31.564456 17.532506 31.899654 16.585427 32.28125 15.5625 C 33.087086 13.402311 33.864443 10.830491 34.21875 9.09375 C 34.555947 7.440889 34.518288 5.9826449 34.09375 5.0625 C 33.15209 3.0215429 31.116962 1.5751939 30.03125 2.15625 C 29.642065 2.36453 29.563563 2.7115909 29.40625 5.03125 C 29.172707 8.4749499 28.757228 10.281203 27.65625 12.4375 C 26.640511 14.426858 25.055313 16.453744 20.28125 21.875 C 12.389749 30.836292 11.364608 32.526297 10.71875 37.4375 C 10.486712 39.201938 10.53313 43.613765 10.8125 45.34375 C 11.203906 47.767514 11.829857 49.637345 12.65625 50.84375 C 12.839936 51.111902 13.01852 51.453286 13.0625 51.59375 C 13.268034 52.250217 12.569683 53.090018 10.53125 54.65625 C 9.2136896 55.668599 8.479589 56.378403 8.09375 56.96875 C 7.854083 57.335459 7.78445 57.560349 7.78125 58.15625 C 7.778033 58.769438 7.849089 59.042476 8.1875 59.75 C 8.886634 61.211703 10.31847 62.507656 11.75 63 C 13.251367 63.516364 14.685189 63.219681 15.59375 62.1875 C 16.506945 61.150058 17.200434 59.518226 18 56.5625 C 18.257097 55.612103 18.53576 54.74924 18.625 54.65625 C 18.75851 54.517127 19.039471 54.51612 20.21875 54.5625 C 24.56286 54.73334 26.202192 54.447383 28.40625 53.1875 C 29.859394 52.356857 31.747851 50.436555 33.4375 48.03125 C 34.808044 46.080207 37.275009 42.018774 40.53125 36.3125 C 41.728234 34.214896 43.428278 31.441626 44.09375 30.53125 C 45.894595 28.06767 49.112844 24.820618 51.40625 23.125 C 52.301862 22.462835 53.865137 21.68426 54.46875 21.59375 L 54.9375 21.5 L 54.59375 21.0625 C 54.174873 20.541264 53.170759 19.731291 52.53125 19.40625 C 51.739993 19.004072 51.077716 18.879274 50.46875 19.03125 C 49.588464 19.25093 46.660781 21.146673 42.90625 23.875 C 42.19397 24.392598 41.58221 24.7466 41.5625 24.6875 C 41.542799 24.628401 41.661232 24.361885 41.8125 24.0625 C 42.629096 22.446321 44.492604 17.948089 45.8125 14.53125 C 45.599498 15.036333 45.196316 15.781673 45 16.03125 C 44.841618 16.232588 44.771244 16.28315 44.34375 16.28125 C 44.225731 16.280812 44.149747 16.262139 44.0625 16.25 C 44.204701 16.425097 44.28125 16.583786 44.28125 16.75 C 44.28125 17.037659 43.42527 18.851311 43.0625 19.3125 C 42.854687 19.576671 42.717162 19.6275 42.15625 19.625 C 42.131386 19.624908 42.117197 19.625362 42.09375 19.625 C 42.100784 19.657698 42.125 19.686502 42.125 19.71875 C 42.125 19.937986 41.463982 21.336009 41.1875 21.6875 C 41.074542 21.831094 40.938461 21.855568 40.75 21.875 C 40.93818 22.04432 41.03125 22.216704 41.03125 22.375 C 41.03125 22.538522 40.62477 23.389093 40.3125 23.90625 C 40.335988 23.988343 40.375 24.075873 40.375 24.15625 C 40.375 24.475417 39.627502 26.274876 39.1875 27.0625 C 39.18946 27.081375 39.1875 27.106242 39.1875 27.125 C 39.1875 27.412778 38.235995 29.226121 37.84375 29.6875 C 37.686351 29.872623 37.538263 29.94201 37.28125 29.96875 C 37.438537 30.170025 37.53125 30.37071 37.53125 30.5625 C 37.53125 30.922137 36.408484 33.204664 35.9375 33.78125 C 35.870049 33.863817 35.812505 33.917975 35.75 33.96875 C 36.016287 34.241573 36.15625 34.524945 36.15625 34.78125 C 36.15625 35.146357 35.022941 37.445891 34.5625 38.03125 C 34.298735 38.366547 34.180681 38.40945 33.46875 38.40625 C 33.048737 38.404691 32.769224 38.379083 32.46875 38.25 C 33.459773 38.804214 33.96875 39.317479 33.96875 39.8125 C 33.96875 40.177607 32.835441 42.508391 32.375 43.09375 C 32.111235 43.429047 31.961931 43.47195 31.25 43.46875 C 30.827502 43.467181 30.584079 43.41229 30.28125 43.28125 C 30.469963 43.543704 30.59375 43.81188 30.59375 44.0625 C 30.59375 44.555427 29.090385 47.647215 28.46875 48.4375 C 28.201671 48.777009 28.005643 48.900075 27.53125 48.9375 C 27.143917 49.991357 26.069811 52.167555 25.5625 52.8125 C 25.206395 53.265178 24.992418 53.34805 24.03125 53.34375 C 23.086162 53.340242 22.784797 53.22534 21.75 52.5625 C 20.742078 51.916877 20.22892 51.440512 20.15625 50.78125 C 19.927165 51.19252 19.717909 51.521179 19.5625 51.71875 C 19.206395 52.171428 18.992418 52.2543 18.03125 52.25 C 17.086162 52.246492 16.784797 52.13159 15.75 51.46875 C 13.910902 50.29072 13.704349 49.635712 14.875 47.46875 C 14.43824 47.397036 14.118818 47.223265 13.46875 46.75 C 11.690801 45.455617 11.612073 44.820809 13 42.09375 C 13.620608 40.874341 14.093796 40.182526 14.625 39.90625 C 14.300163 39.179282 14.637766 38.277672 15.59375 36.625 C 16.862624 34.431392 17.61703 33.916777 19.15625 34.5625 C 18.626279 33.949672 18.806939 33.31201 19.65625 31.84375 C 20.63881 30.145116 21.186528 29.82449 22.4375 30.40625 C 22.540332 30.029733 22.757495 29.573851 23.0625 28.96875 C 23.690548 27.722747 24.096573 27.240587 24.71875 27.3125 C 24.749049 26.955061 24.953459 26.487222 25.34375 25.8125 C 26.121339 24.468216 26.567498 24.220528 27.5625 24.6875 C 27.672083 24.361138 27.855395 23.969335 28.125 23.46875 C 28.67946 22.439252 29.077756 21.97708 29.59375 21.9375 C 29.701355 21.678703 29.847266 21.372089 30.0625 21 C 30.896076 19.558928 31.341267 19.387239 32.5 20 C 31.857455 19.450462 31.962709 18.963266 32.71875 17.65625 C 33.399141 16.480002 33.80276 16.132544 34.5625 16.375 C 34.627848 16.037958 34.811875 15.595343 35.15625 15 C 35.730009 14.008095 36.12527 13.614354 36.6875 13.65625 C 36.391146 13.294183 36.499459 12.896568 37 12.03125 C 37.34349 11.437431 37.605064 11.125386 37.90625 11.03125 C 37.822204 10.72334 37.955835 10.326864 38.34375 9.65625 C 38.952186 8.6043972 39.322413 8.447723 40.125 8.84375 C 40.198223 8.7185295 40.245867 8.6314696 40.3125 8.53125 C 40.146058 8.2024495 40.281314 7.7874738 40.71875 7.03125 C 41.382498 5.8837736 41.71148 5.7666781 42.6875 6.3125 C 42.371239 5.9450532 42.490854 5.5676946 43 4.6875 C 43.663748 3.5400242 43.99273 3.4229285 44.96875 3.96875 C 44.614611 3.5907937 44.756327 3.2199683 45.28125 2.3125 C 45.944998 1.1650242 46.27398 1.0479285 47.25 1.59375 C 47.845079 1.9265391 48.125 2.2340048 48.125 2.53125 C 48.125 2.6956772 47.743166 3.513746 47.4375 4.0625 C 48.006125 4.3870727 48.3125 4.7094524 48.3125 5 C 48.3125 5.2192363 47.651482 6.586009 47.375 6.9375 C 47.315607 7.0130017 47.247757 7.0593511 47.1875 7.09375 C 47.444887 7.3038898 47.59375 7.4924047 47.59375 7.6875 C 47.59375 7.9177314 46.836842 9.3808815 46.53125 9.75 C 46.356192 9.9614384 46.253755 10.002 45.78125 10 C 45.875984 10.043936 45.952926 10.063723 46.0625 10.125 C 46.657579 10.457789 46.9375 10.796505 46.9375 11.09375 C 46.9375 11.312986 46.276482 12.679759 46 13.03125 C 45.841618 13.232588 45.771244 13.28315 45.34375 13.28125 C 45.317883 13.281154 45.305142 13.281741 45.28125 13.28125 C 45.712474 13.560258 45.9375 13.840806 45.9375 14.09375 C 45.9375 14.148559 45.911078 14.271114 45.84375 14.4375 C 46.265854 13.342285 46.624106 12.361036 46.875 11.625 C 48.995959 5.4028341 49.385675 2.2318811 48.125 1.125 C 47.755218 0.80034511 47.637609 0.76624 47.15625 0.8125 z M 45.28125 13.28125 C 45.205725 13.232384 45.15119 13.174598 45.0625 13.125 C 44.696492 12.920317 44.423937 12.810492 44.1875 12.8125 C 44.24066 12.849342 44.251322 12.898312 44.3125 12.9375 C 44.744418 13.214166 44.916894 13.273763 45.28125 13.28125 z M 45.78125 10 C 45.507142 9.8728719 45.257316 9.809207 45.0625 9.84375 C 45.288467 9.9461198 45.476389 9.9989252 45.78125 10 z M 45.0625 9.84375 C 45.051669 9.838843 45.04235 9.8177836 45.03125 9.8125 C 45.024704 9.8244589 45.006491 9.8320139 45 9.84375 C 45.017517 9.8391059 45.044622 9.8469199 45.0625 9.84375 z M 45.03125 9.8125 C 45.330606 9.2656119 45.6875 8.502448 45.6875 8.34375 C 45.6875 8.0465048 45.376329 7.7390391 44.78125 7.40625 C 44.681822 7.3506466 44.618354 7.3226138 44.53125 7.28125 C 44.486797 7.3499573 44.453445 7.3912294 44.40625 7.46875 C 43.632661 8.7393889 43.665274 9.0218983 44.65625 9.625 C 44.81515 9.7217061 44.921016 9.7600287 45.03125 9.8125 z M 44.53125 7.28125 C 44.584287 7.1992743 44.637472 7.1322419 44.6875 7.0625 C 44.593625 7.0945498 44.463747 7.0947 44.25 7.09375 C 43.902935 7.0924619 43.709423 7.0210276 43.40625 6.84375 C 43.511509 6.9644471 43.545178 7.0722507 43.5625 7.1875 C 43.82389 7.0330978 44.131639 7.0914829 44.53125 7.28125 z M 43.5625 7.1875 C 43.321575 7.3298137 43.098422 7.6307027 42.8125 8.125 C 42.71918 8.2863277 42.692015 8.4000629 42.625 8.53125 C 42.736246 8.6324421 42.854973 8.7149304 42.90625 8.8125 C 43.211916 8.2637459 43.59375 7.414427 43.59375 7.25 C 43.59375 7.2275664 43.565905 7.2101519 43.5625 7.1875 z M 42.625 8.53125 C 42.480548 8.3998523 42.307714 8.2621321 42.0625 8.125 C 41.208483 7.6474062 40.834164 7.7466358 40.3125 8.53125 C 40.412365 8.7285303 40.601284 8.8783875 40.9375 9.09375 C 41.397741 9.388558 41.548409 9.43594 41.96875 9.4375 C 42.136927 9.4382475 42.225473 9.4235807 42.3125 9.40625 C 42.288798 9.1912249 42.44071 8.8920146 42.625 8.53125 z M 42.3125 9.40625 C 42.332054 9.5836457 42.455627 9.7531733 42.625 9.90625 C 42.805532 9.5255317 42.9375 9.19461 42.9375 9.09375 C 42.9375 9.0194387 42.943576 8.9204241 42.90625 8.84375 C 42.810495 9.0140803 42.690526 9.1354466 42.625 9.21875 C 42.528926 9.3408814 42.44669 9.3795272 42.3125 9.40625 z M 42.625 9.90625 C 42.579892 10.001376 42.548266 10.091647 42.5 10.1875 C 42.627498 10.11784 42.756882 10.07834 42.90625 10.09375 C 42.799657 10.020474 42.700638 9.9746108 42.625 9.90625 z M 42.90625 10.09375 C 42.955495 10.127602 42.975295 10.151658 43.03125 10.1875 C 43.390592 10.417677 43.588678 10.475496 43.84375 10.5 C 43.792327 10.46852 43.744326 10.438029 43.6875 10.40625 C 43.36654 10.226759 43.122708 10.116082 42.90625 10.09375 z M 43.84375 10.5 C 43.966875 10.575374 44.095399 10.645143 44.1875 10.71875 C 44.236141 10.638889 44.266712 10.568031 44.3125 10.5 C 44.236713 10.507814 44.185106 10.531795 44.0625 10.53125 C 43.970348 10.530908 43.915371 10.50688 43.84375 10.5 z M 44.3125 10.5 C 44.500961 10.480568 44.605792 10.456094 44.71875 10.3125 C 44.78787 10.224627 44.898111 10.057918 45 9.875 C 44.767649 9.9391789 44.547466 10.150894 44.3125 10.5 z M 44.1875 10.71875 C 44.152322 10.776507 44.130824 10.810907 44.09375 10.875 C 43.502541 11.897062 43.467008 12.254492 44 12.6875 C 44.282969 12.154032 44.59375 11.491057 44.59375 11.34375 C 44.59375 11.142853 44.459747 10.936329 44.1875 10.71875 z M 44 12.6875 C 43.967113 12.749501 43.938076 12.817863 43.90625 12.875 C 43.978783 12.844561 44.077212 12.816184 44.15625 12.8125 C 44.097011 12.770876 44.048992 12.727301 44 12.6875 z M 42.5 10.1875 C 42.250407 10.323868 42.013607 10.615256 41.71875 11.125 C 41.689588 11.175415 41.682865 11.202723 41.65625 11.25 C 41.808399 11.225756 41.897787 11.161185 42 11.03125 C 42.117505 10.881866 42.321544 10.541898 42.5 10.1875 z M 41.65625 11.25 C 41.597395 11.259378 41.527295 11.27974 41.4375 11.28125 C 41.483697 11.323887 41.526962 11.364248 41.5625 11.40625 C 41.592756 11.349749 41.621651 11.31146 41.65625 11.25 z M 41.5625 11.40625 C 41.218579 12.048484 41.154803 12.438032 41.40625 12.75 C 41.608833 12.331822 41.78125 11.922118 41.78125 11.8125 C 41.78125 11.680226 41.680653 11.545894 41.5625 11.40625 z M 41.40625 12.75 C 41.336598 12.893777 41.259898 13.019761 41.1875 13.15625 C 41.342606 13.03589 41.505413 12.987742 41.6875 13 C 41.575974 12.914998 41.473006 12.832823 41.40625 12.75 z M 41.6875 13 C 41.772784 13.065002 41.825428 13.115712 41.9375 13.1875 C 42.325165 13.435819 42.520072 13.482262 42.8125 13.5 C 42.72047 13.437649 42.613652 13.376058 42.5 13.3125 C 42.164024 13.124611 41.910743 13.015028 41.6875 13 z M 42.8125 13.5 C 42.947279 13.591314 43.067951 13.692637 43.15625 13.78125 C 43.222807 13.669597 43.282501 13.590276 43.34375 13.5 C 43.254103 13.521608 43.152117 13.532065 42.96875 13.53125 C 42.902465 13.531004 42.867247 13.503321 42.8125 13.5 z M 43.34375 13.5 C 43.463102 13.471232 43.534553 13.427477 43.625 13.3125 C 43.690627 13.229068 43.810323 13.076931 43.90625 12.90625 C 43.714612 12.991785 43.542722 13.206731 43.34375 13.5 z M 43.15625 13.78125 C 43.134062 13.818471 43.116688 13.835345 43.09375 13.875 C 42.69428 14.565589 42.523249 14.937467 42.625 15.25 C 42.722415 15.291418 42.828026 15.349311 42.9375 15.40625 C 43.183757 14.91972 43.40625 14.378253 43.40625 14.25 C 43.40625 14.092665 43.323348 13.948941 43.15625 13.78125 z M 42.9375 15.40625 C 42.910138 15.460309 42.87122 15.510071 42.84375 15.5625 C 42.960362 15.679875 43.103651 15.803722 43.3125 15.9375 C 43.643519 16.149535 43.839005 16.218904 44.0625 16.25 C 43.871032 16.01424 43.573044 15.750561 43.125 15.5 C 43.056395 15.461634 43.001456 15.439514 42.9375 15.40625 z M 42.84375 15.5625 C 42.745479 15.463586 42.659996 15.357492 42.625 15.25 C 42.19743 15.06821 41.860107 15.063963 41.5625 15.21875 C 41.672628 15.371911 41.75 15.509995 41.75 15.65625 C 41.75 15.754991 41.619898 16.063291 41.46875 16.40625 C 41.563603 16.421743 41.650298 16.437014 41.78125 16.4375 C 42.208744 16.4394 42.310368 16.420088 42.46875 16.21875 C 42.565519 16.095728 42.695835 15.844812 42.84375 15.5625 z M 41.46875 16.40625 C 41.259137 16.372012 41.098108 16.296714 40.78125 16.09375 C 40.696774 16.224189 40.624045 16.308328 40.53125 16.46875 C 39.915968 17.532429 39.732409 18.048397 40.03125 18.5 C 40.056067 18.495923 40.103216 18.505578 40.125 18.5 C 40.275595 18.461438 40.383763 18.39776 40.5 18.25 C 40.738247 17.947117 41.179562 17.062424 41.46875 16.40625 z M 40.125 18.5 C 40.102837 18.508132 40.084257 18.520593 40.0625 18.53125 C 40.213686 18.740462 40.476127 18.95202 40.84375 19.1875 C 41.420406 19.556878 41.597099 19.617342 42.09375 19.625 C 42.035949 19.356305 41.780519 19.077935 41.25 18.78125 C 40.76199 18.508339 40.413119 18.394286 40.125 18.5 z M 40.0625 18.53125 C 40.054034 18.519534 40.039056 18.511796 40.03125 18.5 C 39.920904 18.518126 39.826792 18.532149 39.625 18.53125 C 39.37833 18.530334 39.201606 18.51742 39.03125 18.46875 C 39.300978 18.692662 39.471873 18.91437 39.53125 19.125 C 39.722263 18.843466 39.879617 18.620832 40.0625 18.53125 z M 39.53125 19.125 C 39.449578 19.245376 39.373003 19.341378 39.28125 19.5 C 38.82699 20.285309 38.676672 20.663243 38.875 21 C 39.220407 20.312245 39.5625 19.499337 39.5625 19.3125 C 39.5625 19.254347 39.547957 19.184264 39.53125 19.125 z M 38.875 21 C 38.688373 21.371601 38.497085 21.713152 38.375 21.875 C 38.609653 21.533619 38.806771 21.296801 39.03125 21.21875 C 38.960807 21.151298 38.915859 21.069378 38.875 21 z M 38.375 21.875 C 38.275313 22.007142 38.211921 22.082927 38.09375 22.125 C 38.127601 22.131758 38.152348 22.146413 38.1875 22.15625 C 38.261058 22.035742 38.308245 21.972117 38.375 21.875 z M 38.1875 22.15625 C 37.487069 23.303729 37.50899 23.580355 38.40625 24.125 C 38.866842 24.404585 39.016839 24.436021 39.4375 24.4375 C 39.86532 24.4393 39.935247 24.440939 40.09375 24.25 C 40.152829 24.178825 40.227723 24.046651 40.3125 23.90625 C 40.195062 23.495787 39.795583 23.074943 39.09375 22.625 C 38.732848 22.393627 38.448679 22.229343 38.1875 22.15625 z M 40.78125 16.09375 C 41.055327 15.670547 41.306881 15.351698 41.5625 15.21875 C 41.378954 14.963481 41.050501 14.710407 40.5625 14.4375 C 40.496006 14.400314 40.437121 14.376145 40.375 14.34375 C 39.885718 15.266134 39.978067 15.579273 40.78125 16.09375 z M 40.375 14.34375 C 40.431893 14.236496 40.458344 14.157287 40.53125 14.03125 C 40.545452 14.006698 40.548592 13.992366 40.5625 13.96875 C 40.470608 13.995251 40.354807 14.000882 40.15625 14 C 39.784759 13.998621 39.598353 13.9309 39.25 13.71875 C 39.143884 13.914318 39.014731 14.048818 38.9375 14.15625 C 39.324634 13.912016 39.741568 14.013426 40.375 14.34375 z M 38.9375 14.15625 C 38.84974 14.211616 38.774566 14.316968 38.6875 14.40625 C 38.781375 14.3742 38.827059 14.319419 38.90625 14.21875 C 38.915927 14.206448 38.9269 14.170996 38.9375 14.15625 z M 39.25 13.71875 C 39.54546 13.174226 39.875 12.405658 39.875 12.25 C 39.875 12.175689 39.849826 12.107924 39.8125 12.03125 C 39.741965 12.036869 39.701166 12.062977 39.59375 12.0625 C 39.246685 12.061212 39.084423 11.989778 38.78125 11.8125 C 38.235951 12.809144 38.295667 13.125023 39.125 13.65625 C 39.178487 13.690511 39.204192 13.690853 39.25 13.71875 z M 38.78125 11.8125 C 38.825463 11.731691 38.853758 11.684497 38.90625 11.59375 C 38.960912 11.499252 39.011786 11.455789 39.0625 11.375 C 39.027622 11.354328 39.005942 11.333299 38.96875 11.3125 C 38.49782 11.049141 38.187066 10.94348 37.90625 11.03125 C 37.973844 11.278888 38.194097 11.462753 38.59375 11.71875 C 38.673981 11.770142 38.717241 11.775072 38.78125 11.8125 z M 39.0625 11.375 C 39.446161 11.602387 39.709855 11.820396 39.8125 12.03125 C 40.022681 12.014506 40.162664 11.994498 40.28125 11.84375 C 40.383506 11.713752 40.531031 11.426883 40.6875 11.125 C 40.579252 11.073804 40.472962 11.040284 40.3125 10.9375 C 40.118945 10.813519 39.989225 10.702671 39.875 10.59375 C 39.595113 10.651821 39.352023 10.913784 39.0625 11.375 z M 39.875 10.59375 C 40.126244 10.541622 40.414153 10.62785 40.8125 10.84375 C 41.023561 10.411627 41.21875 9.9880663 41.21875 9.875 C 41.21875 9.5777548 40.938829 9.2702891 40.34375 8.9375 C 40.262415 8.8920149 40.197962 8.8797525 40.125 8.84375 C 40.116329 8.8585787 40.102535 8.8598128 40.09375 8.875 C 39.544948 9.8237491 39.460116 10.198133 39.875 10.59375 z M 40.8125 10.84375 C 40.765672 10.939626 40.735909 11.031602 40.6875 11.125 C 40.889731 11.220646 41.06996 11.280234 41.34375 11.28125 C 41.388637 11.28145 41.399732 11.281885 41.4375 11.28125 C 41.292138 11.147089 41.12562 11.015155 40.875 10.875 C 40.850143 10.861099 40.836538 10.856779 40.8125 10.84375 z M 41.1875 13.15625 C 40.995269 13.305419 40.818735 13.588656 40.59375 13.96875 C 40.687625 13.9367 40.733309 13.881919 40.8125 13.78125 C 40.903211 13.665929 41.049327 13.416741 41.1875 13.15625 z M 44.6875 7.0625 C 44.781375 7.0304502 44.827059 6.944419 44.90625 6.84375 C 44.947446 6.7913778 45.00727 6.6848257 45.0625 6.59375 C 44.945586 6.6953567 44.812565 6.888152 44.6875 7.0625 z M 47.1875 7.09375 C 47.033068 6.9676661 46.8404 6.8185546 46.59375 6.6875 C 45.956852 6.3490943 45.581549 6.2722155 45.21875 6.5 C 45.333202 6.6095931 45.49272 6.718984 45.6875 6.84375 C 46.147741 7.138558 46.267159 7.18594 46.6875 7.1875 C 46.954684 7.1886875 47.087072 7.1510815 47.1875 7.09375 z M 45.21875 6.5 C 45.210123 6.4917392 45.195679 6.4770012 45.1875 6.46875 C 45.174167 6.4924669 45.169234 6.5087308 45.15625 6.53125 C 45.177386 6.5156669 45.197478 6.5133554 45.21875 6.5 z M 47.4375 4.0625 C 47.424392 4.0550181 47.419658 4.0387485 47.40625 4.03125 C 46.54208 3.5479786 46.188064 3.6567089 45.65625 4.46875 C 45.9765 4.6593243 46.143278 4.7174261 46.5 4.71875 C 46.927494 4.72065 47.029118 4.701338 47.1875 4.5 C 47.25662 4.4121273 47.335611 4.245418 47.4375 4.0625 z M 45.65625 4.46875 C 45.587417 4.5738529 45.513564 4.6497515 45.4375 4.78125 C 44.906847 5.6986251 44.819159 6.055506 45.1875 6.4375 C 45.493166 5.888746 45.875 5.0706772 45.875 4.90625 C 45.875 4.768031 45.78525 4.6150033 45.65625 4.46875 z M 44.96875 3.96875 C 45.086796 4.0947354 45.275856 4.231425 45.5 4.375 C 45.553268 4.4091209 45.579352 4.4096924 45.625 4.4375 C 45.475875 4.2796145 45.266289 4.1351445 44.96875 3.96875 z M 36.6875 13.65625 C 36.805532 13.800454 36.963373 13.930169 37.21875 14.09375 C 37.678991 14.388558 37.829659 14.43594 38.25 14.4375 C 38.29557 14.437703 38.305509 14.43816 38.34375 14.4375 C 38.180332 14.311473 37.982297 14.192409 37.75 14.0625 C 37.313063 13.818151 36.97867 13.677947 36.6875 13.65625 z M 38.34375 14.4375 C 38.40895 14.487782 38.445786 14.544109 38.5 14.59375 C 38.550919 14.529886 38.606328 14.458539 38.65625 14.40625 C 38.585443 14.426677 38.472153 14.435282 38.34375 14.4375 z M 38.5 14.59375 C 38.334875 14.800854 38.194145 15.039366 38 15.375 C 37.236834 16.694334 37.149647 17.162642 37.8125 17.71875 C 38.212845 17.118394 38.9375 15.578541 38.9375 15.3125 C 38.9375 15.084814 38.766633 14.837891 38.5 14.59375 z M 37.8125 17.71875 C 37.805504 17.729242 37.788024 17.740117 37.78125 17.75 C 37.809969 17.760119 37.845222 17.769348 37.875 17.78125 C 37.849717 17.7614 37.835879 17.738364 37.8125 17.71875 z M 37.78125 17.75 C 37.257981 17.565628 36.890724 17.664871 36.5 18.15625 C 36.590204 18.164299 36.697598 18.155824 36.8125 18.15625 C 37.373412 18.15875 37.479687 18.139171 37.6875 17.875 C 37.708899 17.847795 37.756526 17.78607 37.78125 17.75 z M 36.5 18.15625 C 36.470498 18.153618 36.434118 18.160037 36.40625 18.15625 C 36.381355 18.23688 36.39067 18.290299 36.34375 18.40625 C 36.395455 18.330774 36.449965 18.219174 36.5 18.15625 z M 36.34375 18.40625 C 36.220586 18.586038 36.109763 18.745786 35.96875 19 C 35.703142 19.478822 35.531232 19.855166 35.4375 20.15625 C 35.729132 19.672624 36.133319 18.92628 36.34375 18.40625 z M 35.4375 20.15625 C 35.361841 20.281719 35.274796 20.428749 35.21875 20.5 C 35.259008 20.510669 35.30146 20.548211 35.34375 20.5625 C 35.346388 20.441039 35.391166 20.305084 35.4375 20.15625 z M 35.34375 20.5625 C 35.334024 21.010369 35.629817 21.304493 36.25 21.71875 C 36.684518 22.008991 36.887131 22.119706 37.1875 22.15625 C 37.187974 22.150678 37.1875 22.129749 37.1875 22.125 C 37.1875 21.734986 36.812051 21.311651 36.03125 20.875 C 35.766031 20.726681 35.547908 20.631483 35.34375 20.5625 z M 37.1875 22.15625 C 37.18079 22.235048 37.145008 22.358602 37.0625 22.5625 C 37.289705 22.293475 37.530427 22.188072 37.78125 22.15625 C 37.698895 22.161646 37.650468 22.156804 37.53125 22.15625 C 37.398967 22.155738 37.287623 22.168431 37.1875 22.15625 z M 35.21875 20.5 C 34.811826 20.392158 34.501424 20.508446 34.1875 20.8125 C 34.241478 20.814641 34.28159 20.812269 34.34375 20.8125 C 34.904662 20.815 35.010937 20.764171 35.21875 20.5 z M 34.1875 20.8125 C 33.898324 20.801032 33.696887 20.760289 33.4375 20.625 C 33.659721 20.836556 33.791514 21.050836 33.8125 21.25 C 33.932213 21.079748 34.074161 20.922275 34.1875 20.8125 z M 33.8125 21.25 C 33.690286 21.42381 33.576692 21.571867 33.4375 21.8125 C 32.978334 22.60629 32.770092 23.115272 32.8125 23.5 C 33.226603 22.806387 33.84375 21.552808 33.84375 21.3125 C 33.84375 21.291926 33.814683 21.270714 33.8125 21.25 z M 32.8125 23.5 C 32.730905 23.63667 32.653464 23.799085 32.59375 23.875 C 32.43773 24.073331 32.277491 24.134486 32 24.15625 C 31.933225 24.360855 31.851269 24.598372 31.71875 24.90625 C 32.155135 24.257169 32.507825 23.941004 32.9375 23.875 C 32.861675 23.760414 32.826919 23.630807 32.8125 23.5 z M 32.9375 23.875 C 33.08469 24.097432 33.36179 24.282583 33.75 24.53125 C 34.35388 24.918066 34.542222 24.997953 35.09375 25 C 35.249369 25.000694 35.308515 24.978187 35.40625 24.96875 C 35.182941 24.745517 34.851804 24.516514 34.40625 24.28125 C 33.77486 23.947861 33.326922 23.815179 32.9375 23.875 z M 35.40625 24.96875 C 35.541464 25.103919 35.634082 25.244556 35.6875 25.375 C 35.725792 25.196644 35.816099 24.974712 35.90625 24.75 C 35.785824 24.887388 35.625564 24.947573 35.40625 24.96875 z M 35.90625 24.75 C 35.925594 24.727932 35.947969 24.713917 35.96875 24.6875 C 36.236451 24.347172 36.761174 23.252265 37.03125 22.59375 C 36.809103 22.867291 36.578486 23.254106 36.3125 23.78125 C 36.120972 24.160826 36.019058 24.468811 35.90625 24.75 z M 35.6875 25.375 C 35.643832 25.578397 35.630517 25.742764 35.65625 25.90625 C 35.690706 25.808027 35.75 25.667993 35.75 25.625 C 35.75 25.542102 35.722303 25.459986 35.6875 25.375 z M 35.65625 25.90625 C 35.616028 26.020911 35.543327 26.115883 35.46875 26.28125 C 35.535308 26.189463 35.623865 26.138477 35.6875 26.0625 C 35.672289 26.013372 35.664386 25.95794 35.65625 25.90625 z M 35.6875 26.0625 C 35.802222 26.433019 36.091818 26.764727 36.625 27.15625 C 37.276367 27.63456 37.498852 27.716219 38.09375 27.71875 C 38.69877 27.72185 38.807095 27.670406 39.03125 27.34375 C 39.071439 27.285179 39.137136 27.152654 39.1875 27.0625 C 39.148687 26.688776 38.741152 26.290829 37.9375 25.875 C 36.84366 25.309022 36.323653 25.30297 35.6875 26.0625 z M 31.71875 24.90625 C 31.635121 25.03064 31.528292 25.164299 31.4375 25.3125 C 31.057575 25.932647 30.863936 26.361537 30.78125 26.71875 C 31.005848 26.412083 31.414755 25.612511 31.71875 24.90625 z M 32 24.15625 C 32.042155 24.027084 32.09375 23.865139 32.09375 23.8125 C 32.09375 23.368738 31.702172 22.903076 30.875 22.40625 C 30.33363 22.081087 29.93637 21.911219 29.59375 21.9375 C 29.242239 22.782903 29.474324 23.141824 30.375 23.71875 C 30.97888 24.105566 31.167222 24.154203 31.71875 24.15625 C 31.858547 24.156873 31.907882 24.163475 32 24.15625 z M 36.40625 18.15625 C 36.428228 18.085069 36.46875 17.971219 36.46875 17.9375 C 36.46875 17.547486 36.093301 17.124151 35.3125 16.6875 C 35.032362 16.530838 34.775227 16.442888 34.5625 16.375 C 34.453587 16.936737 34.733504 17.24779 35.46875 17.71875 C 35.905675 17.998623 36.110332 18.116038 36.40625 18.15625 z M 32.5 20 C 32.637928 20.117964 32.792103 20.210582 33 20.34375 C 33.15097 20.440454 33.295345 20.533478 33.40625 20.59375 C 33.216144 20.419659 32.981289 20.244273 32.65625 20.0625 C 32.601366 20.031807 32.551884 20.027437 32.5 20 z M 27.5625 24.6875 C 27.27665 25.53882 27.536608 25.942718 28.4375 26.5625 C 28.597436 26.672531 28.726258 26.743922 28.84375 26.8125 C 28.986722 26.485261 29.125 26.220436 29.125 26.125 C 29.125 25.734986 28.718301 25.311651 27.9375 24.875 C 27.80029 24.798268 27.6819 24.743537 27.5625 24.6875 z M 28.84375 26.8125 C 28.759313 27.005763 28.699673 27.221974 28.59375 27.4375 C 28.806035 27.224605 29.036148 27.095836 29.25 27 C 29.118195 26.962656 28.996813 26.90184 28.84375 26.8125 z M 29.25 27 C 29.421718 27.048653 29.595832 27.061512 29.84375 27.0625 C 30.206082 27.064207 30.392857 27.048963 30.53125 26.96875 C 30.029751 26.819175 29.622635 26.833007 29.25 27 z M 30.53125 26.96875 C 30.597439 26.988491 30.648761 27.037731 30.71875 27.0625 C 30.710802 26.967024 30.727382 26.860148 30.75 26.75 C 30.676881 26.845864 30.60959 26.923344 30.53125 26.96875 z M 30.71875 27.0625 C 30.754478 27.491712 31.094825 27.803599 31.78125 28.21875 C 32.404563 28.595732 32.651848 28.70317 33.15625 28.71875 C 33.032591 28.29212 32.453907 27.845097 31.46875 27.375 C 31.185362 27.239774 30.951463 27.144857 30.71875 27.0625 z M 33.15625 28.71875 C 33.173916 28.779697 33.1875 28.815016 33.1875 28.875 C 33.1875 29.217218 31.989067 31.316796 31.4375 31.96875 C 31.56974 32.032924 31.694753 32.104176 31.84375 32.1875 C 31.828739 31.719298 32.094507 31.122657 32.65625 30.1875 C 33.145975 29.372225 33.524534 28.888066 33.9375 28.65625 C 33.799479 28.69472 33.61288 28.720017 33.3125 28.71875 C 33.252333 28.718539 33.209561 28.720397 33.15625 28.71875 z M 31.84375 32.1875 C 31.854346 32.517996 32.025363 32.786352 32.34375 33.0625 C 32.469649 32.945936 32.620542 32.873761 32.75 32.8125 C 32.515177 32.608014 32.224187 32.400253 31.84375 32.1875 z M 32.75 32.8125 C 33.126882 33.140692 33.34375 33.476259 33.34375 33.78125 C 33.879734 34.086728 34.178877 34.154097 34.78125 34.15625 C 35.327423 34.158575 35.562485 34.121075 35.75 33.96875 C 35.501987 33.71465 35.134154 33.454761 34.65625 33.1875 C 33.789356 32.702705 33.253527 32.574225 32.75 32.8125 z M 33.34375 33.78125 C 33.242603 33.723602 33.155716 33.670524 33.03125 33.59375 C 32.731489 33.40885 32.531642 33.225465 32.34375 33.0625 C 32.041175 33.342641 31.739273 33.776501 31.375 34.40625 C 30.401691 36.088873 30.301481 36.696017 31.15625 37.40625 C 31.454728 37.37191 31.56614 37.264972 31.75 37.03125 C 32.210441 36.445891 33.34375 34.146357 33.34375 33.78125 z M 31.15625 37.40625 C 31.026532 37.421174 30.871923 37.407219 30.65625 37.40625 C 30.337123 37.405065 30.095278 37.408511 29.875 37.34375 C 30.132973 37.531074 30.298538 37.725947 30.4375 37.90625 C 30.921034 37.620808 31.459732 37.711637 32.25 38.125 C 32.109235 38.048501 31.941617 37.96649 31.75 37.84375 C 31.503696 37.68598 31.325106 37.546554 31.15625 37.40625 z M 30.4375 37.90625 C 30.036153 38.143175 29.663789 38.6141 29.1875 39.4375 C 28.48703 40.648448 28.210116 41.308593 28.4375 41.84375 C 28.488983 41.8717 28.540601 41.876527 28.59375 41.90625 C 28.68009 41.954534 28.731707 42.014522 28.8125 42.0625 C 28.931953 42.005723 29.013407 41.891856 29.125 41.75 C 29.585441 41.164641 30.6875 38.865107 30.6875 38.5 C 30.6875 38.300342 30.599177 38.116025 30.4375 37.90625 z M 28.8125 42.0625 C 28.762827 42.08611 28.689024 42.080455 28.625 42.09375 C 28.819723 42.346537 29.116384 42.589241 29.5625 42.875 C 29.866366 43.069641 30.082333 43.195175 30.28125 43.28125 C 29.999203 42.88899 29.514214 42.479203 28.8125 42.0625 z M 28.625 42.09375 C 28.559659 42.008925 28.475434 41.93303 28.4375 41.84375 C 27.377417 41.268241 26.63867 41.062944 26 41.34375 C 26.099636 41.413856 26.195169 41.487344 26.3125 41.5625 C 27.078968 42.053461 27.299979 42.153651 28 42.15625 C 28.285477 42.157533 28.479075 42.124053 28.625 42.09375 z M 26 41.34375 C 25.952462 41.310301 25.887297 41.282632 25.84375 41.25 C 25.769331 41.382122 25.724936 41.448852 25.65625 41.5625 C 25.775256 41.472665 25.877403 41.397652 26 41.34375 z M 25.84375 41.25 C 26.537966 40.017503 27.40625 38.096166 27.40625 37.71875 C 27.40625 37.40234 27.238154 37.085124 26.9375 36.75 C 26.624549 37.028116 26.314334 37.473535 25.9375 38.125 C 24.907211 39.906128 24.817079 40.480666 25.84375 41.25 z M 26.9375 36.75 C 26.958363 36.731459 26.979116 36.704494 27 36.6875 C 26.974901 36.68948 26.933748 36.686115 26.90625 36.6875 C 26.92406 36.706356 26.920634 36.7312 26.9375 36.75 z M 26.90625 36.6875 C 26.57096 36.332513 26.075233 35.967869 25.40625 35.59375 C 24.72048 35.210245 24.188839 35.00319 23.71875 34.9375 C 23.834345 35.345723 24.183015 35.701768 24.84375 36.125 C 25.610218 36.615961 25.862479 36.684901 26.5625 36.6875 C 26.702344 36.688129 26.805424 36.692579 26.90625 36.6875 z M 23.71875 34.9375 C 23.580715 34.450031 23.796562 33.86191 24.375 32.84375 C 24.332365 32.836105 24.290752 32.823829 24.25 32.8125 C 24.001466 33.426692 23.547862 34.316693 23.1875 34.9375 C 23.35085 34.910315 23.537024 34.912106 23.71875 34.9375 z M 23.1875 34.9375 C 22.721205 35.015101 22.312903 35.324431 21.875 35.875 C 22.463781 35.87017 22.59873 35.811469 22.84375 35.5 C 22.933933 35.38535 23.060129 35.156926 23.1875 34.9375 z M 21.875 35.875 C 21.829957 35.87537 21.800594 35.875227 21.75 35.875 C 21.546616 35.874245 21.36808 35.865648 21.21875 35.84375 C 21.370434 35.974693 21.517603 36.090439 21.625 36.21875 C 21.711525 36.094877 21.791345 35.980179 21.875 35.875 z M 21.625 36.21875 C 21.42015 36.512021 21.201511 36.816357 20.96875 37.21875 C 19.942084 38.993615 19.60615 39.896473 20.0625 40.65625 C 20.180634 40.655247 20.309418 40.695176 20.4375 40.71875 C 21.137455 39.490572 22.03125 37.541386 22.03125 37.15625 C 22.03125 36.86222 21.884668 36.528984 21.625 36.21875 z M 20.4375 40.71875 C 20.383297 40.813857 20.332252 40.852608 20.28125 40.9375 C 20.547596 41.233107 20.943244 41.538388 21.46875 41.875 C 22.451936 42.504781 22.814606 42.642056 23.65625 42.65625 C 23.330885 42.243866 22.816108 41.81392 22.03125 41.375 C 21.391198 41.017062 20.885786 40.801261 20.4375 40.71875 z M 23.65625 42.65625 C 23.885542 42.946867 24.03125 43.22372 24.03125 43.5 C 24.03125 43.582565 23.979761 43.7621 23.90625 43.96875 C 23.984912 43.827324 24.06695 43.716879 24.15625 43.5625 C 24.374726 43.184803 24.556564 42.843894 24.75 42.5625 C 24.538934 42.634565 24.261834 42.6584 23.78125 42.65625 C 23.734113 42.656075 23.700431 42.656995 23.65625 42.65625 z M 23.90625 43.96875 C 23.517559 44.667578 23.277148 45.23207 23.15625 45.6875 C 22.662638 45.883874 22.207514 46.385295 21.6875 47.1875 C 21.69259 47.228954 21.6875 47.271373 21.6875 47.3125 C 21.6875 47.459624 21.517905 47.860447 21.3125 48.34375 C 21.55478 48.275572 21.713761 48.150941 21.90625 47.90625 C 22.186303 47.550219 22.672139 46.723323 23.09375 45.875 C 22.907119 46.837582 23.396347 47.380472 24.65625 48.1875 C 25.691047 48.85034 26.023662 48.965242 26.96875 48.96875 C 27.209042 48.969825 27.373119 48.949975 27.53125 48.9375 C 27.618536 48.700011 27.6875 48.496903 27.6875 48.40625 C 27.6875 47.73793 26.994216 47.029487 25.65625 46.28125 C 24.559017 45.667642 23.835302 45.418564 23.1875 45.65625 C 23.502953 45.008896 23.755384 44.392854 23.90625 43.96875 z M 21.3125 48.34375 C 21.212719 48.371829 21.112755 48.395999 20.96875 48.40625 C 20.382033 49.470183 20.093252 50.209733 20.15625 50.78125 C 20.570004 50.038449 21.001761 49.074896 21.3125 48.34375 z M 20.96875 48.40625 C 21.058828 48.242905 21.145278 48.087289 21.25 47.90625 C 21.410031 47.629591 21.541891 47.412126 21.6875 47.1875 C 21.609884 46.555325 20.91188 45.889692 19.65625 45.1875 C 19.000587 44.820832 18.48707 44.608381 18.03125 44.53125 C 17.668816 45.395227 17.266772 46.247722 16.96875 46.75 C 17.234163 47.033263 17.621039 47.333439 18.125 47.65625 C 19.159797 48.31909 19.461162 48.402742 20.40625 48.40625 C 20.633895 48.407268 20.815543 48.417156 20.96875 48.40625 z M 16.96875 46.75 C 16.484189 46.232849 16.390295 45.696175 16.65625 44.90625 C 16.211875 45.275641 15.784762 45.888013 15.25 46.8125 C 15.112026 47.051025 14.987506 47.260494 14.875 47.46875 C 15.05144 47.497721 15.228906 47.530238 15.46875 47.53125 C 16.316487 47.53555 16.49842 47.453773 16.8125 47 C 16.849966 46.945865 16.924633 46.824354 16.96875 46.75 z M 16.65625 44.90625 C 17.081468 44.552783 17.508142 44.442733 18.03125 44.53125 C 18.400305 43.651488 18.6875 42.826013 18.6875 42.59375 C 18.6875 42.414826 18.646967 42.247494 18.5625 42.0625 C 18.505849 42.062897 18.46931 42.062782 18.40625 42.0625 C 18.335545 42.062238 18.282992 42.064108 18.21875 42.0625 C 18.027099 42.341975 17.810003 42.626146 17.59375 43 C 17.131765 43.798664 16.827316 44.398157 16.65625 44.90625 z M 18.21875 42.0625 C 18.281369 41.971186 18.345313 41.894085 18.40625 41.8125 C 18.126418 41.379572 17.633719 40.931132 16.90625 40.46875 C 15.883344 39.81859 15.220422 39.596575 14.625 39.90625 C 14.834874 40.375937 15.333781 40.774436 16.125 41.28125 C 17.082381 41.894501 17.424289 42.042609 18.21875 42.0625 z M 18.40625 41.8125 C 18.459116 41.89429 18.525666 41.981829 18.5625 42.0625 C 19.369327 42.056847 19.573508 41.954229 19.90625 41.53125 C 20.004575 41.406249 20.147918 41.159427 20.28125 40.9375 C 20.192468 40.838964 20.123282 40.757445 20.0625 40.65625 C 19.449035 40.661459 18.963222 41.066803 18.40625 41.8125 z M 21.21875 35.84375 C 20.903578 35.571675 20.537114 35.282897 20.03125 35 C 19.702623 34.816221 19.42735 34.67623 19.15625 34.5625 C 19.353603 34.790708 19.626104 35.021734 20.03125 35.28125 C 20.575028 35.629567 20.854106 35.790279 21.21875 35.84375 z M 24.25 32.8125 C 24.362126 32.535407 24.4375 32.310027 24.4375 32.21875 C 24.4375 31.723729 23.928523 31.210464 22.9375 30.65625 C 22.756897 30.555251 22.593872 30.47897 22.4375 30.40625 C 22.207122 31.249774 22.499668 31.669059 23.375 32.3125 C 23.764047 32.598484 24.002644 32.743738 24.25 32.8125 z M 24.375 32.84375 C 24.50588 32.86722 24.632798 32.874235 24.8125 32.875 C 25.416159 32.8781 25.52635 32.82626 25.75 32.5 C 25.932386 32.233913 26.227495 31.603381 26.5 30.96875 C 25.742806 30.870774 25.223507 31.382688 24.46875 32.6875 C 24.434878 32.746057 24.406811 32.787756 24.375 32.84375 z M 26.5 30.96875 C 26.713136 30.996328 26.921711 31.068025 27.1875 31.1875 C 26.879139 30.89278 26.752818 30.587686 26.84375 30.1875 C 26.748177 30.440216 26.622247 30.684053 26.5 30.96875 z M 26.84375 30.1875 C 26.918305 29.859389 27.140562 29.450959 27.46875 28.9375 C 27.359806 28.96226 27.240646 29.000067 27.03125 29 C 27.075761 29.113896 27.09375 29.233093 27.09375 29.34375 C 27.09375 29.458601 26.991179 29.797664 26.84375 30.1875 z M 27.03125 29 C 26.882008 28.618114 26.491013 28.227893 25.84375 27.8125 C 25.389048 27.520687 25.025082 27.347906 24.71875 27.3125 C 24.677757 27.796094 24.979824 28.097967 25.65625 28.53125 C 26.26013 28.918066 26.448472 28.997953 27 29 C 27.015391 29.000069 27.016529 28.999995 27.03125 29 z M 27.46875 28.9375 C 27.631272 28.900563 27.754 28.841315 27.875 28.6875 C 28.039137 28.478832 28.315596 27.997291 28.5625 27.5 C 28.311335 27.760505 28.046822 28.093401 27.75 28.53125 C 27.646319 28.684191 27.555355 28.802004 27.46875 28.9375 z M 27 36.6875 C 27.273296 36.665942 27.390586 36.580966 27.53125 36.4375 C 27.344158 36.476392 27.173425 36.546384 27 36.6875 z M 27.53125 36.4375 C 27.834771 36.374406 28.178959 36.415431 28.59375 36.59375 C 28.264724 36.359009 28.04001 36.16649 27.90625 35.9375 C 27.827103 36.065529 27.716706 36.235643 27.65625 36.3125 C 27.612289 36.368383 27.57144 36.39651 27.53125 36.4375 z M 27.90625 35.9375 C 28.4299 35.090441 29.25 33.379669 29.25 33.0625 C 29.25 32.909043 29.189301 32.721978 29.09375 32.5625 C 28.92677 32.794279 28.754184 33.074869 28.5625 33.40625 C 27.80761 34.711278 27.579117 35.377467 27.90625 35.9375 z M 29.09375 32.5625 C 29.153317 32.479817 29.223366 32.414294 29.28125 32.34375 C 29.111441 32.30322 28.947657 32.247907 28.75 32.15625 C 28.89805 32.294629 29.013282 32.428196 29.09375 32.5625 z M 29.28125 32.34375 C 29.523613 32.401597 29.774269 32.405139 30.125 32.40625 C 30.933821 32.40935 31.07534 32.387533 31.375 32.0625 C 31.392319 32.043713 31.418613 31.991074 31.4375 31.96875 C 30.46653 31.497552 29.911046 31.576214 29.28125 32.34375 z M 37.28125 29.96875 C 37.038655 29.658308 36.646236 29.331185 36.03125 29 C 35.360907 28.639006 34.860308 28.466379 34.4375 28.5 C 34.483354 28.884886 34.832764 29.154327 35.46875 29.53125 C 36.121695 29.918225 36.309912 29.997952 36.90625 30 C 37.087895 30.000749 37.171361 29.980183 37.28125 29.96875 z M 34.4375 28.5 C 34.423171 28.379723 34.459763 28.240521 34.5 28.09375 C 34.437618 28.18748 34.361128 28.316629 34.3125 28.375 C 34.253207 28.446165 34.211195 28.518734 34.15625 28.5625 C 34.24252 28.534454 34.345816 28.507291 34.4375 28.5 z M 34.5 28.09375 C 34.80487 27.635676 35.199631 26.905155 35.46875 26.3125 C 35.363024 26.45963 35.242707 26.624223 35.125 26.8125 C 34.783675 27.358455 34.588521 27.770855 34.5 28.09375 z M 40.75 21.875 C 40.603065 21.742791 40.417368 21.607131 40.15625 21.46875 C 39.682895 21.217896 39.344409 21.133513 39.0625 21.21875 C 39.175294 21.323792 39.31354 21.443063 39.5 21.5625 C 39.960241 21.857308 40.079659 21.90469 40.5 21.90625 C 40.622606 21.906795 40.674213 21.882814 40.75 21.875 z M 42.71875 6.34375 C 42.836796 6.4697354 42.994606 6.606425 43.21875 6.75 C 43.282811 6.7910341 43.321689 6.7805051 43.375 6.8125 C 43.232595 6.6617294 42.996509 6.5022954 42.71875 6.34375 z M 37.90625 17.8125 C 38.018151 17.897789 38.134201 17.999558 38.28125 18.09375 C 38.58319 18.287158 38.778012 18.373308 38.96875 18.4375 C 38.815691 18.316298 38.651466 18.187278 38.4375 18.0625 C 38.235559 17.944736 38.069876 17.880813 37.90625 17.8125 z M 27.21875 31.21875 C 27.442094 31.422141 27.763418 31.643213 28.1875 31.875 C 28.390682 31.986052 28.566921 32.053291 28.71875 32.125 C 28.478344 31.906632 28.157476 31.696625 27.75 31.46875 C 27.560367 31.362701 27.381791 31.293576 27.21875 31.21875 z M 28.65625 36.625 C 28.750267 36.690633 28.82809 36.773668 28.9375 36.84375 C 29.320734 37.08923 29.570408 37.231025 29.8125 37.3125 C 29.638167 37.189301 29.444167 37.063561 29.21875 36.9375 C 29.015572 36.823876 28.829113 36.702704 28.65625 36.625 z M 25.625 41.5625 C 25.349449 41.776323 25.073132 42.111381 24.78125 42.53125 C 24.96953 42.456735 25.114956 42.336392 25.28125 42.125 C 25.373559 42.007648 25.501325 41.766337 25.625 41.5625 z "
       id="path4562" />
  </g>
</svg>
