<?xml version="1.0" encoding="UTF-8" standalone="no"?>
<!-- Created with Inkscape (http://www.inkscape.org/) -->

<svg
   xmlns:dc="http://purl.org/dc/elements/1.1/"
   xmlns:cc="http://creativecommons.org/ns#"
   xmlns:rdf="http://www.w3.org/1999/02/22-rdf-syntax-ns#"
   xmlns:svg="http://www.w3.org/2000/svg"
   xmlns="http://www.w3.org/2000/svg"
   xmlns:sodipodi="http://sodipodi.sourceforge.net/DTD/sodipodi-0.dtd"
   xmlns:inkscape="http://www.inkscape.org/namespaces/inkscape"
   width="800px"
   height="600px"
   id="svg3051"
   version="1.1"
   inkscape:version="0.48.3.1 r9886"
   sodipodi:docname="almost-full-logo.svg">
  <defs
     id="defs3053" />
  <sodipodi:namedview
     id="base"
     pagecolor="#ffffff"
     bordercolor="#666666"
     borderopacity="1.0"
     inkscape:pageopacity="0.0"
     inkscape:pageshadow="2"
     inkscape:zoom="0.84852814"
     inkscape:cx="456.91407"
     inkscape:cy="377.68362"
     inkscape:current-layer="layer1"
     inkscape:document-units="px"
     showgrid="false"
     inkscape:window-width="1255"
     inkscape:window-height="716"
     inkscape:window-x="105"
     inkscape:window-y="0"
     inkscape:window-maximized="0" />
  <metadata
     id="metadata3056">
    <rdf:RDF>
      <cc:Work
         rdf:about="">
        <dc:format>image/svg+xml</dc:format>
        <dc:type
           rdf:resource="http://purl.org/dc/dcmitype/StillImage" />
        <dc:title />
      </cc:Work>
    </rdf:RDF>
  </metadata>
  <g
     id="layer1"
     inkscape:label="Layer 1"
     inkscape:groupmode="layer">
    <g
       style="fill:#5d4d31;fill-opacity:1;stroke:#5d4d31;stroke-opacity:1"
       transform="matrix(0.1357581,0,0,0.1357581,689.92193,332.84567)"
       id="g3978">
      <g
         style="fill:#5d4d31;fill-opacity:1;stroke:#5d4d31;stroke-opacity:1"
         id="g3961">
        <path
           id="path3941"
           d="m -1908.3379,819.1714 c -26.9244,-2.7626 -45.7272,-13.8269 -54.5672,-32.1094 -5.9328,-12.27 -6.1028,-13.7448 -6.3246,-54.8757 -0.1112,-20.625 -1.0147,-58.8751 -2.0077,-85.0001 -2.2472,-59.12116 -2.5898,-155.70786 -0.6385,-179.99996 2.1555,-26.8336 2.5128,-236.9454 0.7729,-454.499939 -1.6704,-208.859161 -1.3932,-200.967961 -7.522,-214.123361 -5.3333,-11.448 -13.6684,-17.86386 -28.5763,-21.99667 -8.9623,-2.4845 -45.3892,-2.8798 -93.0002,-1.0092 -21.9999,0.8644 -49.6748,1.8369 -61.4998,2.1611 -49.8246,1.3659 -103.8628,4.56121 -170,10.05227 -41.5605,3.4505 -80.4949,4.2977 -92.0047,2.002 -30.0677,-5.99736 -39.6388,-23.38917 -45.0709,-81.89877 -1.5793,-17.0099 -0.7701,-35.1998 1.9451,-43.7297 5.3762,-16.8891 15.7501,-24.3757 37.5307,-27.0853 9.6788,-1.204 49.2722,-0.6682 81.5998,1.1043 150.9766,8.278 282.8909,12.0614 351.3992,10.0785 133.7394,-3.8709 295.1106,-3.8913 491.1008,-0.062 91.7551,1.7928 121.8326,3.2772 133.5,6.5885 16.9059,4.7981 21.2904,16.1997 22.6573,58.9183 0.446,13.9393 0.2701,22.1198 -0.5806,26.9952 -4.483,25.6916 -16.404,38.2892 -39.3064,41.53741 -4.7389,0.6721 -20.9886,0.6706 -49.174,0 -191.4503,-4.58491 -300.7316,-6.23641 -329.0963,-4.97341 -19.5427,0.8702 -29.2194,2.74231 -38.5099,7.45011 -7.0372,3.56596 -13.3753,10.33306 -16.1791,17.27396 l -2.311,5.721 0.038,137.499961 0.038,137.499939 5.1995,150 c 11.0839,319.7639 16.0954,493.18136 14.8269,513.07476 -1.3299,20.8576 -4.943,35.669 -11.0681,45.3717 -8.8641,14.0417 -28.588,23.7027 -55.0338,26.9562 -12.4002,1.5256 -29.1773,2.0018 -38.1366,1.0825 z"
           style="fill:#5d4d31;fill-opacity:1;stroke:#5d4d31;stroke-opacity:1"
           inkscape:connector-curvature="0" />
        <path
           id="path3939"
           d="m -3946.875,-369.59375 c -2.7364,0.0677 -5.5207,0.29304 -8.3125,0.6875 -13.8762,1.9605 -19.6316,6.0281 -29.0313,20.5 -6.9351,10.6774 -11.7496,20.34605 -21,42.09375 -8.3722,19.6835 -30.2081,63.50319 -44.5937,89.5 -33.5295,60.59206 -246.26,403.77365 -495.875,799.96875 -44.9391,71.32846 -54.0404,85.64675 -73.4687,115.53125 -17.4373,26.8216 -22.025,38.3026 -22,55 0.012,8.2269 0.4069,10.89905 2.2812,15.09375 5.701,12.7593 20.3098,20.4655 44.2812,23.375 13.458,1.6334 48.8524,1.417 58.9376,-0.375 23.6772,-4.2071 41.4564,-13.82385 53.8437,-29.09375 5.2574,-6.4808 56.5157,-91.70234 80.5937,-134 33.4918,-58.8346 43.4045,-67.93275 76.75,-70.53125 24.4835,-1.9079 162.1604,-2.817 454.7813,-3 320.3425,-0.2003 294.7348,-0.70855 313.0313,5.96875 15.1402,5.5256 28.7462,15.0009 38.4374,26.75 2.9374,3.561 8.3735,12.41685 12.0938,19.65625 9.2314,17.9635 12.7895,24.0756 50.7188,87.5 35.9357,60.0907 38.7046,63.9455 53.8437,75.1875 18.1495,13.4775 47.3726,24.6415 72.875,27.875 9.5082,1.2059 43.1731,1.2478 53,0.0625 21.9862,-2.6518 33.1714,-9.6553 37.6875,-23.625 3.8264,-11.8362 0.9904,-38.5192 -6.3125,-59.5 -8.1192,-23.3257 -18.0877,-39.61389 -65.75,-107.34375 -40.7572,-57.9175 -72.2581,-106.7461 -165.8125,-257 -142.0813,-228.1907 -396.7215,-644.35155 -419.1875,-685.09375 -8.2896,-15.0331 -14.1262,-22.56745 -21.25,-27.46875 -7.6646,-5.27337 -18.7046,-8.01214 -30.5625,-7.71875 z m 5.625,282.40625 c 16.5654,-0.106 27.9217,10.421251 50.9062,47.15625 15.2225,24.3292 140.1773,231.13655 204.6563,338.71875 19.4488,32.45 37.9203,64.038 41.0625,70.1875 8.5226,16.6793 9.9347,25.88075 5.3438,35.09375 -5.1924,10.4199 -17.5989,16.7185 -41.375,21 -8.8465,1.593 -27.0192,1.71875 -249.5313,1.71875 -132,0 -247.425,0.306 -256.5,0.6875 -9.2955,0.3909 -19.5565,0.2866 -23.5,-0.25 -21.0208,-2.8601 -34.719,-10.8767 -40.1563,-23.5 -2.6777,-6.217 -2.2136,-19.07475 1.0313,-28.71875 4.2152,-12.5279 8.2469,-19.59505 38.9063,-68.15625 15.9979,-25.339 56.4895,-90.16251 90,-144.0625 82.8397,-133.24364 89.8022,-144.40795 107.4374,-172.34375 41.2559,-65.352699 52.4202,-77.40775 71.7188,-77.53125 z"
           style="fill:#5d4d31;fill-opacity:1;stroke:#5d4d31;stroke-opacity:1"
           inkscape:connector-curvature="0" />
        <path
           id="path3935"
           d="m -330.875,-369.59375 c -2.73645,0.0677 -5.52072,0.29304 -8.3125,0.6875 -13.8762,1.9605 -19.63155,6.0281 -29.03125,20.5 -6.9352,10.6774 -11.7497,20.34605 -21,42.09375 -8.3723,19.6835 -30.20815,63.50319 -44.59375,89.5 -33.5295,60.59206 -246.26017,403.77365 -495.875,799.96875 -44.9391,71.32846 -54.04035,85.64675 -73.4687,115.53125 -17.4374,26.8216 -22.0251,38.3026 -22,55 0.012,8.2269 0.4069,10.89905 2.2812,15.09375 5.701,12.7593 20.3098,20.4655 44.28125,23.375 13.458,1.6334 48.8524,1.417 58.9375,-0.375 23.6772,-4.2071 41.45645,-13.82385 53.84375,-29.09375 5.2574,-6.4808 56.51575,-91.70234 80.59375,-134 33.49183,-58.8346 43.4047,-67.93275 76.75,-70.53125 24.4833,-1.9079 162.16025,-2.817 454.78125,-3 320.342499,-0.2003 294.73475,-0.70855 313.03125,5.96875 15.1403,5.5256 28.74632,15.0009 38.4375,26.75 2.9373,3.561 8.37345,12.41685 12.09375,19.65625 9.2314,17.9635 12.78955,24.0756 50.71875,87.5 35.9357,60.0907 38.70465,63.9455 53.84375,75.1875 18.14946,13.4775 47.37259,24.6415 72.875,27.875 9.5082,1.2059 43.1731,1.2478 53,0.0625 21.9862,-2.6518 33.1714,-9.6553 37.6875,-23.625 3.8264,-11.8362 0.9904,-38.5192 -6.3125,-59.5 -8.1192,-23.3257 -18.0877,-39.61389 -65.75,-107.34375 -40.75721,-57.9175 -72.25814,-106.7461 -165.8125,-257 -142.0812814,-228.1907 -396.7215,-644.35155 -419.1875,-685.09375 -8.2896,-15.0331 -14.1262,-22.56745 -21.25,-27.46875 -7.66456,-5.27337 -18.70456,-8.01214 -30.5625,-7.71875 z m 5.625,282.40625 c 16.5654,-0.106 27.92175,10.421251 50.90625,47.15625 15.2224,24.3292 140.17735,231.13655 204.65625,338.71875 19.4488,32.45 37.9203,64.038 41.0625,70.1875 8.5226,16.6793 9.93475,25.88075 5.34375,35.09375 -5.1924,10.4199 -17.5989,16.7185 -41.375,21 -8.8465,1.593 -27.019151,1.71875 -249.53125,1.71875 -132,0 -247.425,0.306 -256.5,0.6875 -9.2955,0.3909 -19.5565,0.2866 -23.5,-0.25 -21.0208,-2.8601 -34.71895,-10.8767 -40.15625,-23.5 -2.6778,-6.217 -2.21365,-19.07475 1.03125,-28.71875 4.2152,-12.5279 8.24685,-19.59505 38.90625,-68.15625 15.998,-25.339 56.4895,-90.16251 90,-144.0625 82.8397,-133.24364 89.8022,-144.40795 107.4375,-172.34375 41.2558,-65.352699 52.42015,-77.40775 71.71875,-77.53125 z"
           style="fill:#5d4d31;fill-opacity:1;stroke:#5d4d31;stroke-opacity:1"
           inkscape:connector-curvature="0" />
        <path
           id="path3931"
           d="m -2259.3944,796.6383 c -37.8685,-3.4422 -178.4059,-5.3718 -397.8069,-5.4619 -154.1983,-0.063 -331.6617,-1.5254 -356.6674,-2.9384 -37.7705,-2.1343 -58.2066,-10.6346 -81.8667,-34.0517 -26.67,-26.3962 -43.8973,-63.5332 -53.3468,-115.0001 -5.5748,-30.36356 -5.5744,-30.34746 -6.0636,-226.99996 -0.2484,-99.825 -0.7545,-289.05 -1.1248,-420.4999386 -0.6902,-244.9844314 -0.3671,-276.6889314 3.0697,-301.2337314 4.1965,-29.9695 12.3828,-46.3505 26.2802,-52.5873 8.8555,-3.9741 18.0222,-4.9586 41.179,-4.4225 22.5362,0.5217 30.477,1.9522 42.7699,7.7044 28.5232,13.3469 47.4207,43.3846 52.8232,83.9628 1.7967,13.4951 1.7942,21.3012 -0.013,40.8117 -4.3651,47.11857 -5.9424,196.084531 -5.17,488.26457 0.6118,231.4046 1.5141,313.3669 3.6328,330 5.0919,39.9726 19.5907,56.06176 56.7157,62.93656 13.5396,2.5073 40.3757,2.7989 182.2819,1.9806 284.1409,-1.6385 471.8995,-4.4923 527.1024,-8.0115 26.7432,-1.7049 41.8543,0.397 56.0922,7.802 19.1033,9.9354 28.1008,30.6861 28.0941,64.7924 0,18.7291 -1.6612,26.6728 -8.4504,40.5 -3.3796,6.8829 -5.9015,10.2289 -13.2559,17.5876 -7.8682,7.8728 -10.4859,9.7806 -19.5823,14.2724 -12.0133,5.9322 -25.1356,9.5667 -40.0759,11.0998 -12.2362,1.2557 -18.1134,1.1742 -36.6172,-0.5078 z"
           style="fill:#5d4d31;fill-opacity:1;stroke:#5d4d31;stroke-opacity:1"
           inkscape:connector-curvature="0" />
        <path
           id="path3929"
           d="m -1218.7013,796.1266 c -21.3748,-2.6548 -35.3943,-10.9179 -42.579,-25.0961 -5.7632,-11.3733 -5.3848,26.2971 -5.4036,-537.87046 -0.012,-353.61154 0.3147,-522.23227 1.0224,-527.99987 4.4658,-36.3937 22.0955,-59.2204 51.4878,-66.6656 8.6031,-2.1792 38.1758,-2.4215 51.9724,-0.4258 31.2728,4.5236 50.3893,14.6216 57.9548,30.6137 5.8453,12.3559 5.7681,10.7106 5.6805,121.00387 -0.044,55.55 -0.2257,294.7249 -0.4035,531.4999 l -0.3234,430.50006 -2.1008,5.6062 c -7.4395,19.8522 -25.4301,31.8832 -56.0488,37.4821 -10.4107,1.9037 -49.8147,2.7733 -61.2588,1.352 z"
           style="fill:#5d4d31;fill-opacity:1;stroke:#5d4d31;stroke-opacity:1"
           inkscape:connector-curvature="0" />
      </g>
      <g
         style="fill:#5d4d31;fill-opacity:1;stroke:#5d4d31;stroke-opacity:1"
         id="g3968">
        <path
           id="path3927"
           d="m -963.3576,-808.8011 c -9.3869,-1.9787 -16.4248,-7.6946 -18.2326,-14.8079 -0.9507,-3.741 -2.7304,-70.5185 -2.4706,-92.7045 1.1582,-98.9175 1.327,-151.9587 0.6553,-206 l -0.8078,-65 -2.3383,-4.0901 c -2.9984,-5.2449 -6.8559,-7.4738 -14.5107,-8.3844 -7.6435,-0.9093 -74.2439,1.3673 -101.139,3.4573 -32.776,2.5469 -46.4933,2.9582 -52.289,1.5678 -9.3773,-2.2496 -13.1184,-9.1113 -15.2116,-27.9009 -2.2524,-20.2181 1.6458,-27.3454 15.7255,-28.7521 3.1763,-0.3174 26.2501,0.4118 51.2751,1.6203 41.2848,1.9937 58.3309,2.2227 184,2.4717 135.063,0.2677 156.1633,0.7236 162.13973,3.5032 3.6551,1.7 4.7952,4.7748 5.8314,15.7274 1.4892,15.7412 -0.9834,24.6185 -8.0065,28.7444 -3.35153,1.969 -4.59093,2.0191 -37.96463,1.5354 -18.975,-0.275 -53.85,-0.5 -77.5,-0.5 -41.5197,0 -43.1377,0.071 -47,2.0686 -8.0416,4.1588 -7.6982,0.656 -7.1499,72.9314 0.267,35.2 1.1837,82.675 2.0372,105.5 0.8534,22.825 2.2261,64 3.0504,91.5 0.8242,27.5 1.7724,58.775 2.1071,69.5 0.9068,29.063 -1.2016,38.4012 -9.7931,43.3751 -2.3384,1.3538 -6.0517,2.9209 -8.2517,3.4825 -5.9237,1.5122 -19.4035,2.1566 -24.1563,1.1548 z"
           style="fill:#5d4d31;fill-opacity:1;stroke:#5d4d31;stroke-opacity:1"
           inkscape:connector-curvature="0" />
        <path
           id="path3925"
           d="m -2893.4062,-1258.6562 c -33.6891,0.1616 -66.6004,6.4987 -96.875,18.9374 -54.5981,22.4325 -100.3015,68.0364 -121.7188,121.4063 -23.023,57.3711 -20.8701,121.3645 5.875,175.375 35.1676,71.0193 109.8048,120.13455 194.4375,127.96875 38.6583,3.5785 83.8879,-2.54685 119.0937,-16.15625 22.347,-8.6385 45.8383,-21.935 62.9063,-35.5625 8.7583,-6.9929 24.8998,-22.97525 32.1563,-31.84375 18.8858,-23.0816 33.477,-52.1187 40.8437,-81.25 12.1444,-48.02485 7.8625,-101.88815 -11.5625,-145.03125 -27.1517,-60.3043 -79.3342,-104.258 -145.9688,-122.9687 -26.3198,-7.3905 -52.9848,-11.0008 -79.1874,-10.875 z m 10.7187,53.1562 c 34.0442,-0.2052 66.1751,7.8445 92.8125,23.7812 50.8557,30.4262 81.1875,86.5373 81.1875,150.2188 0,31.0833 -7.1262,58.23065 -21.5313,82.21875 -25.7268,42.8423 -72.1349,71.75885 -126.5937,78.84375 -72.5845,9.443 -140.4606,-17.3437 -180.4375,-71.1875 -12.7018,-17.1077 -24.1197,-43.62585 -28.1562,-65.4062 -2.1717,-11.7181 -2.4517,-45.5541 -0.4688,-56.7813 1.8486,-10.4672 5.7368,-25.2123 8.8438,-33.5 18.45,-49.2146 62.4467,-86.3054 119.7812,-101 18.3612,-4.7059 36.7298,-7.08 54.5625,-7.1875 z"
           style="fill:#5d4d31;fill-opacity:1;stroke:#5d4d31;stroke-opacity:1"
           inkscape:connector-curvature="0" />
        <path
           id="path3921"
           d="m -2370.6697,-815.8325 c -9.0802,-2.4336 -17.4571,-7.3247 -20.2356,-11.815 l -2.0629,-3.334 1.1827,-81.166 c 1.2277,-84.2548 1.1252,-87.7451 -2.8033,-95.4455 -5.5239,-10.8276 -28.6364,-35.3284 -74.1125,-78.564 -15.125,-14.3798 -44.15,-42.9807 -64.5,-63.5577 -45.3785,-45.8844 -61.9172,-61.4017 -71.6115,-67.1884 -9.4853,-5.6621 -11.8885,-9.8407 -11.8885,-20.672 0,-14.8304 2.4595,-16.2444 28.2179,-16.2236 18.6073,0.015 27.3993,1.1845 33.8039,4.4965 1.6074,0.8312 19.0226,17.5418 38.7004,37.1347 38.5275,38.3612 109.887,106.9983 127.7778,122.9028 16.7003,14.8463 26.5303,20.5574 31.8351,18.4955 3.1826,-1.2369 83.9894,-82.8267 123.8444,-125.0443 34.2794,-36.3115 40.7417,-42.6168 52.4631,-51.1881 8.242,-6.027 12.8409,-7.185 26.1027,-6.5725 8.8493,0.4086 12.3026,1.0674 19.4913,3.7183 13.3239,4.9134 16.5204,10.4388 11.8838,20.5423 -1.2752,2.7788 -28.4857,30.7126 -89.131,91.5 -95.5496,95.7735 -110.7071,111.536 -114.5525,119.1246 -4.0861,8.0634 -6.5075,19.1889 -7.3729,33.8754 -0.4375,7.425 -0.3556,45.3578 0.1821,84.2951 l 0.9776,70.7951 -2.4165,4.6957 c -1.4129,2.7456 -4.1938,5.9455 -6.6961,7.7049 -3.861,2.7149 -5.1272,3.0328 -12.9454,3.2505 -6.1554,0.1715 -10.8291,-0.3384 -16.1341,-1.7603 z"
           style="fill:#5d4d31;fill-opacity:1;stroke:#5d4d31;stroke-opacity:1"
           inkscape:connector-curvature="0" />
        <path
           id="path3919"
           d="m -1422.2013,-814.9065 c -4.4,-0.4548 -12.275,-1.5405 -17.5,-2.4127 -63.134,-10.5387 -116.5912,-36.2265 -155.0256,-74.4943 -33.6756,-33.5297 -52.7748,-73.7233 -59.0079,-124.1796 -1.7959,-14.5383 -0.7735,-48.4226 1.8819,-62.3697 5.5716,-29.2635 17.8486,-57.1053 35.7874,-81.1588 8.2281,-11.0328 27.8634,-30.8476 39.9365,-40.3016 37.1167,-29.0647 83.7572,-48.3287 135.9277,-56.1424 13.669,-2.0472 60.4831,-1.7287 76.5,0.5205 43.7708,6.1466 82.8514,17.8812 120.5,36.1823 26.0006,12.6389 37.4942,20.6744 41.5472,29.0469 3.1852,6.5797 2.3127,12.3799 -3.9796,26.4549 -5.5771,12.4752 -10.0042,17.873 -14.8029,18.0488 -10.973,0.4021 -17.8379,-2.7696 -32.7647,-15.1382 -18.5812,-15.3967 -33.9612,-24.5843 -54.3084,-32.4424 -46.8234,-18.0833 -113.5086,-17.0789 -170.9333,2.5744 -15.5704,5.329 -37.1663,15.9745 -50.7583,25.0211 -13.1808,8.7729 -35.4621,30.4168 -42.8347,41.6095 -19.1708,29.104 -27.7967,62.9848 -24.7362,97.1596 1.9482,21.7538 5.8934,36.5327 14.5794,54.6147 23.593,49.1142 77.8665,84.5467 147.7361,96.4495 17.0656,2.9073 38.4598,4.3224 54.2554,3.5886 55.8919,-2.5963 90.8633,-13.5063 132.1478,-41.2259 25.3109,-16.9945 28.0947,-17.0157 40.9927,-0.3122 4.0346,5.225 9.366,11.9005 11.8476,14.8346 2.4815,2.934 4.5119,6.3333 4.5119,7.5538 0,1.2234 -1.5705,3.7414 -3.5,5.6116 -1.925,1.8657 -3.5,3.9364 -3.5,4.6013 0,1.5912 -31.3635,22.4724 -46,30.626 -46.1889,25.7304 -92.5694,37.0217 -150.5,36.6388 -11,-0.073 -23.6,-0.5043 -28,-0.9591 z"
           style="fill:#5d4d31;fill-opacity:1;stroke:#5d4d31;stroke-opacity:1"
           inkscape:connector-curvature="0" />
        <path
           id="path3917"
           d="m -532.40625,-1258.6562 c -33.68906,0.1615 -66.60035,6.4987 -96.875,18.9374 -54.59805,22.4324 -100.30145,68.0364 -121.71875,121.4063 -23.02303,57.3711 -20.87013,121.3646 5.875,175.375 35.1676,71.0193 109.8048,120.13455 194.4375,127.96875 38.6583,3.5785 83.88795,-2.54695 119.09375,-16.15625 22.3469,-8.6386 45.83825,-21.90375 62.90625,-35.53125 8.7583,-6.9929 24.89985,-23.0065 32.15625,-31.875 18.8858,-23.0816 33.47705,-52.1187 40.84375,-81.25 12.1444,-48.02495 7.8625,-101.88815 -11.5625,-145.03125 -27.1517,-60.3043 -79.33415,-104.2581 -145.96875,-122.9687 -26.31983,-7.3906 -52.9849,-11.0007 -79.1875,-10.875 z m 10.71875,53.1562 c 34.04419,-0.2052 66.17512,7.8445 92.8125,23.7812 50.8557,30.4262 81.1875,86.5372 81.1875,150.2188 0,31.0832 -7.12625,58.23065 -21.53125,82.21875 -25.7269,42.8423 -72.13495,71.75885 -126.59375,78.84375 -72.5845,9.443 -140.46065,-17.3437 -180.4375,-71.1875 -12.7018,-17.1077 -24.11975,-43.62595 -28.15625,-65.4062 -2.1716,-11.7183 -2.45165,-45.5541 -0.46875,-56.7813 1.8486,-10.4671 5.73675,-25.2123 8.84375,-33.5 18.4499,-49.2146 62.44675,-86.3054 119.78125,-101 18.3612,-4.7059 36.72983,-7.08 54.5625,-7.1875 z"
           style="fill:#5d4d31;fill-opacity:1;stroke:#5d4d31;stroke-opacity:1"
           inkscape:connector-curvature="0" />
        <path
           id="path3913"
           d="m -3532.875,-1252.2812 c -42.7353,0.01 -41.1815,0.6336 -44.4375,7.1874 -2.6662,5.3671 -2.8624,26.7728 -1.375,159.2813 0.676,60.225 1.5318,142.8895 1.875,183.6875 0.6171,73.36 0.6375,74.2093 2.7187,77 3.7046,4.967 7.9082,6.6664 17.5,7.125 16.3179,0.7802 30.3983,-4.3227 35.3438,-12.8125 1.8876,-3.2405 2.0625,-5.1684 2.0625,-26 0,-12.375 -0.408,-24.87255 -0.875,-27.78125 -0.832,-5.1817 -0.7579,-5.372 2.625,-8.5625 3.5237,-3.3232 40.7919,-23.61385 59.75,-32.53125 13.6116,-6.4026 44.4824,-19.1942 79,-32.75 31.1433,-12.2307 32.945,-12.567 40.2187,-7.5625 5.3878,3.7069 10.1543,9.9785 44.7813,58.6875 29.8301,41.9613 49.5867,68.60565 56.6563,76.46875 4.9266,5.4797 12.4557,10.8886 17.8437,12.8125 3.9068,1.3949 13.0293,1.48065 23.0937,0.21875 4.4268,-0.5551 12.9392,-1.4093 18.9063,-1.875 9.4865,-0.7404 11.0597,-1.12215 12.6563,-3.09375 2.3209,-2.866 2.5324,-13.79385 0.3437,-18.40625 -2.5325,-5.3369 -14.3892,-19.3385 -33.1875,-39.1875 -46.19,-48.7718 -79.041,-88.42295 -83.4062,-100.71875 -1.1886,-3.348 -1.1521,-4.1471 0.4374,-7 3.457,-6.2046 11.6646,-11.60555 35.1563,-23.15625 12.65,-6.22 27.2306,-14.1367 32.4375,-17.625 25.2358,-16.9066 39.7637,-37.3759 46.3125,-65.25 1.848,-7.8654 2.151,-12.1249 2.125,-29.6875 -0.034,-23.5984 -1.5019,-34.2269 -7.0937,-51.2187 -13.7203,-41.6918 -50.4287,-63.6986 -118.7813,-71.1876 -30.0409,-3.2913 -127.5898,-5.9472 -221.5,-6.0312 -8.0555,-0.01 -15.0825,-0.033 -21.1875,-0.031 z m 59.6562,53.625 c 15.7386,-0.047 38.739,0 72.7188,0.125 87.2244,0.3288 103.4917,0.6144 110.3125,1.9374 45.0298,8.7339 62.8018,26.4849 65.4375,65.2813 1.2556,18.4808 -1.0196,30.2613 -8.1875,42.375 -4.76,8.0442 -17.6666,20.4865 -30.75,29.625 -13.9769,9.7626 -29.3587,16.5233 -102.4063,45.125 -27.5536,10.7886 -68.7363,27.0503 -91.5,36.125 -22.7634,9.0748 -43.6885,17.1264 -46.5,17.875 -2.8113,0.7486 -7.4426,1.365 -10.2812,1.375 -4.5428,0.0105 -5.471,-0.3541 -7.75,-3.0625 -1.4241,-1.6924 -2.9002,-4.2799 -3.3125,-5.75 -0.4123,-1.4701 -0.75,-50.1625 -0.75,-108.1875 l 0,-105.5 2.125,-4.625 c 2.7292,-5.9017 7.4104,-9.4298 15.125,-11.4063 3.3988,-0.8706 9.4879,-1.2337 35.7187,-1.3124 z"
           style="fill:#5d4d31;fill-opacity:1;stroke:#5d4d31;stroke-opacity:1"
           inkscape:connector-curvature="0" />
        <path
           id="path3909"
           d="m -3854.375,-1253.9062 c -75.0475,-0.04 -117.8308,0.3073 -119,0.9374 -3.7781,2.0361 -6.3119,5.9149 -7.9375,12.1876 -1.5381,5.9345 -1.5939,13.6027 -0.875,91.9687 0.4314,47.025 1.0413,138.2398 1.375,202.6875 0.6017,116.2211 0.6163,117.17515 2.6563,119.90625 2.4793,3.3195 7.6278,6.14705 13.5624,7.40625 6.1411,1.3029 25.3773,0.4177 31.4688,-1.4375 6.6545,-2.0267 11.3365,-5.239 13.875,-9.5625 1.9689,-3.3535 2.0469,-4.7259 1.7188,-33.25 -0.396,-34.404 -0.3896,-34.4854 9.5,-44.375 4.8459,-4.8459 9.6275,-7.48205 49.5937,-27.34375 56.2915,-27.9748 108.1733,-55.9594 150.75,-81.31255 60.2158,-35.8568 87.5475,-62.686 98.5313,-96.7187 3.6174,-11.2088 4.5754,-33.336 2.0624,-47.8125 -7.6587,-44.1228 -38.6153,-73.2887 -92.0312,-86.7188 -25.872,-6.5052 -25.5182,-6.4935 -155.25,-6.5624 z m -16.7812,51.8124 c 42.5641,-0.2316 146.1423,1.8031 152.9687,3.25 25.4919,5.4037 41.4073,19.2191 46.8437,40.625 2.2258,8.7642 3.8817,24.9367 3.125,30.4376 -1.2295,8.9407 -9.0259,22.069 -20.375,34.3124 -2.5364,2.7364 -9.5437,8.211 -15.5937,12.1563 -36.6636,23.9089 -174.2372,98.04625 -191.875,103.40625 -7.2653,2.2079 -15.4855,2.61945 -19.625,0.96875 -6.0243,-2.4022 -9.7108,-7.98365 -10.5313,-16.03125 -0.2992,-2.9348 -0.1353,-46.51875 0.3438,-96.84375 0.9596,-100.7975 0.7704,-98.1553 7.1875,-104.7187 5.1154,-5.2323 10.1609,-6.3197 33.5,-7.3126 3.131,-0.1332 7.9507,-0.2169 14.0313,-0.25 z"
           style="fill:#5d4d31;fill-opacity:1;stroke:#5d4d31;stroke-opacity:1"
           inkscape:connector-curvature="0" />
        <path
           id="path3857"
           d="m -1796.7548,-819.2004 c -0.2484,-0.2484 -63.6755,-0.6658 -140.9491,-0.9277 -99.2528,-0.3363 -141.5594,-0.8034 -144.115,-1.5912 -5.6713,-1.7482 -10.1641,-5.2821 -12.8824,-10.1329 l -2.5,-4.4613 -0.5355,-200.5 c -0.4514,-169.016 -0.319,-201.0034 0.843,-203.7058 1.8326,-4.2621 8.0874,-7.2171 17.9638,-8.4869 4.9931,-0.642 68.8737,-0.8156 180.4767,-0.4906 l 172.7481,0.503 4.4204,2.1399 c 5.1439,2.4901 11.4575,8.9908 14.7537,15.191 1.9799,3.7241 2.3136,5.8199 2.3211,14.5779 0.01,10.067 -0.039,10.2767 -3.0325,13.272 -2.3646,2.3664 -4.4778,3.2852 -9.5,4.1306 -4.5776,0.7706 -49.8909,0.8903 -155.5801,0.4109 -136.1669,-0.6176 -149.4582,-0.5356 -153,0.9438 -7.5966,3.1734 -13.0103,10.7374 -15.2543,21.3134 -2.2235,10.4793 -0.8306,61.784 1.9668,72.4441 0.6944,2.6462 1.9241,4.2559 4.1955,5.4923 3.0049,1.6355 13.4296,1.7949 160.7133,2.4576 89.7629,0.4038 162.5519,1.139 169.2464,1.7093 13.1903,1.1237 19.2789,3.2149 22.4823,7.7214 4.1075,5.7786 5.3162,15.5932 3.2574,26.4494 -1.1916,6.2835 -4.6749,10.4678 -9.9293,11.9274 -2.2762,0.6324 -63.3254,0.9922 -169.5568,0.9993 -116.5827,0.01 -167.1673,0.3352 -169.9212,1.0998 -4.8977,1.3599 -8.9958,5.3743 -10.6972,10.479 -1.0125,3.0378 -1.3845,19.8035 -1.6514,74.4212 -0.1895,38.775 -0.063,72.4315 0.2803,74.7922 0.8008,5.5017 5.2146,10.5986 10.7695,12.4362 3.5763,1.183 27.0243,1.2829 153.72,0.6549 82.225,-0.4076 151.07,-0.7517 152.9888,-0.7648 10.9058,-0.074 16.7845,12.6553 15.838,34.2951 -0.4446,10.166 -2.458,15.4746 -7.2175,19.0297 -2.6546,1.9829 -4.1787,2.0668 -42.4823,2.339 -21.8509,0.1554 -39.9321,0.079 -40.1805,-0.1692 z"
           style="fill:#5d4d31;fill-opacity:1;stroke:#5d4d31;stroke-opacity:1"
           inkscape:connector-curvature="0" />
      </g>
    </g>
    <path
       style="fill:#6d4f5e;fill-opacity:1"
       d="m 6.0107937,117.64787 -0.033939,183.57889 -0.033939,183.57889 394.8524343,0 394.85244,0 -0.0339,-183.57889 -0.0339,-183.57889 -394.78455,0 -394.7845537,0 z m 20.3891823,19.39644 374.416594,0 374.42084,0 0.21212,0.21211 0.21636,0.21214 0,163.28305 0,163.27881 -0.16545,0.16121 -0.16121,0.16546 -374.64145,0 -374.645696,0 -0.08908,-0.0934 -0.08908,-0.0891 0,-163.42305 0,-163.42732 0.263018,-0.13998 0.263044,-0.14 z"
       id="path4143"
       inkscape:connector-curvature="0" />
  </g>
</svg>
