<?xml version="1.0" encoding="UTF-8" standalone="no"?>
<!-- Created with Inkscape (http://www.inkscape.org/) -->

<svg
   xmlns:dc="http://purl.org/dc/elements/1.1/"
   xmlns:cc="http://creativecommons.org/ns#"
   xmlns:rdf="http://www.w3.org/1999/02/22-rdf-syntax-ns#"
   xmlns:svg="http://www.w3.org/2000/svg"
   xmlns="http://www.w3.org/2000/svg"
   xmlns:sodipodi="http://sodipodi.sourceforge.net/DTD/sodipodi-0.dtd"
   xmlns:inkscape="http://www.inkscape.org/namespaces/inkscape"
   width="640px"
   height="480px"
   id="svg3150"
   version="1.1"
   inkscape:version="0.48.4 r9939"
   sodipodi:docname="New document 5">
  <defs
     id="defs3152" />
  <sodipodi:namedview
     id="base"
     pagecolor="#ffffff"
     bordercolor="#666666"
     borderopacity="1.0"
     inkscape:pageopacity="0.0"
     inkscape:pageshadow="2"
     inkscape:zoom="0.77472527"
     inkscape:cx="454.94533"
     inkscape:cy="239.35461"
     inkscape:current-layer="layer1"
     inkscape:document-units="px"
     showgrid="false"
     inkscape:window-width="947"
     inkscape:window-height="690"
     inkscape:window-x="0"
     inkscape:window-y="389"
     inkscape:window-maximized="0" />
  <metadata
     id="metadata3155">
    <rdf:RDF>
      <cc:Work
         rdf:about="">
        <dc:format>image/svg+xml</dc:format>
        <dc:type
           rdf:resource="http://purl.org/dc/dcmitype/StillImage" />
        <dc:title></dc:title>
      </cc:Work>
    </rdf:RDF>
  </metadata>
  <g
     id="layer1"
     inkscape:label="Layer 1"
     inkscape:groupmode="layer">
    <path
       id="path3949"
       d="m 315.84801,52.284401 c -2.94156,0.05043 -6.25506,1.018247 -9.81047,2.874148 -1.18779,0.619964 -4.42796,2.546211 -7.20037,4.278207 -6.60648,4.127286 -18.63329,11.379529 -51.21854,30.889541 C 155.14567,145.69336 88.561709,185.12936 58.777239,202.17185 c -10.775987,6.16593 -13.051074,7.40213 -20.929041,11.37057 -9.254825,4.66197 -14.290408,6.94953 -22.465117,10.20051 -2.461225,0.97879 -5.6772868,2.59882 -8.2024063,4.1342 -4.5046507,2.73898 -5.6556993,4.61746 -5.8622981,9.59449 -0.1853616,4.46525 0.7821384,7.44836 3.2101512,9.89448 1.6076351,1.6196 3.105077,2.58931 7.5903792,4.92623 5.274784,2.74832 31.33045,17.7939 83.140138,48.01441 84.580985,49.33597 146.223905,85.92302 166.412285,98.76492 1.97433,1.25582 9.05949,5.9334 15.74478,10.3985 6.6853,4.46508 13.58228,8.97557 15.32475,10.02049 3.7627,2.25643 8.37862,4.58605 11.04056,5.5743 3.45081,1.28108 8.85555,2.44877 12.19262,2.6341 2.54505,0.14139 9.12777,-0.0562 10.94454,-0.33 7.39427,-1.11422 13.14768,-3.48629 22.27309,-9.18047 1.53128,-0.95548 8.35723,-5.4622 15.16877,-10.0145 12.25019,-8.18698 19.24201,-12.61803 33.98568,-21.55307 32.57116,-19.73886 102.36707,-60.85439 174.72869,-102.92308 37.03528,-21.53117 50.2178,-29.10844 54.62671,-31.4056 4.48531,-2.33692 5.97676,-3.30663 7.58438,-4.92623 2.42802,-2.44612 3.39552,-5.42916 3.21016,-9.89448 -0.2066,-4.97709 -1.35766,-6.85551 -5.86229,-9.59449 -2.52515,-1.53538 -5.73519,-3.15541 -8.1964,-4.1342 -4.60027,-1.82948 -8.23649,-3.37138 -11.9046,-5.05226 -4.58908,-2.10287 -16.05766,-7.86211 -20.35302,-10.2185 -20.16693,-11.06338 -102.30769,-59.61089 -207.85033,-122.850114 -26.05094,-15.609238 -37.20038,-22.34257 -43.35216,-26.1853 -2.77235,-1.731813 -6.01252,-3.658212 -7.20035,-4.278207 -4.73986,-2.474174 -9.0539,-3.368258 -12.61862,-2.616132 -1.05644,0.222169 -1.43969,0.222276 -2.49613,0 -0.8927,-0.18792 -1.83359,-0.27482 -2.81415,-0.258016 z m 4.06222,41.846082 c 0.0496,0 0.69677,0.469734 1.44007,1.044055 0.7433,0.57429 2.14579,1.494258 3.12015,2.046092 0.97438,0.551849 5.9667,3.3949 11.08855,6.31832 12.66192,7.22709 16.2268,9.22689 22.94515,12.86465 6.96252,3.76995 8.82685,4.84879 11.32856,6.54631 5.07791,3.44558 7.41042,6.43598 8.2804,10.60852 0.92973,4.4591 1.18881,30.91953 1.21206,124.83621 0.007,31.6725 0.0946,59.1344 0.21004,64.57521 0.14198,6.69416 0.13909,10.003 -0.006,11.30457 -0.71472,6.40978 -2.86925,11.43982 -6.70834,15.63677 -2.07553,2.26903 -4.00607,3.6035 -8.15442,5.64029 -5.3629,2.6331 -9.62687,5.00355 -27.95537,15.51678 -6.07231,3.48304 -11.55899,6.67937 -12.19262,7.10434 -0.63363,0.425 -1.92968,1.52868 -2.88014,2.4541 l -1.72808,1.6801 -1.72809,-1.67408 c -0.95044,-0.92193 -2.24651,-2.02563 -2.88013,-2.45412 -1.10699,-0.74864 -19.01233,-11.0697 -27.16937,-15.66076 -6.06572,-3.41405 -10.94983,-6.02503 -13.91467,-7.44038 -1.61735,-0.77208 -3.32274,-1.75549 -4.25422,-2.46015 -4.46731,-3.37931 -7.58098,-8.33135 -9.00045,-14.3047 -0.8315,-3.49912 -0.90045,-5.08045 -0.68404,-15.44475 0.11426,-5.47427 0.20214,-33.73025 0.21003,-66.10529 0.0219,-91.06963 0.27813,-118.33201 1.15205,-122.98212 0.58477,-3.11174 2.38106,-6.08963 5.02824,-8.3404 2.90218,-2.46758 5.68005,-4.18095 14.64673,-9.03645 6.70525,-3.63091 11.98982,-6.59701 22.75314,-12.76264 4.27701,-2.45004 8.94905,-5.114816 10.3865,-5.922305 1.43745,-0.807459 3.23475,-1.942435 3.99021,-2.52611 0.75546,-0.583705 1.41445,-1.062062 1.46407,-1.062062 z m 105.26322,62.199087 c 0.90112,0 1.85648,0.10299 2.86816,0.31202 3.55104,0.7335 6.43902,2.12188 14.1787,6.80433 13.00212,7.86622 25.78993,15.47147 72.29158,43.01015 36.71262,21.74155 40.9456,24.50724 43.49617,28.41741 0.98067,1.50343 1.43407,2.92894 1.43407,4.51223 0,4.22819 -2.85494,7.27365 -12.00058,12.81061 -6.47524,3.92023 -77.36398,44.73286 -103.87718,59.80499 -10.20246,5.79988 -12.72117,7.13831 -14.97673,7.93841 -2.04356,0.72487 -4.64035,0.94015 -5.98831,0.498 -4.04433,-1.32655 -6.34464,-6.32023 -7.17037,-15.57676 -0.14413,-1.61679 -0.1605,-20.03573 -0.0659,-61.74307 0.10923,-48.19784 0.0829,-60.66764 -0.126,-65.94929 -0.20259,-5.12367 -0.20879,-6.98409 -0.03,-8.72441 0.79751,-7.76335 4.11958,-11.9189 9.58248,-12.10863 0.12644,-0.005 0.2553,-0.006 0.38401,-0.006 z m -210.67647,0.0241 c 1.81248,-0.0317 3.40369,0.32647 4.70425,1.08604 1.42318,0.83128 2.79199,2.39631 3.63018,4.14022 1.71982,3.57832 2.11816,6.89604 1.77609,14.88673 -0.2736,6.3907 -0.3078,33.9819 -0.10802,89.03242 0.13894,38.29746 0.12447,39.13396 -0.69603,43.9762 -0.93942,5.54428 -2.92696,9.22488 -5.71827,10.59051 -1.29067,0.63148 -3.76387,0.79832 -5.32227,0.36003 -2.97051,-0.83549 -4.54782,-1.62959 -15.16275,-7.65039 -21.7695,-12.34761 -99.084513,-56.84588 -104.933221,-60.393 -9.47057,-5.74373 -12.288623,-8.72835 -12.288623,-13.01463 0,-3.33422 2.058371,-6.23304 6.816346,-9.59448 5.6194,-3.97001 11.442544,-7.53112 38.593928,-23.60517 44.15492,-26.14042 57.97396,-34.36079 71.13953,-42.32611 6.99659,-4.23303 8.74821,-5.17698 11.52057,-6.21032 2.20215,-0.82078 4.23584,-1.24637 6.0483,-1.27805 z"
       style="fill:#5d4d31;fill-opacity:1;stroke:#5d4d31;stroke-width:0.19200954;stroke-opacity:1"
       inkscape:connector-curvature="0"
       inkscape:export-xdpi="90"
       inkscape:export-ydpi="90" />
  </g>
</svg>
