<?xml version="1.0" encoding="UTF-8" standalone="no"?>
<!-- Created with Inkscape (http://www.inkscape.org/) -->

<svg
   xmlns:dc="http://purl.org/dc/elements/1.1/"
   xmlns:cc="http://creativecommons.org/ns#"
   xmlns:rdf="http://www.w3.org/1999/02/22-rdf-syntax-ns#"
   xmlns:svg="http://www.w3.org/2000/svg"
   xmlns="http://www.w3.org/2000/svg"
   xmlns:sodipodi="http://sodipodi.sourceforge.net/DTD/sodipodi-0.dtd"
   xmlns:inkscape="http://www.inkscape.org/namespaces/inkscape"
   width="640px"
   height="480px"
   id="svg3150"
   version="1.1"
   inkscape:version="0.48.4 r9939"
   sodipodi:docname="brown-logo-vertical.svg">
  <defs
     id="defs3152" />
  <sodipodi:namedview
     id="base"
     pagecolor="#ffffff"
     bordercolor="#666666"
     borderopacity="1.0"
     inkscape:pageopacity="0.0"
     inkscape:pageshadow="2"
     inkscape:zoom="0.77472527"
     inkscape:cx="454.94533"
     inkscape:cy="240"
     inkscape:current-layer="layer1"
     inkscape:document-units="px"
     showgrid="false"
     inkscape:window-width="947"
     inkscape:window-height="690"
     inkscape:window-x="0"
     inkscape:window-y="389"
     inkscape:window-maximized="0" />
  <metadata
     id="metadata3155">
    <rdf:RDF>
      <cc:Work
         rdf:about="">
        <dc:format>image/svg+xml</dc:format>
        <dc:type
           rdf:resource="http://purl.org/dc/dcmitype/StillImage" />
        <dc:title />
      </cc:Work>
    </rdf:RDF>
  </metadata>
  <g
     id="layer1"
     inkscape:label="Layer 1"
     inkscape:groupmode="layer">
    <path
       id="path3949"
       d="m 465.57597,237.69592 c -0.0377,-2.1976 -0.76073,-4.67308 -2.14725,-7.32928 -0.46316,-0.88738 -1.90224,-3.30808 -3.19619,-5.37931 -3.08345,-4.93562 -8.50151,-13.92071 -23.0772,-38.26477 -41.36407,-69.08543 -70.82624,-118.829513 -83.55848,-141.081135 -4.60649,-8.050611 -5.53004,-9.750301 -8.49482,-15.635835 -3.4829,-6.914169 -5.19191,-10.676194 -7.62068,-16.783421 -0.73123,-1.838751 -1.94155,-4.2414319 -3.08861,-6.1279184 -2.04625,-3.3653703 -3.44964,-4.2253046 -7.16792,-4.3796526 -3.33594,-0.1384818 -5.56459,0.5843263 -7.39205,2.3982653 -1.20999,1.2010451 -1.93444,2.3197657 -3.68033,5.6706807 -2.05324,3.940728 -13.29361,23.406604 -35.871,62.113001 -36.85831,63.189435 -64.19205,109.242135 -73.78609,124.324625 -0.9382,1.475 -4.43277,6.76824 -7.76859,11.76274 -3.3358,4.99451 -6.70554,10.14716 -7.48619,11.44893 -1.68574,2.81108 -3.42618,6.25958 -4.16448,8.24828 -0.95709,2.57806 -1.82945,6.61587 -1.96791,9.10896 -0.10558,1.90138 0.042,6.81924 0.24654,8.17653 0.83242,5.52417 2.60457,9.82248 6.85862,16.63996 0.71382,1.144 4.08074,6.24359 7.48171,11.33241 6.11639,9.15197 9.42678,14.37547 16.10204,25.39029 14.74667,24.33353 45.46359,76.47721 76.8926,130.53771 16.08568,27.66862 21.74657,37.51712 23.46275,40.81096 1.74589,3.35093 2.47034,4.46517 3.68033,5.66621 1.82746,1.81393 4.05606,2.53674 7.39205,2.39826 3.71832,-0.15435 5.12167,-1.01428 7.16792,-4.37964 1.14706,-1.88651 2.35738,-4.2847 3.08861,-6.12343 1.36678,-3.43682 2.51873,-6.15339 3.77449,-8.89379 1.57103,-3.42844 5.87369,-11.99648 7.63411,-15.2055 8.26532,-15.06647 44.53459,-76.43284 91.77985,-155.28248 11.66148,-19.46235 16.69188,-27.79196 19.56273,-32.38789 1.29381,-2.07118 2.73301,-4.49188 3.19619,-5.37929 1.84843,-3.5411 2.51639,-6.76406 1.95449,-9.42723 -0.16598,-0.78924 -0.16606,-1.07556 0,-1.86481 0.14039,-0.66694 0.20531,-1.36986 0.19276,-2.10243 z m -31.26271,3.03483 c 0,0.037 -0.35093,0.52055 -0.78,1.07587 -0.42905,0.55531 -1.11633,1.60309 -1.52861,2.33103 -0.41228,0.72794 -2.53629,4.45764 -4.72034,8.28411 -5.39927,9.45958 -6.8933,12.12285 -9.61103,17.14206 -2.81648,5.20161 -3.62248,6.59443 -4.89067,8.46343 -2.57415,3.79364 -4.80824,5.53623 -7.9255,6.18618 -3.33134,0.69459 -23.09961,0.88814 -93.26364,0.90551 -23.66214,0.006 -44.1786,0.0707 -48.24336,0.15693 -5.00113,0.10613 -7.47313,0.1039 -8.44551,-0.004 -4.78867,-0.53396 -8.54655,-2.14358 -11.68204,-5.01173 -1.69516,-1.5506 -2.69213,-2.99288 -4.21379,-6.09207 -1.96716,-4.00655 -3.7381,-7.19211 -11.59241,-20.88511 -2.60213,-4.53655 -4.99007,-8.63559 -5.30756,-9.10896 -0.31752,-0.47338 -1.14207,-1.44165 -1.83343,-2.15172 l -1.25518,-1.29103 1.25068,-1.29104 c 0.68876,-0.71006 1.51332,-1.67834 1.83345,-2.15171 0.55929,-0.82701 8.27003,-14.20389 11.69996,-20.29791 2.55059,-4.53162 4.50123,-8.18049 5.55862,-10.39549 0.57681,-1.20829 1.31151,-2.48238 1.83794,-3.17827 2.52465,-3.33748 6.22426,-5.66366 10.68687,-6.72413 2.61415,-0.6212 3.79555,-0.67272 11.53859,-0.51103 4.08976,0.0854 25.19947,0.15101 49.38648,0.15691 68.03703,0.0164 88.40443,0.20778 91.87847,0.86068 2.32474,0.43687 4.54948,1.77886 6.23101,3.75654 1.8435,2.16818 3.12354,4.24349 6.75102,10.9424 2.71261,5.0094 4.92855,8.95745 9.53482,16.99859 1.83039,3.1953 3.82122,6.68573 4.42449,7.75964 0.60323,1.07389 1.45116,2.41663 1.88722,2.98103 0.43607,0.56439 0.79345,1.05672 0.79345,1.09379 z m -46.46819,78.64089 c 0,0.67323 -0.0769,1.38696 -0.23311,2.14278 -0.54798,2.65294 -1.58523,4.81051 -5.08343,10.59274 -5.87676,9.71372 -11.55856,19.26734 -32.13238,54.00817 -16.24284,27.42756 -18.30906,30.58996 -21.23029,32.49547 -1.1232,0.73264 -2.18819,1.07137 -3.37104,1.07137 -3.15883,0 -5.43406,-2.13289 -9.57065,-8.96548 -2.92876,-4.83758 -33.41939,-57.79771 -44.6796,-77.60541 -4.33301,-7.62213 -5.33295,-9.50383 -5.93068,-11.18893 -0.54154,-1.52673 -0.70238,-3.46675 -0.37206,-4.4738 0.99105,-3.02146 4.72177,-4.74 11.63721,-5.35689 1.20788,-0.1077 14.96846,-0.11992 46.12751,-0.0493 36.00803,0.0816 45.32407,0.062 49.26992,-0.0941 3.82784,-0.15135 5.21774,-0.15599 6.51791,-0.0224 5.7999,0.59581 8.90447,3.07769 9.04621,7.15895 0.003,0.0944 0.004,0.19074 0.004,0.28689 z m -0.018,-157.39386 c 0.0236,1.35408 -0.2439,2.54286 -0.81137,3.51449 -0.62104,1.06324 -1.79025,2.08586 -3.09311,2.71206 -2.67332,1.28487 -5.15194,1.58246 -11.12169,1.32689 -4.77443,-0.20439 -25.38747,-0.22994 -66.51506,-0.0807 -28.61157,0.10379 -29.23651,0.093 -32.85409,-0.51999 -4.14207,-0.70183 -6.8918,-2.1867 -7.91205,-4.27206 -0.47176,-0.96423 -0.59641,-2.81193 -0.26897,-3.9762 0.62419,-2.21922 1.21744,-3.39762 5.71551,-11.32791 9.22475,-16.26373 42.46888,-74.024849 45.11889,-78.394349 4.29108,-7.075349 6.52085,-9.180683 9.72307,-9.180683 2.49096,0 4.65664,1.537785 7.16793,5.092411 2.96594,4.198186 5.6264,8.548587 17.63514,28.833061 19.52919,32.98762 25.67053,43.31165 31.62132,53.1475 3.16245,5.22706 3.86767,6.53567 4.63966,8.60688 0.61319,1.6452 0.93115,3.16454 0.95482,4.51861 z"
       style="fill:#5d4d31;fill-opacity:1;stroke:#5d4d31;stroke-width:0.14344802;stroke-opacity:1"
       inkscape:connector-curvature="0"
       inkscape:export-xdpi="90"
       inkscape:export-ydpi="90" />
  </g>
</svg>
