<?xml version="1.0" encoding="UTF-8" standalone="no"?>
<!-- Created with Inkscape (http://www.inkscape.org/) -->

<svg
   xmlns:dc="http://purl.org/dc/elements/1.1/"
   xmlns:cc="http://creativecommons.org/ns#"
   xmlns:rdf="http://www.w3.org/1999/02/22-rdf-syntax-ns#"
   xmlns:svg="http://www.w3.org/2000/svg"
   xmlns="http://www.w3.org/2000/svg"
   xmlns:sodipodi="http://sodipodi.sourceforge.net/DTD/sodipodi-0.dtd"
   xmlns:inkscape="http://www.inkscape.org/namespaces/inkscape"
   width="640"
   height="640"
   id="svg3150"
   version="1.1"
   inkscape:version="0.48.4 r9939"
   sodipodi:docname="default-photo.svg">
  <defs
     id="defs3152" />
  <sodipodi:namedview
     id="base"
     pagecolor="#ffffff"
     bordercolor="#666666"
     borderopacity="1.0"
     inkscape:pageopacity="0.0"
     inkscape:pageshadow="2"
     inkscape:zoom="0.77472527"
     inkscape:cx="321.34958"
     inkscape:cy="315.73962"
     inkscape:current-layer="layer1"
     inkscape:document-units="px"
     showgrid="false"
     inkscape:window-width="1279"
     inkscape:window-height="673"
     inkscape:window-x="154"
     inkscape:window-y="336"
     inkscape:window-maximized="0" />
  <metadata
     id="metadata3155">
    <rdf:RDF>
      <cc:Work
         rdf:about="">
        <dc:format>image/svg+xml</dc:format>
        <dc:type
           rdf:resource="http://purl.org/dc/dcmitype/StillImage" />
        <dc:title />
      </cc:Work>
    </rdf:RDF>
  </metadata>
  <g
     id="layer1"
     inkscape:label="Layer 1"
     inkscape:groupmode="layer"
     transform="translate(0,160)">
    <path
       id="path3949"
       d="m 276.87354,34.98129 c -1.72043,0.0295 -3.6584,0.59554 -5.73785,1.681 -0.6947,0.3626 -2.58978,1.4892 -4.21128,2.50219 -3.86393,2.41393 -10.89804,6.65554 -29.95617,18.06636 -54.08463,32.38251 -93.02757,55.44743 -110.4476,65.41507 -6.30255,3.60626 -7.63318,4.32928 -12.24076,6.6503 -5.41287,2.72664 -8.35803,4.06457 -13.13917,5.96597 -1.439487,0.57246 -3.320467,1.51997 -4.797327,2.41797 -2.63464,1.60194 -3.30785,2.70061 -3.42868,5.61152 -0.10842,2.61159 0.45744,4.35632 1.87752,5.78698 0.94025,0.94726 1.81606,1.51441 4.43938,2.88121 3.085057,1.6074 18.324227,10.40711 48.626137,28.08217 49.46886,28.85511 85.52193,50.25376 97.3295,57.7646 1.15472,0.73449 5.29862,3.47027 9.20864,6.08177 3.91003,2.61149 7.94387,5.24954 8.96298,5.86068 2.20069,1.31972 4.9004,2.68224 6.45729,3.26024 2.01828,0.74926 5.17935,1.43221 7.1311,1.5406 1.48852,0.0827 5.33855,-0.0329 6.40113,-0.193 4.32468,-0.65168 7.68967,-2.03903 13.02685,-5.36938 0.8956,-0.55883 4.88789,-3.19468 8.87175,-5.85718 7.16477,-4.78832 11.25407,-7.3799 19.8772,-12.60574 19.04988,-11.54466 59.87139,-35.59188 102.1935,-60.19658 21.66082,-12.59293 29.37087,-17.02465 31.94951,-18.36818 2.62332,-1.3668 3.49562,-1.93395 4.43587,-2.88121 1.42008,-1.43066 1.98594,-3.17535 1.87753,-5.78698 -0.12084,-2.91095 -0.79406,-4.00958 -3.42868,-5.61152 -1.47688,-0.898 -3.35434,-1.84551 -4.79382,-2.41797 -2.69056,-1.07001 -4.81728,-1.97182 -6.96264,-2.95492 -2.68402,-1.2299 -9.39164,-4.5983 -11.90387,-5.97649 -11.79502,-6.47063 -59.83666,-34.8646 -121.56535,-71.8513 -15.2364,-9.12937 -21.75737,-13.06749 -25.35536,-15.31499 -1.62146,-1.01288 -3.51654,-2.13957 -4.21127,-2.50219 -2.7722,-1.44707 -5.29535,-1.96999 -7.38024,-1.5301 -0.61788,0.12994 -0.84203,0.13001 -1.45991,0 -0.52212,-0.10991 -1.07242,-0.16073 -1.64591,-0.1509 z m 2.37586,24.4745 c 0.029,0 0.40752,0.27473 0.84226,0.61064 0.43473,0.33588 1.25501,0.87394 1.82488,1.19669 0.56988,0.32276 3.48974,1.98558 6.48535,3.6954 7.40558,4.2269 9.49057,5.39653 13.41993,7.52414 4.07216,2.20493 5.16255,2.83591 6.62573,3.82874 2.96991,2.01521 4.33413,3.76421 4.84295,6.2046 0.54377,2.60799 0.6953,18.0839 0.7089,73.01291 0.004,18.52429 0.0553,34.58592 0.12285,37.76808 0.083,3.91521 0.0814,5.85045 -0.004,6.6117 -0.41802,3.74889 -1.67814,6.69081 -3.92351,9.14547 -1.21391,1.32709 -2.34303,2.10758 -4.76927,3.29884 -3.1366,1.54002 -5.63046,2.92642 -16.35025,9.07529 -3.55151,2.03713 -6.7605,3.90656 -7.13109,4.15512 -0.37059,0.24856 -1.12861,0.89407 -1.68451,1.43532 l -1.0107,0.98264 -1.01071,-0.97912 c -0.55588,-0.5392 -1.31391,-1.18472 -1.6845,-1.43534 -0.64744,-0.43785 -11.11973,-6.47433 -15.89054,-9.1595 -3.54765,-1.99677 -6.40422,-3.52386 -8.13827,-4.35165 -0.94593,-0.45157 -1.94337,-1.02673 -2.48816,-1.43887 -2.61279,-1.97645 -4.43389,-4.87275 -5.26409,-8.36638 -0.48632,-2.04653 -0.52665,-2.9714 -0.40007,-9.03317 0.0668,-3.20173 0.11822,-19.7278 0.12284,-38.66298 0.0128,-53.26386 0.16267,-69.2088 0.67379,-71.92851 0.34202,-1.81996 1.39261,-3.56164 2.94087,-4.87804 1.6974,-1.44322 3.32209,-2.44531 8.56643,-5.28515 3.92169,-2.12361 7.01248,-3.85839 13.30762,-7.46448 2.50149,-1.43295 5.23403,-2.9915 6.07475,-3.46378 0.84072,-0.47225 1.8919,-1.13607 2.33375,-1.47744 0.44185,-0.34139 0.82727,-0.62117 0.85629,-0.62117 z m 61.56527,36.37836 c 0.52703,0 1.0858,0.0602 1.6775,0.18249 2.07689,0.429 3.76598,1.24102 8.29269,3.97965 7.60454,4.60071 15.08375,9.04879 42.28115,25.15533 21.4721,12.71597 23.94784,14.33354 25.43959,16.62048 0.57356,0.87931 0.83874,1.71305 0.83874,2.63907 0,2.47294 -1.66976,4.25413 -7.01877,7.49253 -3.78717,2.29283 -45.24785,26.16289 -60.75461,34.97813 -5.96711,3.39217 -7.44023,4.17498 -8.75944,4.64293 -1.19521,0.42396 -2.714,0.54987 -3.50238,0.29127 -2.3654,-0.77586 -3.71078,-3.69651 -4.19373,-9.11038 -0.0843,-0.94561 -0.0939,-11.71829 -0.0385,-36.11165 0.0639,-28.18945 0.0485,-35.48266 -0.0737,-38.57173 -0.11848,-2.99668 -0.12211,-4.08479 -0.0175,-5.10265 0.46644,-4.54054 2.40942,-6.971 5.6045,-7.08197 0.0739,-0.003 0.14932,-0.004 0.2246,-0.004 z m -123.21828,0.0141 c 1.06007,-0.0185 1.99072,0.19094 2.75138,0.63519 0.83237,0.48619 1.63295,1.40153 2.12318,2.42149 1.00587,2.09285 1.23885,4.03328 1.03878,8.70679 -0.16002,3.73773 -0.18002,19.87498 -0.0632,52.07236 0.0813,22.39903 0.0728,22.88827 -0.40708,25.72035 -0.54944,3.24268 -1.71189,5.39535 -3.34445,6.19407 -0.75487,0.36933 -2.20137,0.46691 -3.11283,0.21057 -1.73736,-0.48866 -2.65988,-0.9531 -8.86823,-4.47448 -12.73232,-7.22175 -57.95153,-33.24743 -61.37226,-35.32204 -5.53905,-3.35933 -7.18725,-5.10494 -7.18725,-7.61186 0,-1.95008 1.20388,-3.64552 3.98668,-5.61152 3.28661,-2.32194 6.69239,-4.40472 22.57242,-13.80595 25.82487,-15.28874 33.90721,-20.09658 41.60735,-24.75525 4.09209,-2.47578 5.11656,-3.02786 6.73803,-3.63223 1.28797,-0.48005 2.47742,-0.72897 3.53747,-0.74749 z"
       style="fill:#5d4d31;fill-opacity:1;stroke:#5d4d31;stroke-width:0.11230055;stroke-opacity:1"
       inkscape:connector-curvature="0"
       inkscape:export-xdpi="90"
       inkscape:export-ydpi="90"
       inkscape:export-filename="/home/fabian/work/altia/public/images/brown-logo.png" />
  </g>
</svg>
