<?xml version="1.0" encoding="UTF-8" standalone="no"?>
<!-- Created with Inkscape (http://www.inkscape.org/) -->

<svg
   xmlns:dc="http://purl.org/dc/elements/1.1/"
   xmlns:cc="http://creativecommons.org/ns#"
   xmlns:rdf="http://www.w3.org/1999/02/22-rdf-syntax-ns#"
   xmlns:svg="http://www.w3.org/2000/svg"
   xmlns="http://www.w3.org/2000/svg"
   xmlns:sodipodi="http://sodipodi.sourceforge.net/DTD/sodipodi-0.dtd"
   xmlns:inkscape="http://www.inkscape.org/namespaces/inkscape"
   width="640"
   height="640"
   id="svg3150"
   version="1.1"
   inkscape:version="0.48.3.1 r9886"
   sodipodi:docname="green-logo.svg">
  <defs
     id="defs3152" />
  <sodipodi:namedview
     id="base"
     pagecolor="#ffffff"
     bordercolor="#666666"
     borderopacity="1.0"
     inkscape:pageopacity="0.0"
     inkscape:pageshadow="2"
     inkscape:zoom="0.59"
     inkscape:cx="498.00957"
     inkscape:cy="162.24304"
     inkscape:current-layer="layer1"
     inkscape:document-units="px"
     showgrid="true"
     inkscape:window-width="1360"
     inkscape:window-height="716"
     inkscape:window-x="0"
     inkscape:window-y="0"
     inkscape:window-maximized="0">
    <inkscape:grid
       type="xygrid"
       id="grid3753" />
  </sodipodi:namedview>
  <metadata
     id="metadata3155">
    <rdf:RDF>
      <cc:Work
         rdf:about="">
        <dc:format>image/svg+xml</dc:format>
        <dc:type
           rdf:resource="http://purl.org/dc/dcmitype/StillImage" />
        <dc:title />
      </cc:Work>
    </rdf:RDF>
  </metadata>
  <g
     id="layer1"
     inkscape:label="Layer 1"
     inkscape:groupmode="layer"
     transform="translate(0,160)">
    <path
       id="path3949"
       d="m 328.35789,158.97917 c 2.1976,-0.0377 4.67308,-0.76073 7.32928,-2.14725 0.88738,-0.46316 3.30808,-1.90224 5.37931,-3.19619 4.93562,-3.08345 13.92071,-8.50151 38.26477,-23.0772 69.08543,-41.36407 118.82951,-70.82624 141.08114,-83.55848 8.05061,-4.60649 9.7503,-5.53004 15.63583,-8.49482 6.91417,-3.4829 10.67619,-5.19191 16.78342,-7.62068 1.83875,-0.73123 4.24143,-1.94155 6.12792,-3.08861 3.36537,-2.04625 4.2253,-3.44964 4.37965,-7.16792 0.13848,-3.33594 -0.58432,-5.56459 -2.39826,-7.39205 -1.20105,-1.20999 -2.31977,-1.93444 -5.67068,-3.68033 -3.94073,-2.05324 -23.40661,-13.29361 -62.113,-35.871 -63.18944,-36.85831 -109.24214,-64.19205 -124.32463,-73.78609 -1.475,-0.9382 -6.76824,-4.43277 -11.76274,-7.76859 -4.99451,-3.3358 -10.14716,-6.70554 -11.44893,-7.48619 -2.81108,-1.68574 -6.25958,-3.42618 -8.24828,-4.16448 -2.57806,-0.95709 -6.61587,-1.82945 -9.10896,-1.96791 -1.90138,-0.10558 -6.81924,0.042 -8.17653,0.24654 -5.52417,0.83242 -9.82248,2.60457 -16.63996,6.85862 -1.144,0.71382 -6.24359,4.08074 -11.33241,7.48171 -9.15197,6.11639 -14.37547,9.42678 -25.39029,16.10204 -24.33353,14.74667 -76.47721,45.46359 -130.53771,76.8926 C 108.51821,2.17857 98.669711,7.83946 95.375871,9.55564 c -3.35093,1.74589 -4.46517,2.47034 -5.66621,3.68033 -1.81393,1.82746 -2.53674,4.05606 -2.39826,7.39205 0.15435,3.71832 1.01428,5.12167 4.37964,7.16792 1.88651,1.14706 4.2847,2.35738 6.12343,3.08861 3.436819,1.36678 6.153389,2.51873 8.893789,3.77449 3.42844,1.57103 11.99648,5.87369 15.2055,7.63411 15.06647,8.26532 76.43284,44.53459 155.28248,91.77985 19.46235,11.66148 27.79196,16.69188 32.38789,19.56273 2.07118,1.29381 4.49188,2.73301 5.37929,3.19619 3.5411,1.84843 6.76406,2.51639 9.42723,1.95449 0.78924,-0.16598 1.07556,-0.16606 1.86481,0 0.66694,0.14039 1.36986,0.20531 2.10243,0.19276 z m -3.03483,-31.26271 c -0.037,0 -0.52055,-0.35093 -1.07587,-0.78 -0.55531,-0.42905 -1.60309,-1.11633 -2.33103,-1.52861 -0.72794,-0.41228 -4.45764,-2.53629 -8.28411,-4.72034 -9.45958,-5.39927 -12.12285,-6.8933 -17.14206,-9.61103 -5.20161,-2.81648 -6.59443,-3.62248 -8.46343,-4.89067 -3.79364,-2.57415 -5.53623,-4.80824 -6.18618,-7.9255 -0.69459,-3.33134 -0.88814,-23.09961 -0.90551,-93.26364 -0.006,-23.66214 -0.0707,-44.1786 -0.15693,-48.24336 -0.10613,-5.00113 -0.1039,-7.47313 0.004,-8.44551 0.53396,-4.78867 2.14358,-8.54655 5.01173,-11.68204 1.5506,-1.69516 2.99288,-2.69213 6.09207,-4.21379 4.00655,-1.96716 7.19211,-3.7381 20.88511,-11.59241 4.53655,-2.60213 8.63559,-4.99007 9.10896,-5.30756 0.47338,-0.31752 1.44165,-1.14207 2.15172,-1.83343 l 1.29103,-1.25518 1.29104,1.25068 c 0.71006,0.68876 1.67834,1.51332 2.15171,1.83345 0.82701,0.55929 14.20389,8.27003 20.29791,11.69996 4.53162,2.55059 8.18049,4.50123 10.39549,5.55862 1.20829,0.57681 2.48238,1.31151 3.17827,1.83794 3.33748,2.52465 5.66366,6.22426 6.72413,10.68687 0.6212,2.61415 0.67272,3.79555 0.51103,11.53859 -0.0854,4.08976 -0.15101,25.19947 -0.15691,49.38648 -0.0164,68.03703 -0.20778,88.40443 -0.86068,91.87847 -0.43687,2.32474 -1.77886,4.54948 -3.75654,6.23101 -2.16818,1.8435 -4.24349,3.12354 -10.9424,6.75102 -5.0094,2.71261 -8.95745,4.92855 -16.99859,9.53482 -3.1953,1.83039 -6.68573,3.82122 -7.75964,4.42449 -1.07389,0.60323 -2.41663,1.45116 -2.98103,1.88722 -0.56439,0.43607 -1.05672,0.79345 -1.09379,0.79345 z M 246.68217,81.24827 c -0.67323,0 -1.38696,-0.0769 -2.14278,-0.23311 -2.65294,-0.54798 -4.81051,-1.58523 -10.59274,-5.08343 -9.71372,-5.87676 -19.26734,-11.55856 -54.00817,-32.13238 -27.42756,-16.24284 -30.58996,-18.30906 -32.49547,-21.23029 -0.73264,-1.1232 -1.07137,-2.18819 -1.07137,-3.37104 0,-3.15883 2.13289,-5.43406 8.96548,-9.57065 4.83758,-2.92876 57.79771,-33.41939 77.60541,-44.6796 7.62213,-4.33301 9.50383,-5.33295 11.18893,-5.93068 1.52673,-0.54154 3.46675,-0.70238 4.4738,-0.37206 3.02146,0.99105 4.74,4.72177 5.35689,11.63721 0.1077,1.20788 0.11992,14.96846 0.0493,46.12751 -0.0816,36.00803 -0.062,45.32407 0.0941,49.26992 0.15135,3.82784 0.15599,5.21774 0.0224,6.51791 -0.59581,5.7999 -3.07769,8.90447 -7.15895,9.04621 -0.0944,0.003 -0.19074,0.004 -0.28689,0.004 z m 157.39386,-0.018 c -1.35408,0.0236 -2.54286,-0.2439 -3.51449,-0.81137 -1.06324,-0.62104 -2.08586,-1.79025 -2.71206,-3.09311 -1.28487,-2.67332 -1.58246,-5.15194 -1.32689,-11.12169 0.20439,-4.77443 0.22994,-25.38747 0.0807,-66.51506 -0.10379,-28.61157 -0.093,-29.23651 0.51999,-32.85409 0.70183,-4.14207 2.1867,-6.8918 4.27206,-7.91205 0.96423,-0.47176 2.81193,-0.59641 3.9762,-0.26897 2.21922,0.62419 3.39762,1.21744 11.32791,5.71551 16.26373,9.22475 74.02485,42.46888 78.39435,45.11889 7.07535,4.29108 9.18068,6.52085 9.18068,9.72307 0,2.49096 -1.53778,4.65664 -5.09241,7.16793 -4.19818,2.96594 -8.54859,5.6264 -28.83306,17.63514 -32.98762,19.52919 -43.31165,25.67053 -53.1475,31.62132 -5.22706,3.16245 -6.53567,3.86767 -8.60688,4.63966 -1.6452,0.61319 -3.16454,0.93115 -4.51861,0.95482 z"
       style="fill:#6d4f5e;fill-opacity:1;stroke:#5d4d31;stroke-width:0.14344802;stroke-opacity:1"
       inkscape:connector-curvature="0"
       inkscape:export-xdpi="90"
       inkscape:export-ydpi="90" />
    <g
       id="g3792">
      <path
         inkscape:connector-curvature="0"
         d="m 513.97642,296.78333 c -0.3245,-0.16785 -0.6626,-0.52088 -0.833,-0.86963 -0.2712,-0.555 -0.2883,-1.33581 -0.3122,-14.29407 -0.022,-11.82705 -0.057,-13.74504 -0.2555,-13.98447 -0.211,-0.2544 -0.4577,-0.26864 -2.965,-0.17113 -1.5042,0.0585 -3.9989,0.20504 -5.5439,0.32561 -2.9142,0.22746 -3.7592,0.16649 -4.2848,-0.30918 -0.4137,-0.37443 -0.6496,-1.39652 -0.6811,-2.95166 -0.027,-1.34162 -0.017,-1.38068 0.4345,-1.77013 l 0.4624,-0.39822 2.5027,0.11218 c 1.3765,0.0617 8.1558,0.15898 15.0652,0.21615 13.4667,0.11144 13.118,0.088 13.4282,0.90387 0.1989,0.52294 0.19,2.96663 -0.012,3.3442 -0.088,0.16514 -0.3715,0.40925 -0.6292,0.54248 -0.4101,0.21211 -1.1788,0.2286 -6.1823,0.13257 -5.4514,-0.10459 -5.7236,-0.0964 -5.9252,0.17935 -0.2794,0.38207 -0.275,3.39298 0.019,13.26 0.363,12.1676 0.3686,14.25921 0.039,14.86167 -0.3983,0.72907 -1.0796,1.02301 -2.5332,1.09292 -0.985,0.0473 -1.3636,4.9e-4 -1.7946,-0.22251 z m -36.59507,-0.30587 c -0.25748,-0.03 -1.1232,-0.13061 -1.92388,-0.22352 -6.27064,-0.72774 -10.72528,-3.36527 -12.65285,-7.49159 -1.10362,-2.36251 -1.10684,-2.40466 -1.10684,-14.39183 l 0,-10.67332 0.35656,-0.53026 c 0.84306,-1.25365 3.86369,-1.1322 4.8091,0.19334 l 0.37433,0.52484 0.078,10.76785 c 0.0778,10.72885 0.0793,10.771 0.43039,11.63853 0.6624,1.63672 2.16971,2.91471 4.5634,3.86915 4.41313,1.75968 11.4989,1.59918 15.02956,-0.34041 1.1436,-0.62819 3.0748,-2.20396 3.5608,-2.90532 l 0.3704,-0.53463 0.078,-11.57484 c 0.064,-9.47029 0.1168,-11.62154 0.2912,-11.83168 0.3144,-0.37859 1.3398,-0.61413 2.7518,-0.63211 1.454,-0.0184 2.1864,0.27751 2.3777,0.9611 0.066,0.23447 0.1193,5.48251 0.1193,11.66233 l 0,11.23601 -0.4407,1.24844 c -0.2423,0.68665 -0.6556,1.6247 -0.9184,2.08455 -0.619,1.08337 -2.1216,2.68327 -3.3152,3.53005 -2.18,1.54644 -5.5231,2.85197 -8.3764,3.27105 -1.48693,0.21839 -5.11719,0.29838 -6.45632,0.14227 z m 97.30317,-0.20606 c -0.299,-0.075 -0.6912,-0.30778 -0.8714,-0.51737 -0.3219,-0.37416 -0.3297,-0.54105 -0.4316,-9.18052 -0.1579,-13.40687 -0.132,-23.00214 0.063,-23.43071 0.269,-0.59023 0.7203,-0.76237 2.2325,-0.85143 1.8479,-0.10881 16.3814,0.22996 18.5118,0.43151 7.7914,0.7371 10.7662,3.46403 10.8014,9.90137 0.016,2.87723 -0.7152,4.79063 -2.4809,6.49373 -1.1389,1.09866 -1.8639,1.58044 -4.0702,2.70494 -1.8793,0.95784 -2.1955,1.26583 -1.891,1.84227 0.4769,0.9028 3.2928,4.24718 6.2682,7.44464 1.9082,2.05057 2.2964,2.67122 2.2964,3.67126 0,1.20808 -0.1777,1.35523 -1.8096,1.49796 -0.7642,0.0668 -1.7878,0.1265 -2.2747,0.13261 -1.5582,0.0195 -2.0392,-0.50006 -6.9604,-7.51801 -1.4827,-2.1144 -2.8273,-3.88609 -2.9879,-3.93708 -0.4446,-0.14111 -7.3917,2.77644 -10.0372,4.21528 l -2.285,1.24274 0.081,2.02873 c 0.07,1.76429 0.043,2.09917 -0.2044,2.56904 -0.5191,0.98363 -2.5132,1.61922 -3.95,1.25904 z m 10.6974,-14.26483 c 9.445,-3.83652 10.3117,-4.22558 11.7032,-5.25352 1.845,-1.36299 2.5349,-2.73897 2.3334,-4.65386 -0.2713,-2.57808 -1.5302,-3.80643 -4.4314,-4.32393 -1.771,-0.31588 -16.0587,-0.31724 -16.4908,-0.002 -0.2822,0.20607 -0.3065,0.47139 -0.3552,3.86237 -0.029,2.00261 0,5.40848 0.056,7.56859 0.095,3.44498 0.1444,3.98661 0.401,4.40859 0.5201,0.85527 1.0057,0.74026 6.7835,-1.60668 z m -426.04993,13.92654 c -2.47775,-0.17456 -4.59489,-0.75869 -6.85864,-1.89232 -1.73733,-0.87001 -2.89547,-1.68722 -4.32048,-3.04869 -2.67896,-2.55947 -4.32194,-5.59295 -4.95589,-9.15022 -0.24556,-1.37797 -0.20279,-4.69257 0.0798,-6.18226 1.21533,-6.40671 6.09969,-11.49312 12.68133,-13.2059 1.11868,-0.29112 2.07552,-0.41433 3.69918,-0.47638 6.08666,-0.23252 10.94603,1.44746 14.51762,5.01904 2.89588,2.89587 4.39601,6.37213 4.68466,10.85572 0.31021,4.81816 -1.44921,9.44329 -4.88716,12.84723 -3.85544,3.81731 -8.94094,5.63531 -14.64044,5.23378 z m 5.43211,-5.80755 c 3.51982,-0.99001 6.07009,-3.02068 7.47645,-5.95319 2.0313,-4.23564 1.11743,-9.961 -2.15394,-13.49448 -2.37787,-2.56841 -5.43535,-3.71294 -9.48567,-3.55087 -5.83022,0.23329 -9.94858,3.10213 -11.47592,7.99411 -0.7326,2.34647 -0.56754,5.72692 0.3953,8.09655 1.54147,3.79354 5.35787,6.6436 9.81947,7.33308 1.17276,0.18124 4.07788,-0.0464 5.42431,-0.4252 z m 290.09471,5.81809 c -0.83439,-0.1642 -2.14917,-0.77531 -2.7154,-1.26217 -0.23379,-0.20102 -1.19287,-1.69976 -2.13116,-3.33055 -2.44703,-4.25264 -2.48065,-4.30008 -3.37012,-4.75376 l -0.77658,-0.39607 -15.06309,0 c -16.4455,0 -15.82901,-0.0336 -16.6586,0.91109 -0.24238,0.27605 -1.33657,2.05718 -2.43158,3.95807 -1.19679,2.07755 -2.20516,3.64423 -2.52793,3.92763 -0.6794,0.59652 -1.41057,0.79889 -2.88634,0.79889 -3.05522,0 -3.69036,-1.14279 -2.0807,-3.74358 2.63675,-4.26026 12.1591,-19.81161 15.19339,-24.81287 5.46089,-9.00113 6.95402,-11.56412 8.13663,-13.967 2.16965,-4.4083 2.03894,-4.19412 2.69132,-4.41005 0.73311,-0.24269 1.60827,-0.0445 2.0662,0.46789 0.17343,0.19409 0.54628,0.77423 0.82853,1.28921 1.34424,2.45287 15.8462,26.62359 19.66239,32.77171 0.79915,1.28747 2.26166,3.53467 3.25007,4.99378 2.19549,3.24105 2.70481,4.27121 2.80481,5.67249 0.0613,0.85969 0.0231,1.10076 -0.22268,1.40389 -0.46775,0.57694 -2.17542,0.79503 -3.76916,0.4814 z m -13.32134,-15.05693 c 0.41889,-0.057 0.85472,-0.25389 1.15391,-0.52123 0.41941,-0.37474 0.46782,-0.49899 0.37887,-0.97298 -0.15148,-0.8076 -10.37465,-18.19053 -11.08875,-18.85478 -0.50993,-0.47433 -1.33738,-0.50984 -1.8182,-0.078 -0.51751,0.46475 -1.20493,1.53404 -5.06155,7.873 -1.95824,3.21865 -4.12229,6.76502 -4.80906,7.88082 -0.6868,1.11579 -1.33917,2.32672 -1.44971,2.69095 -0.34336,1.13095 0.12451,1.85741 1.32571,2.05841 0.68517,0.11467 20.48546,0.0441 21.36878,-0.0761 z m 108.71415,15.04639 c -2.4778,-0.17456 -4.5949,-0.75869 -6.8587,-1.89232 -1.7373,-0.87001 -2.8954,-1.68722 -4.3205,-3.04869 -2.6789,-2.55947 -4.3219,-5.59295 -4.9559,-9.15022 -0.2455,-1.37797 -0.2027,-4.69257 0.08,-6.18226 1.2154,-6.40671 6.0998,-11.49312 12.6813,-13.2059 1.1187,-0.29112 2.0756,-0.41433 3.6992,-0.47638 6.0867,-0.23252 10.9461,1.44746 14.5176,5.01904 2.8959,2.89587 4.3961,6.37213 4.6847,10.85572 0.3102,4.81816 -1.4492,9.44329 -4.8871,12.84723 -3.8555,3.81731 -8.941,5.63531 -14.6405,5.23378 z m 5.4321,-5.80755 c 3.5198,-0.99001 6.0701,-3.02068 7.4764,-5.95319 2.0313,-4.23564 1.1175,-9.961 -2.1539,-13.49448 -2.3779,-2.56841 -5.4353,-3.71294 -9.4857,-3.55087 -5.8302,0.23329 -9.9486,3.10213 -11.4759,7.99411 -0.7326,2.34647 -0.5676,5.72692 0.3953,8.09655 1.5414,3.79354 5.3579,6.6436 9.8194,7.33308 1.1728,0.18124 4.078,-0.0464 5.4244,-0.4252 z m -286.09055,5.60847 c -4.53565,-0.801 -9.68821,-3.46662 -10.30328,-5.3303 -0.39246,-1.18925 0.68976,-3.11557 2.18473,-3.88863 1.01582,-0.52531 1.2734,-0.4164 2.84897,1.2047 1.1842,1.21842 1.65824,1.5882 2.61663,2.04102 2.75407,1.30131 6.81639,1.70716 9.59742,0.95885 2.10881,-0.56743 3.8529,-1.78371 4.46544,-3.11407 0.44145,-0.9588 0.39457,-2.46843 -0.10802,-3.47695 -0.97985,-1.96631 -3.21085,-2.88274 -8.44623,-3.46944 -3.10662,-0.34816 -3.58762,-0.44272 -5.18813,-1.02005 -2.52221,-0.90982 -4.39341,-2.46252 -5.37747,-4.46215 -1.32755,-2.69769 -1.333,-5.56363 -0.0154,-8.07116 0.57484,-1.09392 1.85944,-2.50659 2.94739,-3.24121 3.06276,-2.06807 7.53939,-2.6117 12.03616,-1.46162 1.64627,0.42105 4.03366,1.59944 5.94482,2.93431 3.23729,2.26114 3.39286,2.83448 1.26852,4.67475 -0.87312,0.75634 -1.38982,0.97358 -2.31561,0.97358 -0.49918,0 -1.70026,-0.43795 -1.70026,-0.61999 0,-0.0648 -0.36482,-0.48855 -0.81072,-0.94154 -0.9015,-0.91584 -2.38585,-1.70006 -4.02702,-2.12759 -1.56665,-0.40811 -4.457,-0.37559 -5.85207,0.0659 -2.14447,0.67857 -3.19915,1.8962 -3.19915,3.69343 0,1.21691 0.25365,1.99011 0.90086,2.74625 1.04987,1.22653 2.49581,1.71622 6.42243,2.17503 8.33681,0.97413 11.88091,2.95922 12.88473,7.21691 0.29963,1.27079 0.29958,3.70894 -3e-5,4.85929 -0.92926,3.56757 -3.93258,6.22946 -8.3399,7.39175 -1.28071,0.33776 -1.89657,0.40026 -4.37741,0.44435 -1.92278,0.0343 -3.27796,-0.0178 -4.05745,-0.1554 z m -85.20075,-0.10941 c -0.72679,-0.22107 -1.36973,-0.6974 -1.62495,-1.20389 -0.16955,-0.33642 -0.22904,-3.29212 -0.30839,-15.32017 -0.0656,-9.95473 -0.0455,-15.09431 0.061,-15.4785 0.088,-0.3176 0.38279,-0.76329 0.6584,-0.99521 0.471,-0.39631 0.56656,-0.41542 1.69221,-0.33827 0.65616,0.0449 1.35996,0.16882 1.564,0.2752 0.66075,0.34452 5.4202,4.48112 17.22438,14.97029 4.20539,3.7369 8.26139,7.3386 9.01332,8.00379 0.75196,0.66519 1.47377,1.20943 1.60403,1.20943 0.44221,0 0.50099,-0.69692 0.37501,-4.44758 -0.0692,-2.05995 -0.24378,-7.22845 -0.38803,-11.48557 -0.18785,-5.54593 -0.21485,-7.82865 -0.0952,-8.05219 0.34127,-0.63763 4.13009,-0.57804 5.01081,0.0788 l 0.39841,0.29711 0.0945,5.28938 c 0.0519,2.90916 0.1222,9.85909 0.15605,15.4443 l 0.0616,10.15491 -0.45005,0.59091 c -0.53354,0.70052 -1.48677,1.17297 -2.3762,1.17772 -1.12107,0.005 -1.43514,-0.25012 -13.87171,-11.31248 -11.53353,-10.25907 -13.39815,-11.87519 -14.09886,-12.21978 -1.00343,-0.49348 -0.96986,-0.92839 -0.87024,11.27543 0.0973,11.92034 0.12548,11.494 -0.78829,11.93214 -0.58111,0.27861 -2.33953,0.36777 -3.04164,0.15422 z m 50.06048,0.021 c -8.68639,-0.0797 -8.85273,-0.0871 -9.28496,-0.40986 -0.24441,-0.18254 -0.51272,-0.58751 -0.60339,-0.91071 -0.25316,-0.90228 -0.18411,-31.05254 0.0718,-31.36092 0.52363,-0.63093 0.78216,-0.64137 14.76001,-0.59595 l 13.4208,0.0436 0.61029,0.42455 c 1.04603,0.72763 1.57143,2.21678 1.18995,3.37263 -0.10265,0.31107 -0.33903,0.65283 -0.52529,0.75945 -0.25801,0.14773 -3.11816,0.21245 -12.01643,0.27191 -11.38986,0.0761 -11.6834,0.0856 -11.90245,0.38532 -0.45942,0.62852 -0.57039,1.52226 -0.46555,3.75015 0.0832,1.76766 0.15209,2.22203 0.36096,2.37984 0.20138,0.15221 2.9433,0.19508 12.47551,0.19508 10.78636,0 12.28978,0.0291 12.83549,0.24731 0.92743,0.37108 1.17844,0.85501 1.18083,2.27659 0.002,1.32476 -0.30455,1.97558 -1.0264,2.17751 -0.20687,0.0579 -5.928,0.11221 -12.71366,0.12076 -10.38749,0.0131 -12.38551,0.0506 -12.64053,0.23692 -0.28807,0.21049 -0.30514,0.48342 -0.34791,5.56011 -0.0407,4.83635 -0.02,5.36621 0.21927,5.63072 0.24928,0.27546 0.61849,0.29297 6.5213,0.30937 3.44135,0.01 8.62159,0.0621 11.51158,0.11703 l 5.25456,0.0996 0.40421,0.37999 c 0.52105,0.48978 0.76248,1.40538 0.63575,2.41121 -0.16217,1.28696 -0.3775,1.7974 -0.86447,2.04924 -0.48526,0.25094 -0.33728,0.25032 -19.06128,0.0784 z m 75.71483,-0.0204 c -0.49673,-0.20073 -1.06556,-0.7306 -1.32177,-1.23127 -0.15697,-0.30669 -0.21222,-3.66683 -0.25829,-15.70982 l -0.0586,-15.31967 0.36998,-0.39405 c 0.22327,-0.23779 0.67498,-0.45946 1.13909,-0.55899 1.00744,-0.21607 17.25316,-0.22051 19.52214,-0.005 4.81765,0.45686 9.13054,2.39462 11.915,5.35333 1.87705,1.9945 3.0245,4.17192 3.68496,6.99265 0.29443,1.25728 0.34177,1.90826 0.33891,4.66056 -0.005,2.70546 -0.0548,3.42043 -0.33629,4.63327 -0.67862,2.92363 -1.74425,4.99648 -3.54152,6.88899 -2.74315,2.88855 -6.46471,4.39219 -11.44653,4.62478 -3.62536,0.16925 -19.62074,0.22168 -20.00708,0.0656 z m 18.49251,-5.19862 c 2.32716,-0.37117 4.18106,-0.93563 5.98813,-1.8232 4.36672,-2.14479 6.17766,-6.09698 5.24483,-11.44613 -0.958,-5.49379 -4.69717,-8.64185 -11.49479,-9.67767 -2.22169,-0.33854 -6.10508,-0.44531 -10.25331,-0.28191 l -3.4926,0.13758 -0.4244,0.47498 c -0.36403,0.40737 -0.43936,0.66153 -0.52951,1.78615 -0.10244,1.27808 0.10806,13.0963 0.30831,17.30688 0.15883,3.34008 0.36904,3.59607 3.09041,3.76322 2.94544,0.18092 9.81849,0.0382 11.56293,-0.2399 z m 30.63727,5.21895 c -8.6864,-0.0797 -8.85278,-0.0871 -9.28497,-0.40987 -0.24438,-0.18253 -0.51271,-0.5875 -0.60339,-0.91069 -0.25318,-0.90229 -0.18409,-31.05255 0.0717,-31.36093 0.52366,-0.63094 0.78216,-0.64136 14.76001,-0.59596 l 13.42083,0.0436 0.61031,0.42456 c 1.04597,0.72763 1.57136,2.21677 1.18992,3.37262 -0.10265,0.31108 -0.33904,0.65284 -0.52528,0.75947 -0.25803,0.14772 -3.11818,0.21243 -12.01645,0.2719 -11.38984,0.076 -11.68338,0.0856 -11.90244,0.38531 -0.45941,0.62853 -0.57037,1.52227 -0.46555,3.75015 0.0833,1.76767 0.1521,2.22203 0.36096,2.37986 0.20137,0.1522 2.94329,0.19508 12.47551,0.19508 10.78634,0 12.2898,0.029 12.83551,0.2473 0.9274,0.37108 1.17843,0.855 1.18078,2.27659 0,1.32476 -0.30452,1.97559 -1.02639,2.17751 -0.20684,0.0578 -5.92799,0.11221 -12.71364,0.12076 -10.38746,0.0131 -12.3855,0.0506 -12.64052,0.23692 -0.28802,0.2105 -0.30518,0.48343 -0.34791,5.56009 -0.0409,4.83636 -0.0199,5.36623 0.21926,5.63074 0.24927,0.27546 0.61848,0.29296 6.5213,0.30937 3.44137,0.01 8.62156,0.0621 11.51158,0.11703 l 5.25456,0.0996 0.40426,0.37997 c 0.52104,0.4898 0.76244,1.40539 0.63567,2.41123 -0.16212,1.28696 -0.37744,1.79741 -0.86444,2.04925 -0.48527,0.25092 -0.33727,0.25031 -19.06127,0.0784 z M 98.29165,295.39298 c -1.0623,-0.38777 -1.82658,-1.22812 -2.78496,-3.06221 -0.98864,-1.89198 -1.48244,-2.39739 -2.48993,-2.54847 -0.38505,-0.0577 -5.14623,-0.0791 -10.58037,-0.0475 -11.24867,0.0654 -10.30799,-0.0596 -11.22599,1.49275 -0.29389,0.497 -0.8352,1.41235 -1.20288,2.0341 -1.16322,1.967 -1.78551,2.31103 -3.97983,2.20022 -1.78654,-0.0903 -2.47851,-0.81388 -2.10491,-2.20136 0.0878,-0.32595 1.81701,-3.27659 3.84273,-6.55701 9.91443,-16.05511 11.79642,-19.2024 13.09023,-21.89106 1.042,-2.16538 1.2757,-2.41047 2.29718,-2.40929 0.83633,7.5e-4 1.41079,0.49156 2.21881,1.89478 3.23805,5.62323 12.92235,21.59748 15.24074,25.1396 0.94036,1.43672 1.77529,2.84076 1.8554,3.12008 0.25655,0.89448 0.17948,2.22818 -0.15244,2.63839 -0.27267,0.33701 -0.42904,0.3713 -1.83364,0.40216 -1.06362,0.0234 -1.73675,-0.0397 -2.19014,-0.20518 z m -7.7826,-10.51452 c 0.25374,-0.0964 0.40031,-0.27179 0.40031,-0.47886 0,-0.29803 -1.57019,-3.04745 -5.81602,-10.18394 -1.26767,-2.13076 -1.6182,-2.61325 -1.87068,-2.57493 -0.19912,0.0303 -0.64426,0.57793 -1.23962,1.52519 -1.96756,3.13059 -6.20102,10.11642 -6.461,10.66159 -0.2613,0.54796 -0.26075,0.58541 0.0128,0.88763 0.27866,0.30791 0.45798,0.31552 7.42977,0.31552 4.26425,0 7.30558,-0.0613 7.54451,-0.1522 z m 15.5809,10.46873 c -0.27663,-0.17561 -0.54207,-0.47946 -0.58984,-0.67525 -0.0477,-0.19578 -0.0672,-7.21535 -0.0432,-15.59901 0.0436,-15.2184 0.0442,-15.24377 0.37207,-15.68361 0.18063,-0.24231 0.56059,-0.57649 0.84437,-0.74266 0.49011,-0.28698 0.9659,-0.30556 9.50309,-0.37122 11.52387,-0.0885 13.44329,0.0759 16.19314,1.38852 2.75553,1.31526 4.10804,3.55136 4.10804,6.79184 0,2.31019 -0.85684,4.18309 -2.76906,6.05275 l -0.9402,0.91928 0.72324,0.38419 c 2.44957,1.30122 4.73349,3.15462 5.65278,4.58722 1.45706,2.27061 1.43314,5.45113 -0.0609,8.09337 -0.61407,1.08601 -2.57497,3.03831 -3.74263,3.72616 -0.49204,0.28988 -1.36805,0.70186 -1.94669,0.9155 l -1.05206,0.38848 -12.87459,0.0718 c -12.76519,0.0712 -12.87888,0.0692 -13.3776,-0.24742 z m 19.30771,-4.85175 c 5.60879,-0.14174 6.2318,-0.22546 7.58667,-1.01947 0.5288,-0.30989 0.79845,-0.60628 1.03201,-1.13426 0.40055,-0.90551 0.42179,-2.36322 0.0476,-3.27176 -0.47232,-1.14702 -2.2771,-2.52907 -5.41797,-4.14895 -1.63981,-0.84571 -1.72743,-0.8265 -9.33453,2.04778 -7.58102,2.86441 -7.96648,3.02148 -8.24819,3.36091 -0.5198,0.62632 -0.3061,2.89473 0.34056,3.6151 0.1864,0.20767 0.5847,0.44464 0.88511,0.52665 0.68313,0.18644 6.27566,0.19669 13.10868,0.024 z m -11.21985,-10.28255 c 9.28277,-3.58267 14.981,-6.10516 16.03225,-7.09717 1.10095,-1.03889 1.39635,-2.35961 0.81444,-3.64131 -0.50496,-1.11221 -1.77342,-1.75055 -4.29412,-2.16098 -1.86514,-0.30369 -7.90496,-0.45861 -12.15142,-0.31168 -3.17369,0.10982 -3.4328,0.14085 -3.7979,0.45491 l -0.39185,0.33704 -0.0264,6.61673 c -0.0266,6.66696 -1.6e-4,7.03095 0.5099,7.03095 0.0671,0 1.55439,-0.55282 3.30504,-1.22849 z m -75.98956,14.9337 c -3.11253,-0.39013 -6.49054,-1.60179 -8.85867,-3.17748 -1.43584,-0.95538 -3.41325,-2.81957 -4.18187,-3.94245 -0.85766,-1.25294 -0.71005,-2.53802 0.43078,-3.75058 0.65379,-0.69488 1.20145,-0.96203 1.97224,-0.96203 0.83065,0 1.30924,0.2645 2.26281,1.25054 2.27786,2.35544 5.57852,4.13397 8.80943,4.74686 1.45674,0.27634 4.22531,0.31571 5.85981,0.0834 3.65284,-0.51931 7.3214,-2.04734 9.3139,-3.87946 l 0.8275,-0.76089 0.10438,-2.47583 c 0.0574,-1.36171 0.11096,-9.04188 0.11903,-17.06704 0.01,-9.58668 0.0703,-14.79185 0.17712,-15.17617 0.19852,-0.71482 0.68695,-0.99864 2.05114,-1.19182 1.79902,-0.25479 3.01987,0.11154 3.78317,1.13517 0.32086,0.43026 0.32173,0.48313 0.31241,18.91804 l -0.01,18.48655 -1.31713,1.33324 c -1.99628,2.0207 -3.62374,3.26698 -5.37458,4.11574 -2.6135,1.26694 -5.1735,1.96646 -8.5379,2.33294 -1.79097,0.19509 -6.12205,0.18464 -7.7442,-0.0187 z"
         style="fill:#5d4d31;fill-opacity:1"
         id="path3918" />
      <g
         id="g3787">
        <path
           style="fill:#5d4d31;fill-opacity:1"
           d="m 209.18733,377.13421 c -0.6895,-0.0868 -1.17495,-0.40327 -1.43557,-0.93593 l -0.17506,-0.35777 -0.0412,-2.26553 c -0.0226,-1.24585 -0.0349,-2.8371 -0.0269,-3.53591 0.008,-0.69881 0.0151,-4.74634 0.0157,-8.99437 0,-6.03875 -0.0163,-7.78587 -0.081,-8.00852 -0.12343,-0.42623 -0.34004,-0.55805 -0.91575,-0.55712 -0.86071,0 -4.88157,0.22581 -6.39737,0.3572 -2.55508,0.22145 -3.27067,0.1696 -3.7239,-0.26965 -0.39894,-0.38667 -0.60956,-1.28505 -0.62559,-2.66836 -0.005,-0.54075 0.0142,-0.66791 0.15117,-0.94144 0.0871,-0.17387 0.23168,-0.369 0.32126,-0.43351 0.37358,-0.26916 1.29948,-0.27674 5.14767,-0.0422 0.7697,0.0473 4.4206,0.0784 10.09986,0.0871 11.13015,0.0172 11.1952,0.0208 11.48718,0.67879 0.10847,0.24427 0.13821,0.47829 0.16225,1.27654 0.0359,1.19162 -0.0214,1.45377 -0.40068,1.83306 -0.44886,0.44883 -0.39097,0.44432 -4.40689,0.3427 -1.95322,-0.0494 -4.08416,-0.0901 -4.73547,-0.0903 -1.10298,-3.6e-4 -1.19686,0.009 -1.36835,0.13697 l -0.18417,0.13734 -0.0201,2.82743 c -0.0112,1.55512 0.0117,3.94174 0.0508,5.30361 0.039,1.36179 0.11367,3.91285 0.16584,5.66897 0.22667,7.63149 0.23621,8.24076 0.13802,8.80238 -0.0507,0.28983 -0.13789,0.61535 -0.19372,0.72335 -0.12892,0.24927 -0.50298,0.5793 -0.79501,0.70125 -0.47259,0.19748 -1.55357,0.30685 -2.21284,0.22387 z m 357.06461,-0.51213 c -0.33721,-0.08 -1.10819,-0.58073 -1.39353,-0.90496 -0.48404,-0.5499 -2.16804,-2.81828 -4.09436,-5.51518 -1.04954,-1.46936 -2.02105,-2.78152 -2.15894,-2.91592 -0.13788,-0.1344 -0.31542,-0.24433 -0.3945,-0.24433 -0.14682,0 -5.40651,2.07684 -6.33691,2.50228 -0.2824,0.1291 -1.31184,0.6609 -2.28772,1.18182 l -1.77424,0.94709 0.0511,0.27451 c 0.0279,0.15092 0.0718,0.84702 0.0975,1.54662 0.0391,1.07097 0.0295,1.32889 -0.0575,1.63073 -0.27186,0.93521 -1.24624,1.45421 -2.7155,1.44641 -1.00143,-0.007 -1.49919,-0.21894 -1.74679,-0.74968 -0.12456,-0.26671 -0.13046,-0.47758 -0.16925,-6.01056 -0.0223,-3.15375 -0.0718,-8.82758 -0.10964,-12.60846 -0.0383,-3.78096 -0.0503,-7.11645 -0.0264,-7.41221 0.0567,-0.69974 0.27665,-1.1573 0.64706,-1.34513 0.52002,-0.26378 2.97228,-0.27852 11.66737,-0.07 4.26424,0.10218 4.69027,0.12088 6.09251,0.26637 5.45861,0.56642 7.99601,2.47038 8.56024,6.42299 0.48172,3.37447 -0.25638,5.77304 -2.31222,7.51442 -0.7093,0.60075 -1.54427,1.10516 -3.06277,1.85032 -1.4375,0.70532 -1.81685,0.97905 -1.81685,1.31071 0,0.41693 2.38523,3.25861 5.27668,6.28647 1.84941,1.93665 2.14983,2.38475 2.15095,3.20788 0,0.55061 -0.13158,0.9385 -0.37447,1.09772 -0.12193,0.0799 -0.40425,0.1261 -1.02074,0.16701 -0.46872,0.0307 -1.17466,0.0856 -1.56893,0.12123 -0.79891,0.0721 -0.8266,0.0721 -1.12216,0 z m -14.84217,-11.175 c 4.3244,-1.70419 8.79962,-3.50543 9.88267,-3.9778 1.31056,-0.57157 2.2523,-1.18218 3.05823,-1.98314 0.88397,-0.87848 1.15702,-1.60927 1.08082,-2.89173 -0.071,-1.1985 -0.34966,-1.92027 -0.98738,-2.56051 -0.61298,-0.61541 -1.38548,-0.96468 -2.67385,-1.20894 -0.68544,-0.12997 -0.99855,-0.13769 -7.16766,-0.17811 -3.54792,-0.0236 -6.5443,-0.0186 -6.65848,0.0107 -0.28854,0.0733 -0.52434,0.37787 -0.58059,0.74974 -0.0679,0.45083 0.0311,11.23751 0.10804,11.77739 0.0798,0.55719 0.23028,0.86404 0.52298,1.06517 0.19445,0.13375 0.27952,0.14935 0.67849,0.12453 0.39786,-0.0243 0.74752,-0.14327 2.73673,-0.9272 z M 82.352629,376.44791 c -0.968914,-0.0895 -1.722049,-0.18854 -2.476104,-0.32573 -8.63708,-1.57072 -15.391659,-7.82298 -17.011232,-15.74632 -0.363749,-1.77943 -0.480114,-4.09288 -0.293777,-5.83977 0.767417,-7.19512 5.203852,-13.18181 11.994452,-16.18585 1.84075,-0.81434 3.809521,-1.34191 6.287983,-1.68496 0.830893,-0.11501 4.468691,-0.11444 5.440893,0 5.590026,0.66299 9.879126,2.57031 13.343926,5.93405 4.47666,4.34616 6.5372,10.63441 5.58911,17.05648 -0.91594,6.20433 -4.75307,11.45243 -10.49477,14.35384 -2.71034,1.36958 -5.56969,2.15716 -8.757245,2.41222 -0.762763,0.0608 -3.062809,0.077 -3.623236,0.025 z M 85.8713,371.5344 c 6.95087,-0.63143 12.31765,-4.79613 13.80842,-10.71557 0.37565,-1.49162 0.42491,-1.93121 0.4271,-3.81186 0.003,-2.2799 -0.18459,-3.52175 -0.8205,-5.44087 -1.04937,-3.16698 -3.06447,-5.86424 -5.73208,-7.67249 -3.5716,-2.4211 -8.319596,-3.17563 -13.242484,-2.10453 -1.568082,0.34127 -2.68723,0.73343 -4.181937,1.46579 -4.534092,2.22133 -7.370748,6.07488 -8.084605,10.98274 -0.140802,0.96817 -0.189067,2.73431 -0.09969,3.64899 0.321524,3.29136 1.667775,6.24604 3.915379,8.59311 3.491845,3.64641 8.725812,5.53464 14.010432,5.05469 z m 408.78376,4.8819 c -3.19419,-0.30435 -6.39284,-1.42024 -8.88652,-3.09996 -1.01834,-0.68593 -1.64832,-1.21122 -2.41698,-2.01533 -2.02296,-2.11596 -3.14281,-4.51918 -3.59412,-7.71283 -0.11563,-0.81798 -0.0972,-2.95061 0.0327,-3.77931 0.62511,-3.98952 2.91491,-7.21644 6.71985,-9.4701 2.92089,-1.73 6.41215,-2.61608 9.83919,-2.4972 3.90436,0.13541 7.93705,1.30071 11.12733,3.2154 1.18742,0.71262 1.60132,1.26066 1.52895,2.02448 -0.0503,0.52708 -0.64044,2.01605 -0.90815,2.28993 -0.41997,0.42951 -0.88596,0.54031 -1.55336,0.36935 -0.55474,-0.14213 -1.0004,-0.39969 -1.78902,-1.03384 -0.87574,-0.7041 -1.48881,-1.09906 -2.3458,-1.511 -2.3822,-1.14506 -5.15548,-1.46084 -8.24282,-0.93877 -4.27972,0.72384 -7.51077,2.77415 -8.97525,5.6952 -0.65161,1.29979 -0.88365,2.3287 -0.88884,3.94168 0,1.27331 0.0943,1.94888 0.4317,2.96478 0.43958,1.32345 1.06087,2.29856 2.15988,3.39014 0.87527,0.86925 1.66005,1.43124 2.77647,1.98828 3.59084,1.79159 8.36027,2.11654 12.21756,0.83257 1.12008,-0.37294 1.99391,-0.82148 3.25802,-1.67257 1.28111,-0.86262 1.5185,-0.98378 1.93144,-0.98579 0.50814,0 0.7887,0.25858 2.32027,2.1571 0.28041,0.3477 0.27091,0.53574 -0.0487,0.96125 -0.14331,0.19075 -0.2614,0.38051 -0.26237,0.42171 0,0.0802 -0.38844,0.36743 -1.52384,1.13205 -3.10466,2.09129 -5.8512,3.05589 -9.51227,3.34093 -0.97549,0.0759 -2.55288,0.0722 -3.39519,-0.008 z M 149.2072,376.25479 c -2.86765,-0.24555 -4.77868,-0.82284 -6.51604,-1.96863 -0.38101,-0.25127 -0.91342,-0.72463 -1.70609,-1.51678 -1.46961,-1.46872 -1.47523,-1.48832 -0.81059,-2.82809 0.66549,-1.34147 1.16724,-1.83143 1.86321,-1.81941 0.54016,0.009 0.75129,0.13124 1.57111,0.90695 1.52311,1.44127 3.15647,2.32461 5.07711,2.74576 0.68691,0.15071 2.81256,0.17059 3.58382,0.0336 1.2536,-0.22251 2.52092,-0.61785 3.42093,-1.06695 0.65879,-0.32874 1.49874,-0.88429 1.78118,-1.17798 l 0.21733,-0.2261 0.0637,-1.35956 c 0.0368,-0.78543 0.055,-4.96386 0.0433,-9.89553 l -0.0204,-8.53596 0.16289,-0.32573 c 0.26941,-0.53867 0.59074,-0.69101 1.72675,-0.8187 1.6385,-0.18424 2.59487,0.20042 2.87354,1.15573 0.10228,0.35062 0.10753,0.88708 0.0684,7.02596 -0.0232,3.6555 -0.0617,8.4743 -0.0851,10.70843 l -0.0425,4.06191 -1.11381,1.12876 c -1.22935,1.24563 -1.84664,1.73437 -2.82692,2.23792 -1.39472,0.7164 -2.81423,1.13877 -4.76955,1.41915 -0.65371,0.0937 -3.86544,0.17482 -4.56207,0.11523 z m 89.63891,-0.0557 c -3.67596,-0.46678 -6.77435,-1.94758 -9.27044,-4.43084 -2.68595,-2.67215 -4.00982,-5.84942 -4.01928,-9.64626 -0.005,-2.3505 0.39737,-4.11421 1.41519,-6.19025 2.09688,-4.27693 6.32971,-7.20342 11.40761,-7.88708 1.66841,-0.22459 4.39573,-0.10964 6.23116,0.26272 5.7471,1.16588 9.80577,4.84648 11.09645,10.06284 0.32045,1.29519 0.42863,2.2284 0.42863,3.69898 0,2.23105 -0.39479,3.98287 -1.3334,5.91724 -2.09971,4.32713 -6.40252,7.35798 -11.56837,8.14843 -0.94953,0.14527 -3.45968,0.18196 -4.38755,0.0644 z m 3.33126,-4.46968 c 4.03371,-0.43939 7.18464,-2.56172 8.5263,-5.74293 0.84401,-2.00116 0.91296,-4.55 0.18596,-6.87196 -0.53827,-1.71921 -1.43911,-3.16813 -2.68841,-4.3242 -2.26122,-2.09258 -5.34979,-2.9265 -9.00752,-2.43211 -4.09742,0.55375 -7.1704,2.88401 -8.30786,6.29983 -0.36296,1.08991 -0.45177,1.72214 -0.45007,3.20331 0,1.40993 0.0918,2.03113 0.4551,3.13449 1.45399,4.41605 6.25682,7.28138 11.2865,6.73357 z m 26.92496,4.52176 c -1.7074,-0.16737 -2.97467,-0.40041 -4.2058,-0.77349 -1.84088,-0.55791 -3.71641,-1.48982 -5.15908,-2.56337 -1.01064,-0.75224 -1.2228,-1.09606 -1.18145,-1.91497 0.0456,-0.90166 0.64517,-1.80511 1.62545,-2.44907 0.72293,-0.47492 1.33078,-0.56562 1.72291,-0.25721 0.0902,0.0707 0.33551,0.35435 0.54512,0.62965 0.94165,1.23705 2.31705,2.15102 4.02122,2.67238 1.34861,0.41256 2.41893,0.5574 4.13031,0.55905 1.13402,0 1.44667,-0.0208 2.0697,-0.14685 1.64726,-0.33238 3.03496,-1.00101 3.83156,-1.84624 0.62341,-0.66134 0.87544,-1.2869 0.87544,-2.17276 0,-1.47487 -0.74722,-2.57345 -2.23677,-3.28864 -1.27553,-0.61241 -2.72282,-0.92447 -5.45218,-1.17553 -0.80635,-0.0743 -1.64203,-0.16437 -1.85706,-0.20042 -3.3839,-0.56799 -5.79375,-2.0415 -7.02708,-4.2968 -0.30762,-0.56256 -0.66693,-1.66206 -0.76377,-2.33712 -0.12517,-0.87263 -0.0481,-2.3214 0.1607,-3.02457 0.59651,-2.00824 1.96116,-3.58955 3.99142,-4.62511 2.04058,-1.04086 4.36834,-1.41171 7.06438,-1.12554 2.02633,0.21508 3.83536,0.75911 5.46233,1.64274 0.66056,0.35877 2.78865,1.7798 3.39534,2.26725 0.7524,0.60446 0.9985,1.16072 0.74754,1.68966 -0.13392,0.28217 -1.34303,1.42961 -1.76673,1.67659 -0.60824,0.35448 -1.50482,0.40341 -2.25453,0.12288 -0.31076,-0.11623 -0.4312,-0.21566 -0.81161,-0.66977 -0.70688,-0.84373 -1.40937,-1.35464 -2.43628,-1.77186 -1.15066,-0.46749 -2.39487,-0.68615 -3.90465,-0.68636 -2.58757,-2.9e-4 -4.2699,0.72084 -4.96179,2.12697 -0.21285,0.43252 -0.21841,0.46485 -0.21723,1.25958 0,0.95954 0.0967,1.34348 0.48133,1.93851 0.73007,1.12962 2.21808,1.73537 4.92576,2.00531 4.81843,0.4803 7.71118,1.28012 9.53789,2.63711 1.75596,1.30442 2.56734,3.245 2.46615,5.89842 -0.0738,1.9358 -0.74522,3.5073 -2.09784,4.9103 -1.78814,1.85496 -4.41317,2.97012 -7.69074,3.26739 -0.66409,0.0601 -2.50336,0.0735 -3.02996,0.0222 z m 114.35506,-0.14678 c -0.8077,-0.11309 -1.35986,-0.41349 -1.6146,-0.87856 -0.10187,-0.18596 -0.10894,-0.58044 -0.0885,-4.95877 0.0121,-2.61623 -0.0245,-9.09638 -0.0817,-14.40048 -0.0572,-5.30405 -0.11111,-11.3737 -0.11992,-13.48816 -0.0147,-3.52211 -0.005,-3.88003 0.10052,-4.26806 0.15591,-0.56656 0.38223,-0.89522 0.71897,-1.04408 0.26084,-0.11529 0.70275,-0.12038 10.60012,-0.12244 8.69923,0 10.46663,0.0128 11.20758,0.0945 3.87274,0.42536 6.72169,1.59611 8.70364,3.57653 1.46811,1.46708 2.25331,3.132 2.50735,5.3167 0.1179,1.01382 0.049,2.47689 -0.15342,3.2561 -0.74085,2.85254 -2.7099,5.11685 -6.75698,7.77027 -1.31063,0.85932 -2.82624,1.75747 -5.60379,3.32097 -4.18855,2.35772 -6.93463,3.79962 -11.14243,5.85071 -1.41561,0.69009 -2.7575,1.38461 -2.98199,1.5434 -0.48874,0.34575 -1.01994,0.96467 -1.23988,1.44469 l -0.16006,0.34933 0.0244,2.68489 0.0243,2.68502 -0.19546,0.31601 c -0.24153,0.39032 -0.79101,0.71255 -1.44294,0.84616 -0.55753,0.11415 -1.82739,0.17223 -2.30525,0.10528 z m 6.00741,-14.38267 c 1.3153,-0.42915 10.56757,-5.35797 15.43181,-8.22074 1.9799,-1.16524 2.68653,-1.67049 3.25802,-2.32946 0.96435,-1.11203 1.50985,-2.0584 1.64033,-2.8459 0.0823,-0.49703 -0.0582,-1.91297 -0.27534,-2.77487 -0.54024,-2.14386 -2.2113,-3.41624 -4.88365,-3.71851 -0.34047,-0.0386 -2.80353,-0.0996 -5.47347,-0.13576 -2.66996,-0.0365 -5.19166,-0.0796 -5.60381,-0.0965 -1.26937,-0.0522 -4.7957,0.0771 -5.27711,0.19334 -1.06055,0.25614 -1.42438,0.79309 -1.56162,2.30472 -0.0352,0.38697 -0.0689,4.20497 -0.0766,8.67343 -0.0138,7.91568 -0.0128,7.98456 0.11935,8.27539 0.17285,0.38046 0.51557,0.70154 0.87393,0.81877 0.40631,0.13289 1.16221,0.0734 1.82817,-0.14392 z m 32.17803,14.37981 c -0.44798,-0.0279 -0.90247,-0.0804 -1.00999,-0.11595 -0.53647,-0.17809 -0.8783,-0.39782 -1.33702,-0.85967 -0.55719,-0.56083 -0.92023,-1.19212 -1.20167,-2.08957 -0.3591,-1.145 -0.35284,-0.93714 -0.36863,-12.25011 -0.008,-5.75208 0.007,-10.57553 0.0345,-10.71887 0.24541,-1.30236 0.84703,-1.92227 1.86547,-1.92227 0.47858,0 1.91595,0.29268 2.17208,0.44224 0.22741,0.13283 0.46187,0.5522 0.57238,1.02391 0.0558,0.23775 0.0874,3.11675 0.11701,10.6537 0.0314,7.99658 0.059,10.38264 0.12203,10.57025 0.10836,0.32258 0.37618,0.63114 0.6598,0.76025 0.20786,0.0945 1.11314,0.10844 8.99517,0.13776 l 8.76408,0.0322 0.36355,0.14705 c 0.4763,0.1927 0.87018,0.53702 1.08888,0.95159 0.15954,0.30249 0.17658,0.40091 0.17658,1.01896 0,0.57952 -0.0218,0.72507 -0.14277,0.9511 -0.4733,0.88442 -1.31284,1.10579 -4.54877,1.19949 -2.77846,0.0805 -15.29178,0.13218 -16.32269,0.0672 z m -244.48181,-0.0746 c -10.28432,-0.0707 -9.59663,-0.0515 -10.05155,-0.2753 -0.46445,-0.2281 -0.665,-0.48373 -0.80403,-1.0249 -0.0988,-0.38467 -0.10407,-1.13012 -0.0631,-8.89066 0.0269,-5.10283 0.0183,-10.04094 -0.0217,-12.41983 -0.0443,-2.62996 -0.0447,-4.02765 0,-4.18452 0.0971,-0.35176 0.3476,-0.60561 0.76322,-0.77348 l 0.37198,-0.15028 11.38149,-0.0172 11.38149,-0.0172 0.36594,0.1369 c 0.51183,0.19148 1.08073,0.73208 1.35398,1.28662 0.18765,0.3808 0.21527,0.50584 0.23287,1.05294 0.0174,0.54439 0,0.6564 -0.13033,0.91018 -0.17336,0.33388 -0.38064,0.50354 -0.74177,0.60697 -0.18135,0.0522 -3.07849,0.0839 -9.97603,0.10972 l -9.72044,0.0365 -0.18355,0.13704 c -0.10093,0.0754 -0.257,0.27975 -0.34684,0.45413 -0.15626,0.30342 -0.16417,0.37486 -0.18337,1.65491 -0.0263,1.74345 0.0547,2.96419 0.20659,3.11604 0.1038,0.10385 0.82509,0.1135 10.68129,0.14391 l 10.56998,0.0329 0.35376,0.14478 c 0.79311,0.32466 1.08181,0.85374 1.07656,1.97299 -0.005,1.04127 -0.1716,1.42887 -0.74614,1.73537 -0.21925,0.11694 -0.64034,0.12295 -10.88178,0.15421 -8.70123,0.0265 -10.68162,0.0486 -10.80587,0.11929 -0.33655,0.19184 -0.33659,0.1922 -0.33659,4.89134 0,4.77081 -0.0222,4.48842 0.36722,4.63649 0.0834,0.0314 3.09163,0.0756 6.68512,0.0974 3.59349,0.0222 7.91176,0.0615 9.59615,0.0874 3.43705,0.0537 3.42073,0.0508 3.8355,0.53573 0.37107,0.43352 0.4902,1.09928 0.37128,2.07534 -0.11353,0.93213 -0.33104,1.35041 -0.81843,1.5743 -0.30085,0.13811 -0.78415,0.1399 -13.7814,0.0508 z m 124.86845,-0.0193 c -0.59723,-0.1924 -1.02386,-0.57829 -1.30396,-1.1794 l -0.18217,-0.39097 0.0171,-5.37569 c 0.009,-2.9567 -0.008,-8.52552 -0.039,-12.37535 -0.0309,-3.84977 -0.0315,-7.13098 0,-7.29169 0.0991,-0.53023 0.49589,-0.8875 1.17297,-1.05588 0.57027,-0.14183 3.49645,-0.17888 9.89389,-0.12523 6.7961,0.0572 7.12223,0.0707 8.67464,0.35826 2.74953,0.50985 5.46899,1.70034 7.28966,3.1913 0.50638,0.41464 1.44131,1.35643 1.84542,1.85884 1.02542,1.27509 1.83548,2.96176 2.2628,4.71172 0.35803,1.46622 0.41874,2.05195 0.41963,4.04911 0,1.92463 -0.0445,2.44233 -0.33616,3.84447 -1.12686,5.41569 -5.01942,8.76291 -11.142,9.58096 -0.60231,0.0806 -1.81272,0.1153 -5.5279,0.15864 -10.95196,0.1281 -12.75522,0.13375 -13.04354,0.0408 z m 14.44448,-4.23558 c 5.52626,-0.64559 8.81784,-2.38375 10.2321,-5.40331 0.64827,-1.3841 0.85716,-3.11733 0.61792,-5.12679 -0.2773,-2.32919 -1.06926,-4.05019 -2.53529,-5.50939 -2.11027,-2.10038 -5.30341,-3.16726 -10.24873,-3.42412 -1.27169,-0.0658 -5.35063,-0.0157 -7.94312,0.0983 -0.93114,0.0407 -1.44273,0.4024 -1.59436,1.12647 -0.15568,0.74351 0.0485,13.46377 0.2605,16.2314 0.10332,1.34814 0.43478,1.80455 1.42539,1.96269 1.29647,0.20699 8.12934,0.23825 9.78559,0.0451 z m 29.58282,4.25489 c -10.28432,-0.0707 -9.59661,-0.0515 -10.05154,-0.27522 -0.46442,-0.22811 -0.66501,-0.48374 -0.80399,-1.02491 -0.0989,-0.38467 -0.10413,-1.13019 -0.0632,-8.89066 0.0269,-5.10283 0.0183,-10.04094 -0.0217,-12.41983 -0.0442,-2.62996 -0.0447,-4.02765 0,-4.18451 0.0971,-0.35177 0.34755,-0.60561 0.76317,-0.77349 l 0.37201,-0.15035 11.38149,-0.0172 11.38147,-0.0172 0.36593,0.13697 c 0.51183,0.19148 1.08072,0.73208 1.35398,1.28662 0.18765,0.38081 0.21528,0.50576 0.23286,1.05294 0.0175,0.54439 0.002,0.65633 -0.13032,0.91018 -0.17335,0.33388 -0.38066,0.50355 -0.74175,0.60697 -0.18137,0.0522 -3.0785,0.0839 -9.97605,0.10972 l -9.72044,0.0365 -0.18354,0.13704 c -0.10094,0.0753 -0.25701,0.27976 -0.34683,0.45413 -0.15626,0.30341 -0.16418,0.37479 -0.18335,1.65483 -0.0263,1.74353 0.0547,2.96427 0.20659,3.11612 0.10376,0.10378 0.82507,0.11351 10.68125,0.14391 l 10.56999,0.0329 0.35376,0.14477 c 0.79311,0.32458 1.0818,0.85367 1.07654,1.97292 -0.005,1.04127 -0.17158,1.42894 -0.74613,1.73544 -0.21924,0.11694 -0.64033,0.12288 -10.88178,0.1542 -8.70122,0.0265 -10.68161,0.0486 -10.80586,0.11931 -0.33655,0.19176 -0.33655,0.19212 -0.33655,4.89133 0,4.77082 -0.0223,4.48842 0.36719,4.63641 0.0833,0.0314 3.09162,0.0756 6.68513,0.0974 3.59347,0.0222 7.91173,0.0615 9.59614,0.0874 3.43702,0.0537 3.42072,0.0508 3.83549,0.5358 0.37105,0.43345 0.49017,1.09929 0.37128,2.07535 -0.11353,0.93212 -0.33102,1.35041 -0.81843,1.57422 -0.30087,0.13819 -0.78415,0.13998 -13.78141,0.0508 z m 177.8879,0 c -10.28429,-0.0707 -9.59662,-0.0515 -10.05153,-0.27522 -0.46448,-0.22811 -0.66501,-0.48381 -0.80401,-1.02491 -0.0988,-0.38467 -0.10413,-1.13026 -0.0631,-8.89066 0.0271,-5.1029 0.0183,-10.04101 -0.0215,-12.41983 -0.0447,-2.63003 -0.0447,-4.02772 0,-4.18459 0.0971,-0.35169 0.34759,-0.60553 0.76316,-0.77348 l 0.372,-0.15028 11.38147,-0.0172 11.38155,-0.0172 0.36586,0.1369 c 0.51188,0.19155 1.08075,0.73208 1.35404,1.28669 0.18759,0.38081 0.21529,0.50576 0.23284,1.05287 0.0176,0.54446 0,0.6564 -0.13031,0.91017 -0.17339,0.33396 -0.3807,0.50355 -0.74177,0.60698 -0.18137,0.0522 -3.07848,0.0839 -9.97604,0.10972 l -9.72045,0.0365 -0.18354,0.13704 c -0.10093,0.0754 -0.25702,0.27975 -0.34679,0.4542 -0.15631,0.30341 -0.16421,0.37479 -0.18345,1.65483 -0.0264,1.74353 0.055,2.96427 0.2066,3.11612 0.10381,0.10378 0.82515,0.11351 10.68134,0.14391 l 10.56996,0.0329 0.35373,0.14477 c 0.79308,0.32458 1.08186,0.85367 1.07652,1.97292 -0.008,1.04127 -0.17156,1.42894 -0.74609,1.73544 -0.21927,0.11694 -0.64035,0.12288 -10.88179,0.1542 -8.70116,0.0265 -10.68159,0.0486 -10.80583,0.11923 -0.33657,0.19184 -0.33657,0.1922 -0.33657,4.89141 0,4.77074 -0.0223,4.48835 0.36721,4.63649 0.0833,0.0314 3.09157,0.0754 6.68506,0.0973 3.59356,0.0215 7.91183,0.0615 9.59621,0.0876 3.43702,0.0537 3.42066,0.0508 3.83543,0.53573 0.37105,0.43338 0.49018,1.09921 0.37129,2.07527 -0.11347,0.93213 -0.331,1.35041 -0.81838,1.57422 -0.3009,0.13819 -0.78415,0.14005 -13.78147,0.0508 z m -414.00129,-0.0594 c -0.68846,-0.0728 -1.00554,-0.27996 -1.24656,-0.81433 -0.11118,-0.24654 -0.11804,-0.8812 -0.13527,-12.50989 -0.0201,-13.58222 -0.0418,-12.84735 0.39703,-13.50304 0.27335,-0.40841 0.76722,-0.70239 1.33651,-0.79551 0.61058,-0.0998 11.34669,-0.19942 14.18375,-0.13161 1.25432,0.0301 2.57381,0.0852 2.9322,0.12274 4.4639,0.46692 6.73823,1.96704 7.50318,4.94919 0.19826,0.77292 0.27312,2.04516 0.15964,2.71379 -0.17389,1.02476 -0.60899,2.03021 -1.25746,2.90604 -0.38704,0.52272 -1.19884,1.35743 -1.65239,1.69896 -0.32313,0.24333 -0.35445,0.31272 -0.14125,0.31272 0.15659,0 1.74136,0.88814 2.6211,1.46887 1.88987,1.24771 3.09667,2.74075 3.52642,4.36304 0.14768,0.55761 0.1651,2.06797 0.0309,2.6715 -0.3234,1.45264 -0.95278,2.59734 -2.05513,3.73782 -0.99762,1.03221 -2.17712,1.82157 -3.45686,2.31332 -1.16544,0.44797 -0.52404,0.42215 -11.53337,0.46342 -5.48325,0.0208 -10.14549,0.048 -10.36053,0.0594 -0.21502,0.0121 -0.59832,0 -0.85176,-0.0265 z m 12.74352,-4.23567 c 6.02923,-0.0839 7.18328,-0.13447 8.04732,-0.35319 0.84581,-0.21401 1.51122,-0.5512 1.8925,-0.95875 0.37392,-0.39976 0.44717,-0.57779 0.57805,-1.40527 0.0965,-0.61027 0.0967,-0.70762 0,-1.16789 -0.14365,-0.69546 -0.3129,-1.01954 -0.80455,-1.54075 -0.52326,-0.55469 -1.46732,-1.1892 -3.06855,-2.06247 -1.3842,-0.75495 -1.82744,-0.91632 -2.51677,-0.91632 -0.46796,0 -0.61825,0.0493 -4.7987,1.57058 -5.30614,1.93114 -7.51562,2.75277 -8.03232,2.98708 -0.67134,0.30442 -0.85623,0.68859 -0.78557,1.63259 0.087,1.16174 0.36134,1.72464 0.99683,2.04523 0.5045,0.25449 1.26802,0.26966 8.49019,0.16916 z m -8.17763,-7.99973 c 0.46593,-0.18204 1.60946,-0.61427 2.54129,-0.96045 4.01976,-1.4934 9.8084,-3.89569 11.65815,-4.83812 1.46633,-0.74709 2.12188,-1.76413 1.92632,-2.98852 -0.0964,-0.60304 -0.25852,-0.94157 -0.61861,-1.29155 -0.63506,-0.6172 -1.8379,-1.03799 -3.64794,-1.27603 -1.9033,-0.25041 -7.42092,-0.31406 -11.7652,-0.13582 -1.31586,0.0537 -1.46331,0.10914 -1.65845,0.62014 -0.13768,0.3604 -0.14146,0.55531 -0.0735,3.7921 0.04,1.91311 0.0328,3.27226 -0.026,4.76338 -0.0451,1.14756 -0.0623,2.16481 -0.0382,2.26058 0.024,0.0959 0.10498,0.23553 0.17995,0.3105 0.19413,0.19405 0.50267,0.14212 1.522,-0.25621 z m 360.40222,12.25934 c -0.86865,-0.18054 -1.65727,-0.54554 -2.09151,-0.96783 -0.29771,-0.28946 -0.90272,-1.28133 -1.51642,-2.4861 -0.4289,-0.84181 -0.5837,-1.0119 -1.1662,-1.28098 l -0.30841,-0.14248 -8.63373,0.007 c -6.73892,0.007 -8.71791,0.0222 -9.01715,0.0878 -0.48068,0.10416 -0.79588,0.40743 -1.21448,1.16862 -0.50327,0.91489 -1.54825,2.56235 -1.77184,2.79324 -0.43911,0.4534 -1.25951,0.73608 -2.12898,0.73349 -1.50874,-0.007 -2.26887,-0.41678 -2.33953,-1.26873 -0.0468,-0.56469 0.0854,-0.94299 0.63304,-1.8109 0.27628,-0.43788 1.91062,-3.02457 3.63191,-5.74829 4.00618,-6.33953 7.6398,-12.14525 8.59822,-13.73807 0.67363,-1.11967 1.3384,-2.38218 1.97078,-3.74283 0.27808,-0.59845 0.53989,-0.96002 0.78797,-1.08834 0.28615,-0.14792 0.90632,-0.19513 1.30561,-0.0994 0.52688,0.12639 0.76954,0.41901 1.89178,2.28076 1.21838,2.02127 5.7157,9.37525 7.13295,11.66367 3.13378,5.06027 4.40555,7.05129 5.84697,9.1538 0.96823,1.41244 1.1117,1.70333 1.21847,2.47116 0.0968,0.69595 0.088,1.03414 -0.0352,1.34148 -0.20492,0.51221 -0.77977,0.72192 -1.94477,0.70969 -0.3957,-0.007 -0.778,-0.0201 -0.84974,-0.0351 z m -7.28647,-9.05417 c 0.24081,-0.17917 0.25501,-0.32537 0.0662,-0.67929 -0.13126,-0.24619 -4.43181,-7.38101 -5.61532,-9.31631 -0.42891,-0.70131 -0.66023,-0.9774 -0.81894,-0.9774 -0.18034,0 -0.41422,0.22773 -0.61307,0.59674 -0.10311,0.19148 -0.42738,0.71462 -0.72063,1.16259 -0.75287,1.15008 -5.08468,8.09328 -5.24316,8.40378 -0.21592,0.42322 -0.16183,0.72571 0.1619,0.90502 0.0934,0.0515 1.90056,0.0679 6.36469,0.0572 6.22017,-0.0157 6.23477,-0.0157 6.41831,-0.15206 z"
           inkscape:connector-curvature="0"
           id="path27-5" />
        <rect
           style="fill:#5d4d31;fill-opacity:1;stroke:#5d4d31;stroke-width:1.79999995;stroke-linecap:square;stroke-linejoin:round;stroke-miterlimit:4;stroke-opacity:1;stroke-dasharray:none"
           id="rect3761"
           width="23.654079"
           height="3.8723404"
           x="22.723404"
           y="359.58862"
           ry="1.9361702"
           rx="0.91116172" />
        <rect
           style="fill:#5d4d31;fill-opacity:1;stroke:#5d4d31;stroke-width:1.79999995;stroke-linecap:square;stroke-linejoin:round;stroke-miterlimit:4;stroke-opacity:1;stroke-dasharray:none"
           id="rect3761-5"
           width="23.654079"
           height="3.8723404"
           x="586.20032"
           y="359.4397"
           ry="1.9361702"
           rx="0.91116172" />
      </g>
    </g>
  </g>
</svg>
