<?xml version="1.0" encoding="UTF-8" standalone="no"?>
<!-- Created with Inkscape (http://www.inkscape.org/) -->

<svg
   xmlns:dc="http://purl.org/dc/elements/1.1/"
   xmlns:cc="http://creativecommons.org/ns#"
   xmlns:rdf="http://www.w3.org/1999/02/22-rdf-syntax-ns#"
   xmlns:svg="http://www.w3.org/2000/svg"
   xmlns="http://www.w3.org/2000/svg"
   xmlns:sodipodi="http://sodipodi.sourceforge.net/DTD/sodipodi-0.dtd"
   xmlns:inkscape="http://www.inkscape.org/namespaces/inkscape"
   width="800px"
   height="600px"
   id="svg3278"
   version="1.1"
   inkscape:version="0.48.4 r9939"
   sodipodi:docname="proyecto-altia.svg">
  <defs
     id="defs3280" />
  <sodipodi:namedview
     id="base"
     pagecolor="#ffffff"
     bordercolor="#666666"
     borderopacity="1.0"
     inkscape:pageopacity="0.0"
     inkscape:pageshadow="2"
     inkscape:zoom="0.6"
     inkscape:cx="375"
     inkscape:cy="300"
     inkscape:current-layer="layer1"
     inkscape:document-units="px"
     showgrid="false"
     inkscape:window-width="1432"
     inkscape:window-height="711"
     inkscape:window-x="0"
     inkscape:window-y="367"
     inkscape:window-maximized="0" />
  <metadata
     id="metadata3283">
    <rdf:RDF>
      <cc:Work
         rdf:about="">
        <dc:format>image/svg+xml</dc:format>
        <dc:type
           rdf:resource="http://purl.org/dc/dcmitype/StillImage" />
        <dc:title />
      </cc:Work>
    </rdf:RDF>
  </metadata>
  <g
     id="layer1"
     inkscape:label="Layer 1"
     inkscape:groupmode="layer">
    <g
       style="fill:#5d4d31;fill-opacity:1;stroke:#5d4d31;stroke-opacity:1"
       transform="matrix(0.15789437,0,0,0.15789437,736.42965,263.11645)"
       id="g3978">
      <g
         style="fill:#5d4d31;fill-opacity:1;stroke:#5d4d31;stroke-opacity:1"
         id="g3961">
        <path
           id="path3941"
           d="m -1908.3379,819.1714 c -26.9244,-2.7626 -45.7272,-13.8269 -54.5672,-32.1094 -5.9328,-12.27 -6.1028,-13.7448 -6.3246,-54.8757 -0.1112,-20.625 -1.0147,-58.8751 -2.0077,-85.0001 -2.2472,-59.12116 -2.5898,-155.70786 -0.6385,-179.99996 2.1555,-26.8336 2.5128,-236.9454 0.7729,-454.499939 -1.6704,-208.859161 -1.3932,-200.967961 -7.522,-214.123361 -5.3333,-11.448 -13.6684,-17.86386 -28.5763,-21.99667 -8.9623,-2.4845 -45.3892,-2.8798 -93.0002,-1.0092 -21.9999,0.8644 -49.6748,1.8369 -61.4998,2.1611 -49.8246,1.3659 -103.8628,4.56121 -170,10.05227 -41.5605,3.4505 -80.4949,4.2977 -92.0047,2.002 -30.0677,-5.99736 -39.6388,-23.38917 -45.0709,-81.89877 -1.5793,-17.0099 -0.7701,-35.1998 1.9451,-43.7297 5.3762,-16.8891 15.7501,-24.3757 37.5307,-27.0853 9.6788,-1.204 49.2722,-0.6682 81.5998,1.1043 150.9766,8.278 282.8909,12.0614 351.3992,10.0785 133.7394,-3.8709 295.1106,-3.8913 491.1008,-0.062 91.7551,1.7928 121.8326,3.2772 133.5,6.5885 16.9059,4.7981 21.2904,16.1997 22.6573,58.9183 0.446,13.9393 0.2701,22.1198 -0.5806,26.9952 -4.483,25.6916 -16.404,38.2892 -39.3064,41.53741 -4.7389,0.6721 -20.9886,0.6706 -49.174,0 -191.4503,-4.58491 -300.7316,-6.23641 -329.0963,-4.97341 -19.5427,0.8702 -29.2194,2.74231 -38.5099,7.45011 -7.0372,3.56596 -13.3753,10.33306 -16.1791,17.27396 l -2.311,5.721 0.038,137.499961 0.038,137.499939 5.1995,150 c 11.0839,319.7639 16.0954,493.18136 14.8269,513.07476 -1.3299,20.8576 -4.943,35.669 -11.0681,45.3717 -8.8641,14.0417 -28.588,23.7027 -55.0338,26.9562 -12.4002,1.5256 -29.1773,2.0018 -38.1366,1.0825 z"
           style="fill:#5d4d31;fill-opacity:1;stroke:#5d4d31;stroke-opacity:1"
           inkscape:connector-curvature="0" />
        <path
           id="path3939"
           d="m -3946.875,-369.59375 c -2.7364,0.0677 -5.5207,0.29304 -8.3125,0.6875 -13.8762,1.9605 -19.6316,6.0281 -29.0313,20.5 -6.9351,10.6774 -11.7496,20.34605 -21,42.09375 -8.3722,19.6835 -30.2081,63.50319 -44.5937,89.5 -33.5295,60.59206 -246.26,403.77365 -495.875,799.96875 -44.9391,71.32846 -54.0404,85.64675 -73.4687,115.53125 -17.4373,26.8216 -22.025,38.3026 -22,55 0.012,8.2269 0.4069,10.89905 2.2812,15.09375 5.701,12.7593 20.3098,20.4655 44.2812,23.375 13.458,1.6334 48.8524,1.417 58.9376,-0.375 23.6772,-4.2071 41.4564,-13.82385 53.8437,-29.09375 5.2574,-6.4808 56.5157,-91.70234 80.5937,-134 33.4918,-58.8346 43.4045,-67.93275 76.75,-70.53125 24.4835,-1.9079 162.1604,-2.817 454.7813,-3 320.3425,-0.2003 294.7348,-0.70855 313.0313,5.96875 15.1402,5.5256 28.7462,15.0009 38.4374,26.75 2.9374,3.561 8.3735,12.41685 12.0938,19.65625 9.2314,17.9635 12.7895,24.0756 50.7188,87.5 35.9357,60.0907 38.7046,63.9455 53.8437,75.1875 18.1495,13.4775 47.3726,24.6415 72.875,27.875 9.5082,1.2059 43.1731,1.2478 53,0.0625 21.9862,-2.6518 33.1714,-9.6553 37.6875,-23.625 3.8264,-11.8362 0.9904,-38.5192 -6.3125,-59.5 -8.1192,-23.3257 -18.0877,-39.61389 -65.75,-107.34375 -40.7572,-57.9175 -72.2581,-106.7461 -165.8125,-257 -142.0813,-228.1907 -396.7215,-644.35155 -419.1875,-685.09375 -8.2896,-15.0331 -14.1262,-22.56745 -21.25,-27.46875 -7.6646,-5.27337 -18.7046,-8.01214 -30.5625,-7.71875 z m 5.625,282.40625 c 16.5654,-0.106 27.9217,10.421251 50.9062,47.15625 15.2225,24.3292 140.1773,231.13655 204.6563,338.71875 19.4488,32.45 37.9203,64.038 41.0625,70.1875 8.5226,16.6793 9.9347,25.88075 5.3438,35.09375 -5.1924,10.4199 -17.5989,16.7185 -41.375,21 -8.8465,1.593 -27.0192,1.71875 -249.5313,1.71875 -132,0 -247.425,0.306 -256.5,0.6875 -9.2955,0.3909 -19.5565,0.2866 -23.5,-0.25 -21.0208,-2.8601 -34.719,-10.8767 -40.1563,-23.5 -2.6777,-6.217 -2.2136,-19.07475 1.0313,-28.71875 4.2152,-12.5279 8.2469,-19.59505 38.9063,-68.15625 15.9979,-25.339 56.4895,-90.16251 90,-144.0625 82.8397,-133.24364 89.8022,-144.40795 107.4374,-172.34375 41.2559,-65.352699 52.4202,-77.40775 71.7188,-77.53125 z"
           style="fill:#5d4d31;fill-opacity:1;stroke:#5d4d31;stroke-opacity:1"
           inkscape:connector-curvature="0" />
        <path
           id="path3935"
           d="m -330.875,-369.59375 c -2.73645,0.0677 -5.52072,0.29304 -8.3125,0.6875 -13.8762,1.9605 -19.63155,6.0281 -29.03125,20.5 -6.9352,10.6774 -11.7497,20.34605 -21,42.09375 -8.3723,19.6835 -30.20815,63.50319 -44.59375,89.5 -33.5295,60.59206 -246.26017,403.77365 -495.875,799.96875 -44.9391,71.32846 -54.04035,85.64675 -73.4687,115.53125 -17.4374,26.8216 -22.0251,38.3026 -22,55 0.012,8.2269 0.4069,10.89905 2.2812,15.09375 5.701,12.7593 20.3098,20.4655 44.28125,23.375 13.458,1.6334 48.8524,1.417 58.9375,-0.375 23.6772,-4.2071 41.45645,-13.82385 53.84375,-29.09375 5.2574,-6.4808 56.51575,-91.70234 80.59375,-134 33.49183,-58.8346 43.4047,-67.93275 76.75,-70.53125 24.4833,-1.9079 162.16025,-2.817 454.78125,-3 320.342499,-0.2003 294.73475,-0.70855 313.03125,5.96875 15.1403,5.5256 28.74632,15.0009 38.4375,26.75 2.9373,3.561 8.37345,12.41685 12.09375,19.65625 9.2314,17.9635 12.78955,24.0756 50.71875,87.5 35.9357,60.0907 38.70465,63.9455 53.84375,75.1875 18.14946,13.4775 47.37259,24.6415 72.875,27.875 9.5082,1.2059 43.1731,1.2478 53,0.0625 21.9862,-2.6518 33.1714,-9.6553 37.6875,-23.625 3.8264,-11.8362 0.9904,-38.5192 -6.3125,-59.5 -8.1192,-23.3257 -18.0877,-39.61389 -65.75,-107.34375 -40.75721,-57.9175 -72.25814,-106.7461 -165.8125,-257 -142.0812814,-228.1907 -396.7215,-644.35155 -419.1875,-685.09375 -8.2896,-15.0331 -14.1262,-22.56745 -21.25,-27.46875 -7.66456,-5.27337 -18.70456,-8.01214 -30.5625,-7.71875 z m 5.625,282.40625 c 16.5654,-0.106 27.92175,10.421251 50.90625,47.15625 15.2224,24.3292 140.17735,231.13655 204.65625,338.71875 19.4488,32.45 37.9203,64.038 41.0625,70.1875 8.5226,16.6793 9.93475,25.88075 5.34375,35.09375 -5.1924,10.4199 -17.5989,16.7185 -41.375,21 -8.8465,1.593 -27.019151,1.71875 -249.53125,1.71875 -132,0 -247.425,0.306 -256.5,0.6875 -9.2955,0.3909 -19.5565,0.2866 -23.5,-0.25 -21.0208,-2.8601 -34.71895,-10.8767 -40.15625,-23.5 -2.6778,-6.217 -2.21365,-19.07475 1.03125,-28.71875 4.2152,-12.5279 8.24685,-19.59505 38.90625,-68.15625 15.998,-25.339 56.4895,-90.16251 90,-144.0625 82.8397,-133.24364 89.8022,-144.40795 107.4375,-172.34375 41.2558,-65.352699 52.42015,-77.40775 71.71875,-77.53125 z"
           style="fill:#5d4d31;fill-opacity:1;stroke:#5d4d31;stroke-opacity:1"
           inkscape:connector-curvature="0" />
        <path
           id="path3931"
           d="m -2259.3944,796.6383 c -37.8685,-3.4422 -178.4059,-5.3718 -397.8069,-5.4619 -154.1983,-0.063 -331.6617,-1.5254 -356.6674,-2.9384 -37.7705,-2.1343 -58.2066,-10.6346 -81.8667,-34.0517 -26.67,-26.3962 -43.8973,-63.5332 -53.3468,-115.0001 -5.5748,-30.36356 -5.5744,-30.34746 -6.0636,-226.99996 -0.2484,-99.825 -0.7545,-289.05 -1.1248,-420.4999386 -0.6902,-244.9844314 -0.3671,-276.6889314 3.0697,-301.2337314 4.1965,-29.9695 12.3828,-46.3505 26.2802,-52.5873 8.8555,-3.9741 18.0222,-4.9586 41.179,-4.4225 22.5362,0.5217 30.477,1.9522 42.7699,7.7044 28.5232,13.3469 47.4207,43.3846 52.8232,83.9628 1.7967,13.4951 1.7942,21.3012 -0.013,40.8117 -4.3651,47.11857 -5.9424,196.084531 -5.17,488.26457 0.6118,231.4046 1.5141,313.3669 3.6328,330 5.0919,39.9726 19.5907,56.06176 56.7157,62.93656 13.5396,2.5073 40.3757,2.7989 182.2819,1.9806 284.1409,-1.6385 471.8995,-4.4923 527.1024,-8.0115 26.7432,-1.7049 41.8543,0.397 56.0922,7.802 19.1033,9.9354 28.1008,30.6861 28.0941,64.7924 0,18.7291 -1.6612,26.6728 -8.4504,40.5 -3.3796,6.8829 -5.9015,10.2289 -13.2559,17.5876 -7.8682,7.8728 -10.4859,9.7806 -19.5823,14.2724 -12.0133,5.9322 -25.1356,9.5667 -40.0759,11.0998 -12.2362,1.2557 -18.1134,1.1742 -36.6172,-0.5078 z"
           style="fill:#5d4d31;fill-opacity:1;stroke:#5d4d31;stroke-opacity:1"
           inkscape:connector-curvature="0" />
        <path
           id="path3929"
           d="m -1218.7013,796.1266 c -21.3748,-2.6548 -35.3943,-10.9179 -42.579,-25.0961 -5.7632,-11.3733 -5.3848,26.2971 -5.4036,-537.87046 -0.012,-353.61154 0.3147,-522.23227 1.0224,-527.99987 4.4658,-36.3937 22.0955,-59.2204 51.4878,-66.6656 8.6031,-2.1792 38.1758,-2.4215 51.9724,-0.4258 31.2728,4.5236 50.3893,14.6216 57.9548,30.6137 5.8453,12.3559 5.7681,10.7106 5.6805,121.00387 -0.044,55.55 -0.2257,294.7249 -0.4035,531.4999 l -0.3234,430.50006 -2.1008,5.6062 c -7.4395,19.8522 -25.4301,31.8832 -56.0488,37.4821 -10.4107,1.9037 -49.8147,2.7733 -61.2588,1.352 z"
           style="fill:#5d4d31;fill-opacity:1;stroke:#5d4d31;stroke-opacity:1"
           inkscape:connector-curvature="0" />
      </g>
      <g
         style="fill:#5d4d31;fill-opacity:1;stroke:#5d4d31;stroke-opacity:1"
         id="g3968">
        <path
           id="path3927"
           d="m -963.3576,-808.8011 c -9.3869,-1.9787 -16.4248,-7.6946 -18.2326,-14.8079 -0.9507,-3.741 -2.7304,-70.5185 -2.4706,-92.7045 1.1582,-98.9175 1.327,-151.9587 0.6553,-206 l -0.8078,-65 -2.3383,-4.0901 c -2.9984,-5.2449 -6.8559,-7.4738 -14.5107,-8.3844 -7.6435,-0.9093 -74.2439,1.3673 -101.139,3.4573 -32.776,2.5469 -46.4933,2.9582 -52.289,1.5678 -9.3773,-2.2496 -13.1184,-9.1113 -15.2116,-27.9009 -2.2524,-20.2181 1.6458,-27.3454 15.7255,-28.7521 3.1763,-0.3174 26.2501,0.4118 51.2751,1.6203 41.2848,1.9937 58.3309,2.2227 184,2.4717 135.063,0.2677 156.1633,0.7236 162.13973,3.5032 3.6551,1.7 4.7952,4.7748 5.8314,15.7274 1.4892,15.7412 -0.9834,24.6185 -8.0065,28.7444 -3.35153,1.969 -4.59093,2.0191 -37.96463,1.5354 -18.975,-0.275 -53.85,-0.5 -77.5,-0.5 -41.5197,0 -43.1377,0.071 -47,2.0686 -8.0416,4.1588 -7.6982,0.656 -7.1499,72.9314 0.267,35.2 1.1837,82.675 2.0372,105.5 0.8534,22.825 2.2261,64 3.0504,91.5 0.8242,27.5 1.7724,58.775 2.1071,69.5 0.9068,29.063 -1.2016,38.4012 -9.7931,43.3751 -2.3384,1.3538 -6.0517,2.9209 -8.2517,3.4825 -5.9237,1.5122 -19.4035,2.1566 -24.1563,1.1548 z"
           style="fill:#5d4d31;fill-opacity:1;stroke:#5d4d31;stroke-opacity:1"
           inkscape:connector-curvature="0" />
        <path
           id="path3925"
           d="m -2893.4062,-1258.6562 c -33.6891,0.1616 -66.6004,6.4987 -96.875,18.9374 -54.5981,22.4325 -100.3015,68.0364 -121.7188,121.4063 -23.023,57.3711 -20.8701,121.3645 5.875,175.375 35.1676,71.0193 109.8048,120.13455 194.4375,127.96875 38.6583,3.5785 83.8879,-2.54685 119.0937,-16.15625 22.347,-8.6385 45.8383,-21.935 62.9063,-35.5625 8.7583,-6.9929 24.8998,-22.97525 32.1563,-31.84375 18.8858,-23.0816 33.477,-52.1187 40.8437,-81.25 12.1444,-48.02485 7.8625,-101.88815 -11.5625,-145.03125 -27.1517,-60.3043 -79.3342,-104.258 -145.9688,-122.9687 -26.3198,-7.3905 -52.9848,-11.0008 -79.1874,-10.875 z m 10.7187,53.1562 c 34.0442,-0.2052 66.1751,7.8445 92.8125,23.7812 50.8557,30.4262 81.1875,86.5373 81.1875,150.2188 0,31.0833 -7.1262,58.23065 -21.5313,82.21875 -25.7268,42.8423 -72.1349,71.75885 -126.5937,78.84375 -72.5845,9.443 -140.4606,-17.3437 -180.4375,-71.1875 -12.7018,-17.1077 -24.1197,-43.62585 -28.1562,-65.4062 -2.1717,-11.7181 -2.4517,-45.5541 -0.4688,-56.7813 1.8486,-10.4672 5.7368,-25.2123 8.8438,-33.5 18.45,-49.2146 62.4467,-86.3054 119.7812,-101 18.3612,-4.7059 36.7298,-7.08 54.5625,-7.1875 z"
           style="fill:#5d4d31;fill-opacity:1;stroke:#5d4d31;stroke-opacity:1"
           inkscape:connector-curvature="0" />
        <path
           id="path3921"
           d="m -2370.6697,-815.8325 c -9.0802,-2.4336 -17.4571,-7.3247 -20.2356,-11.815 l -2.0629,-3.334 1.1827,-81.166 c 1.2277,-84.2548 1.1252,-87.7451 -2.8033,-95.4455 -5.5239,-10.8276 -28.6364,-35.3284 -74.1125,-78.564 -15.125,-14.3798 -44.15,-42.9807 -64.5,-63.5577 -45.3785,-45.8844 -61.9172,-61.4017 -71.6115,-67.1884 -9.4853,-5.6621 -11.8885,-9.8407 -11.8885,-20.672 0,-14.8304 2.4595,-16.2444 28.2179,-16.2236 18.6073,0.015 27.3993,1.1845 33.8039,4.4965 1.6074,0.8312 19.0226,17.5418 38.7004,37.1347 38.5275,38.3612 109.887,106.9983 127.7778,122.9028 16.7003,14.8463 26.5303,20.5574 31.8351,18.4955 3.1826,-1.2369 83.9894,-82.8267 123.8444,-125.0443 34.2794,-36.3115 40.7417,-42.6168 52.4631,-51.1881 8.242,-6.027 12.8409,-7.185 26.1027,-6.5725 8.8493,0.4086 12.3026,1.0674 19.4913,3.7183 13.3239,4.9134 16.5204,10.4388 11.8838,20.5423 -1.2752,2.7788 -28.4857,30.7126 -89.131,91.5 -95.5496,95.7735 -110.7071,111.536 -114.5525,119.1246 -4.0861,8.0634 -6.5075,19.1889 -7.3729,33.8754 -0.4375,7.425 -0.3556,45.3578 0.1821,84.2951 l 0.9776,70.7951 -2.4165,4.6957 c -1.4129,2.7456 -4.1938,5.9455 -6.6961,7.7049 -3.861,2.7149 -5.1272,3.0328 -12.9454,3.2505 -6.1554,0.1715 -10.8291,-0.3384 -16.1341,-1.7603 z"
           style="fill:#5d4d31;fill-opacity:1;stroke:#5d4d31;stroke-opacity:1"
           inkscape:connector-curvature="0" />
        <path
           id="path3919"
           d="m -1422.2013,-814.9065 c -4.4,-0.4548 -12.275,-1.5405 -17.5,-2.4127 -63.134,-10.5387 -116.5912,-36.2265 -155.0256,-74.4943 -33.6756,-33.5297 -52.7748,-73.7233 -59.0079,-124.1796 -1.7959,-14.5383 -0.7735,-48.4226 1.8819,-62.3697 5.5716,-29.2635 17.8486,-57.1053 35.7874,-81.1588 8.2281,-11.0328 27.8634,-30.8476 39.9365,-40.3016 37.1167,-29.0647 83.7572,-48.3287 135.9277,-56.1424 13.669,-2.0472 60.4831,-1.7287 76.5,0.5205 43.7708,6.1466 82.8514,17.8812 120.5,36.1823 26.0006,12.6389 37.4942,20.6744 41.5472,29.0469 3.1852,6.5797 2.3127,12.3799 -3.9796,26.4549 -5.5771,12.4752 -10.0042,17.873 -14.8029,18.0488 -10.973,0.4021 -17.8379,-2.7696 -32.7647,-15.1382 -18.5812,-15.3967 -33.9612,-24.5843 -54.3084,-32.4424 -46.8234,-18.0833 -113.5086,-17.0789 -170.9333,2.5744 -15.5704,5.329 -37.1663,15.9745 -50.7583,25.0211 -13.1808,8.7729 -35.4621,30.4168 -42.8347,41.6095 -19.1708,29.104 -27.7967,62.9848 -24.7362,97.1596 1.9482,21.7538 5.8934,36.5327 14.5794,54.6147 23.593,49.1142 77.8665,84.5467 147.7361,96.4495 17.0656,2.9073 38.4598,4.3224 54.2554,3.5886 55.8919,-2.5963 90.8633,-13.5063 132.1478,-41.2259 25.3109,-16.9945 28.0947,-17.0157 40.9927,-0.3122 4.0346,5.225 9.366,11.9005 11.8476,14.8346 2.4815,2.934 4.5119,6.3333 4.5119,7.5538 0,1.2234 -1.5705,3.7414 -3.5,5.6116 -1.925,1.8657 -3.5,3.9364 -3.5,4.6013 0,1.5912 -31.3635,22.4724 -46,30.626 -46.1889,25.7304 -92.5694,37.0217 -150.5,36.6388 -11,-0.073 -23.6,-0.5043 -28,-0.9591 z"
           style="fill:#5d4d31;fill-opacity:1;stroke:#5d4d31;stroke-opacity:1"
           inkscape:connector-curvature="0" />
        <path
           id="path3917"
           d="m -532.40625,-1258.6562 c -33.68906,0.1615 -66.60035,6.4987 -96.875,18.9374 -54.59805,22.4324 -100.30145,68.0364 -121.71875,121.4063 -23.02303,57.3711 -20.87013,121.3646 5.875,175.375 35.1676,71.0193 109.8048,120.13455 194.4375,127.96875 38.6583,3.5785 83.88795,-2.54695 119.09375,-16.15625 22.3469,-8.6386 45.83825,-21.90375 62.90625,-35.53125 8.7583,-6.9929 24.89985,-23.0065 32.15625,-31.875 18.8858,-23.0816 33.47705,-52.1187 40.84375,-81.25 12.1444,-48.02495 7.8625,-101.88815 -11.5625,-145.03125 -27.1517,-60.3043 -79.33415,-104.2581 -145.96875,-122.9687 -26.31983,-7.3906 -52.9849,-11.0007 -79.1875,-10.875 z m 10.71875,53.1562 c 34.04419,-0.2052 66.17512,7.8445 92.8125,23.7812 50.8557,30.4262 81.1875,86.5372 81.1875,150.2188 0,31.0832 -7.12625,58.23065 -21.53125,82.21875 -25.7269,42.8423 -72.13495,71.75885 -126.59375,78.84375 -72.5845,9.443 -140.46065,-17.3437 -180.4375,-71.1875 -12.7018,-17.1077 -24.11975,-43.62595 -28.15625,-65.4062 -2.1716,-11.7183 -2.45165,-45.5541 -0.46875,-56.7813 1.8486,-10.4671 5.73675,-25.2123 8.84375,-33.5 18.4499,-49.2146 62.44675,-86.3054 119.78125,-101 18.3612,-4.7059 36.72983,-7.08 54.5625,-7.1875 z"
           style="fill:#5d4d31;fill-opacity:1;stroke:#5d4d31;stroke-opacity:1"
           inkscape:connector-curvature="0" />
        <path
           id="path3913"
           d="m -3532.875,-1252.2812 c -42.7353,0.01 -41.1815,0.6336 -44.4375,7.1874 -2.6662,5.3671 -2.8624,26.7728 -1.375,159.2813 0.676,60.225 1.5318,142.8895 1.875,183.6875 0.6171,73.36 0.6375,74.2093 2.7187,77 3.7046,4.967 7.9082,6.6664 17.5,7.125 16.3179,0.7802 30.3983,-4.3227 35.3438,-12.8125 1.8876,-3.2405 2.0625,-5.1684 2.0625,-26 0,-12.375 -0.408,-24.87255 -0.875,-27.78125 -0.832,-5.1817 -0.7579,-5.372 2.625,-8.5625 3.5237,-3.3232 40.7919,-23.61385 59.75,-32.53125 13.6116,-6.4026 44.4824,-19.1942 79,-32.75 31.1433,-12.2307 32.945,-12.567 40.2187,-7.5625 5.3878,3.7069 10.1543,9.9785 44.7813,58.6875 29.8301,41.9613 49.5867,68.60565 56.6563,76.46875 4.9266,5.4797 12.4557,10.8886 17.8437,12.8125 3.9068,1.3949 13.0293,1.48065 23.0937,0.21875 4.4268,-0.5551 12.9392,-1.4093 18.9063,-1.875 9.4865,-0.7404 11.0597,-1.12215 12.6563,-3.09375 2.3209,-2.866 2.5324,-13.79385 0.3437,-18.40625 -2.5325,-5.3369 -14.3892,-19.3385 -33.1875,-39.1875 -46.19,-48.7718 -79.041,-88.42295 -83.4062,-100.71875 -1.1886,-3.348 -1.1521,-4.1471 0.4374,-7 3.457,-6.2046 11.6646,-11.60555 35.1563,-23.15625 12.65,-6.22 27.2306,-14.1367 32.4375,-17.625 25.2358,-16.9066 39.7637,-37.3759 46.3125,-65.25 1.848,-7.8654 2.151,-12.1249 2.125,-29.6875 -0.034,-23.5984 -1.5019,-34.2269 -7.0937,-51.2187 -13.7203,-41.6918 -50.4287,-63.6986 -118.7813,-71.1876 -30.0409,-3.2913 -127.5898,-5.9472 -221.5,-6.0312 -8.0555,-0.01 -15.0825,-0.033 -21.1875,-0.031 z m 59.6562,53.625 c 15.7386,-0.047 38.739,0 72.7188,0.125 87.2244,0.3288 103.4917,0.6144 110.3125,1.9374 45.0298,8.7339 62.8018,26.4849 65.4375,65.2813 1.2556,18.4808 -1.0196,30.2613 -8.1875,42.375 -4.76,8.0442 -17.6666,20.4865 -30.75,29.625 -13.9769,9.7626 -29.3587,16.5233 -102.4063,45.125 -27.5536,10.7886 -68.7363,27.0503 -91.5,36.125 -22.7634,9.0748 -43.6885,17.1264 -46.5,17.875 -2.8113,0.7486 -7.4426,1.365 -10.2812,1.375 -4.5428,0.0105 -5.471,-0.3541 -7.75,-3.0625 -1.4241,-1.6924 -2.9002,-4.2799 -3.3125,-5.75 -0.4123,-1.4701 -0.75,-50.1625 -0.75,-108.1875 l 0,-105.5 2.125,-4.625 c 2.7292,-5.9017 7.4104,-9.4298 15.125,-11.4063 3.3988,-0.8706 9.4879,-1.2337 35.7187,-1.3124 z"
           style="fill:#5d4d31;fill-opacity:1;stroke:#5d4d31;stroke-opacity:1"
           inkscape:connector-curvature="0" />
        <path
           id="path3909"
           d="m -3854.375,-1253.9062 c -75.0475,-0.04 -117.8308,0.3073 -119,0.9374 -3.7781,2.0361 -6.3119,5.9149 -7.9375,12.1876 -1.5381,5.9345 -1.5939,13.6027 -0.875,91.9687 0.4314,47.025 1.0413,138.2398 1.375,202.6875 0.6017,116.2211 0.6163,117.17515 2.6563,119.90625 2.4793,3.3195 7.6278,6.14705 13.5624,7.40625 6.1411,1.3029 25.3773,0.4177 31.4688,-1.4375 6.6545,-2.0267 11.3365,-5.239 13.875,-9.5625 1.9689,-3.3535 2.0469,-4.7259 1.7188,-33.25 -0.396,-34.404 -0.3896,-34.4854 9.5,-44.375 4.8459,-4.8459 9.6275,-7.48205 49.5937,-27.34375 56.2915,-27.9748 108.1733,-55.9594 150.75,-81.31255 60.2158,-35.8568 87.5475,-62.686 98.5313,-96.7187 3.6174,-11.2088 4.5754,-33.336 2.0624,-47.8125 -7.6587,-44.1228 -38.6153,-73.2887 -92.0312,-86.7188 -25.872,-6.5052 -25.5182,-6.4935 -155.25,-6.5624 z m -16.7812,51.8124 c 42.5641,-0.2316 146.1423,1.8031 152.9687,3.25 25.4919,5.4037 41.4073,19.2191 46.8437,40.625 2.2258,8.7642 3.8817,24.9367 3.125,30.4376 -1.2295,8.9407 -9.0259,22.069 -20.375,34.3124 -2.5364,2.7364 -9.5437,8.211 -15.5937,12.1563 -36.6636,23.9089 -174.2372,98.04625 -191.875,103.40625 -7.2653,2.2079 -15.4855,2.61945 -19.625,0.96875 -6.0243,-2.4022 -9.7108,-7.98365 -10.5313,-16.03125 -0.2992,-2.9348 -0.1353,-46.51875 0.3438,-96.84375 0.9596,-100.7975 0.7704,-98.1553 7.1875,-104.7187 5.1154,-5.2323 10.1609,-6.3197 33.5,-7.3126 3.131,-0.1332 7.9507,-0.2169 14.0313,-0.25 z"
           style="fill:#5d4d31;fill-opacity:1;stroke:#5d4d31;stroke-opacity:1"
           inkscape:connector-curvature="0" />
        <path
           id="path3857"
           d="m -1796.7548,-819.2004 c -0.2484,-0.2484 -63.6755,-0.6658 -140.9491,-0.9277 -99.2528,-0.3363 -141.5594,-0.8034 -144.115,-1.5912 -5.6713,-1.7482 -10.1641,-5.2821 -12.8824,-10.1329 l -2.5,-4.4613 -0.5355,-200.5 c -0.4514,-169.016 -0.319,-201.0034 0.843,-203.7058 1.8326,-4.2621 8.0874,-7.2171 17.9638,-8.4869 4.9931,-0.642 68.8737,-0.8156 180.4767,-0.4906 l 172.7481,0.503 4.4204,2.1399 c 5.1439,2.4901 11.4575,8.9908 14.7537,15.191 1.9799,3.7241 2.3136,5.8199 2.3211,14.5779 0.01,10.067 -0.039,10.2767 -3.0325,13.272 -2.3646,2.3664 -4.4778,3.2852 -9.5,4.1306 -4.5776,0.7706 -49.8909,0.8903 -155.5801,0.4109 -136.1669,-0.6176 -149.4582,-0.5356 -153,0.9438 -7.5966,3.1734 -13.0103,10.7374 -15.2543,21.3134 -2.2235,10.4793 -0.8306,61.784 1.9668,72.4441 0.6944,2.6462 1.9241,4.2559 4.1955,5.4923 3.0049,1.6355 13.4296,1.7949 160.7133,2.4576 89.7629,0.4038 162.5519,1.139 169.2464,1.7093 13.1903,1.1237 19.2789,3.2149 22.4823,7.7214 4.1075,5.7786 5.3162,15.5932 3.2574,26.4494 -1.1916,6.2835 -4.6749,10.4678 -9.9293,11.9274 -2.2762,0.6324 -63.3254,0.9922 -169.5568,0.9993 -116.5827,0.01 -167.1673,0.3352 -169.9212,1.0998 -4.8977,1.3599 -8.9958,5.3743 -10.6972,10.479 -1.0125,3.0378 -1.3845,19.8035 -1.6514,74.4212 -0.1895,38.775 -0.063,72.4315 0.2803,74.7922 0.8008,5.5017 5.2146,10.5986 10.7695,12.4362 3.5763,1.183 27.0243,1.2829 153.72,0.6549 82.225,-0.4076 151.07,-0.7517 152.9888,-0.7648 10.9058,-0.074 16.7845,12.6553 15.838,34.2951 -0.4446,10.166 -2.458,15.4746 -7.2175,19.0297 -2.6546,1.9829 -4.1787,2.0668 -42.4823,2.339 -21.8509,0.1554 -39.9321,0.079 -40.1805,-0.1692 z"
           style="fill:#5d4d31;fill-opacity:1;stroke:#5d4d31;stroke-opacity:1"
           inkscape:connector-curvature="0" />
      </g>
    </g>
    <path
       id="path3918"
       style="fill:#5d4d31;fill-opacity:1"
       d="m 636.64224,519.84553 c -0.38503,-0.1992 -0.78642,-0.61816 -0.98866,-1.03204 -0.32175,-0.65865 -0.34208,-1.58529 -0.37046,-16.96364 -0.0256,-14.03588 -0.0677,-16.31208 -0.30322,-16.59622 -0.25042,-0.30192 -0.54316,-0.31881 -3.51872,-0.20308 -1.78506,0.0694 -4.74567,0.24332 -6.57931,0.38642 -3.4585,0.26993 -4.46123,0.19758 -5.08506,-0.36693 -0.49087,-0.44436 -0.77082,-1.65733 -0.80827,-3.50291 -0.0319,-1.59218 -0.0204,-1.63854 0.51566,-2.10072 l 0.54879,-0.47259 2.97008,0.13313 c 1.63357,0.0732 9.67897,0.18867 17.87882,0.25651 15.98165,0.13225 15.56798,0.10444 15.93601,1.07268 0.23598,0.6206 0.22549,3.52069 -0.014,3.96877 -0.10482,0.19597 -0.44089,0.48568 -0.74667,0.64379 -0.48679,0.25173 -1.39901,0.27129 -7.33696,0.15733 -6.4695,-0.12412 -6.79252,-0.11441 -7.03183,0.21284 -0.33147,0.45343 -0.32623,4.02666 0.023,15.73645 0.43093,14.44003 0.43757,16.92226 0.0473,17.63725 -0.4726,0.86523 -1.28114,1.21406 -3.00624,1.29702 -1.1689,0.0561 -1.61824,5.9e-4 -2.12969,-0.26406 z m -43.42965,-0.36299 c -0.30553,-0.0357 -1.33292,-0.155 -2.2831,-0.26528 -7.44178,-0.86364 -12.72844,-3.99376 -15.016,-8.89071 C 574.60384,507.52282 574.6,507.4728 574.6,493.24689 l 0,-12.66667 0.42313,-0.6293 c 1.00054,-1.48778 4.58523,-1.34365 5.70722,0.22945 l 0.44422,0.62287 0.0921,12.77885 c 0.0921,12.73259 0.0946,12.7826 0.51082,13.81216 0.78604,1.94239 2.57494,3.45905 5.41563,4.59174 5.23731,2.08833 13.64641,1.89785 17.83651,-0.40398 1.35721,-0.74551 3.64912,-2.61558 4.22577,-3.44792 l 0.43962,-0.63447 0.0921,-13.73657 c 0.0754,-11.23897 0.13858,-13.79198 0.34567,-14.04137 0.37314,-0.44929 1.58998,-0.72883 3.26574,-0.75016 1.72548,-0.0218 2.59462,0.32934 2.82165,1.14059 0.078,0.27827 0.14152,6.50643 0.14152,13.84039 l 0,13.33446 -0.52284,1.4816 c -0.28763,0.81489 -0.77812,1.92813 -1.0899,2.47386 -0.73479,1.2857 -2.51792,3.18439 -3.93444,4.18933 -2.58708,1.83525 -6.55451,3.3846 -9.9408,3.88194 -1.7646,0.25919 -6.07282,0.35412 -7.66204,0.16885 z m 115.47557,-0.24455 c -0.35487,-0.089 -0.82031,-0.36526 -1.03417,-0.61399 -0.38196,-0.44404 -0.3913,-0.6421 -0.51209,-10.89507 -0.18741,-15.91076 -0.15673,-27.29805 0.0754,-27.80666 0.3192,-0.70046 0.85482,-0.90474 2.64946,-1.01043 2.19284,-0.12914 19.44068,0.2729 21.96909,0.51209 9.2464,0.87477 12.77676,4.11097 12.81856,11.75056 0.0192,3.41458 -0.84882,5.68533 -2.94412,7.7065 -1.3517,1.30385 -2.21202,1.8756 -4.83041,3.21011 -2.23031,1.13673 -2.60549,1.50224 -2.24424,2.18634 0.56591,1.0714 3.90785,5.04038 7.43898,8.83501 2.26455,2.43353 2.72526,3.1701 2.72526,4.35689 0,1.43372 -0.21092,1.60835 -2.14759,1.77773 -0.90698,0.0792 -2.12177,0.15013 -2.69957,0.15738 -1.84923,0.0231 -2.42001,-0.59346 -8.2603,-8.92208 -1.75963,-2.50928 -3.35535,-4.61186 -3.54595,-4.67237 -0.52757,-0.16747 -8.77215,3.29497 -11.91172,5.00253 l -2.71172,1.47483 0.0959,2.40762 c 0.0831,2.09379 0.0511,2.49121 -0.24263,3.04883 -0.61603,1.16734 -2.98259,1.92163 -4.68776,1.49418 z m 12.69532,-16.92893 c 11.2089,-4.55304 12.23757,-5.01476 13.88891,-6.23468 2.18952,-1.61754 3.00829,-3.25049 2.76912,-5.52302 -0.32202,-3.05956 -1.816,-4.51731 -5.25905,-5.13145 -2.10169,-0.37489 -19.05781,-0.3765 -19.57068,-0.003 -0.3348,0.24455 -0.36369,0.55941 -0.42147,4.58371 -0.0345,2.37661 -0.0127,6.41856 0.0665,8.98209 0.1125,4.08838 0.17143,4.73116 0.47592,5.23194 0.61731,1.01501 1.19358,0.87852 8.05041,-1.90674 z m -505.61929,16.52746 c -2.9405,-0.20715 -5.45303,-0.90038 -8.13956,-2.24572 -2.06179,-1.03251 -3.43624,-2.00233 -5.12737,-3.61808 -3.1793,-3.03746 -5.12912,-6.63748 -5.88147,-10.8591 -0.29142,-1.63533 -0.24066,-5.56897 0.0947,-7.33688 1.44231,-7.60323 7.23887,-13.63958 15.04971,-15.67223 1.3276,-0.3455 2.46314,-0.49171 4.39003,-0.56536 7.22342,-0.27594 12.99032,1.71779 17.22894,5.95641 3.43672,3.4367 5.21701,7.56219 5.55957,12.88314 0.36816,5.71799 -1.71986,11.20692 -5.79988,15.24658 -4.57548,4.53024 -10.61077,6.68776 -17.3747,6.21124 z m 6.44662,-6.89217 c 4.17718,-1.1749 7.20373,-3.58483 8.87275,-7.06501 2.41067,-5.02669 1.32612,-11.82133 -2.55621,-16.01471 -2.82197,-3.04809 -6.45046,-4.40637 -11.25721,-4.21404 -6.91908,0.27686 -11.80659,3.68148 -13.61918,9.48711 -0.86942,2.78469 -0.67353,6.79647 0.46913,9.60866 1.82935,4.50201 6.35851,7.88435 11.65335,8.70259 1.39179,0.2151 4.83947,-0.0551 6.43737,-0.5046 z m 344.27296,6.90469 c -0.99019,-0.19487 -2.55052,-0.92013 -3.22254,-1.4979 -0.27739,-0.23856 -1.41562,-2.01722 -2.52917,-3.95256 -2.9041,-5.04687 -2.94399,-5.10317 -3.9995,-5.64158 l -0.92168,-0.47004 -17.87626,0 c -19.51686,0 -18.78524,-0.0399 -19.76977,1.08124 -0.28764,0.32761 -1.58618,2.44138 -2.88569,4.69728 -1.42031,2.46556 -2.61701,4.32483 -3.00006,4.66116 -0.80628,0.70792 -1.67401,0.94809 -3.42539,0.94809 -3.62582,0 -4.37957,-1.35621 -2.46929,-4.44274 3.12919,-5.0559 14.42993,-23.51163 18.03085,-29.44693 6.48087,-10.68218 8.25276,-13.72383 9.65624,-16.57548 2.57493,-5.23159 2.41975,-4.97742 3.19403,-5.23368 0.87003,-0.288 1.90867,-0.0528 2.45209,0.55529 0.20581,0.23033 0.64824,0.91882 0.98329,1.52997 1.59523,2.91098 18.80561,31.59583 23.33447,38.89217 0.94839,1.52792 2.68411,4.19481 3.8571,5.92643 2.60548,3.84635 3.21,5.0689 3.32864,6.73188 0.0729,1.02024 0.0269,1.30634 -0.26424,1.66609 -0.55517,0.68468 -2.58171,0.94351 -4.47312,0.57131 z m -15.80921,-17.86898 c 0.49715,-0.0676 1.01435,-0.30131 1.36935,-0.61857 0.49778,-0.44473 0.55517,-0.59219 0.44971,-1.15469 -0.17986,-0.95844 -12.31234,-21.58782 -13.15975,-22.37612 -0.60516,-0.56292 -1.58717,-0.60506 -2.15781,-0.0925 -0.61411,0.55154 -1.42994,1.82054 -6.00686,9.34336 -2.32388,3.81977 -4.89217,8.02846 -5.7071,9.35266 -0.81507,1.32416 -1.58933,2.76124 -1.72051,3.1935 -0.40748,1.34217 0.14776,2.2043 1.57325,2.44284 0.81314,0.13608 24.31136,0.0523 25.35972,-0.0904 z m 129.01754,17.85646 c -2.9404,-0.20715 -5.45296,-0.90038 -8.13949,-2.24572 -2.06182,-1.03251 -3.43628,-2.00233 -5.12737,-3.61808 -3.17933,-3.03746 -5.12917,-6.63748 -5.88147,-10.8591 -0.29146,-1.63533 -0.2407,-5.56897 0.0946,-7.33688 1.44221,-7.60323 7.23892,-13.63958 15.04963,-15.67223 1.32754,-0.3455 2.46321,-0.49171 4.39003,-0.56536 7.22345,-0.27594 12.99037,1.71779 17.22892,5.95641 3.43678,3.4367 5.21711,7.56219 5.55958,12.88314 0.36815,5.71799 -1.71987,11.20692 -5.79978,15.24658 -4.57551,4.53024 -10.61088,6.68776 -17.37477,6.21124 z m 6.44674,-6.89217 c 4.17719,-1.1749 7.20364,-3.58483 8.87274,-7.06501 2.41055,-5.02669 1.32601,-11.82133 -2.55627,-16.01471 -2.82203,-3.04809 -6.45044,-4.40637 -11.25721,-4.21404 -6.91907,0.27686 -11.80664,3.68148 -13.61917,9.48711 -0.86939,2.78469 -0.67356,6.79647 0.46914,9.60866 1.82929,4.50201 6.35853,7.88435 11.65324,8.70259 1.39184,0.2151 4.83962,-0.0551 6.43753,-0.5046 z m -339.52104,6.65591 c -5.38272,-0.95059 -11.49758,-4.11405 -12.22752,-6.32578 -0.46575,-1.41137 0.81858,-3.69743 2.59276,-4.61488 1.20552,-0.62342 1.51121,-0.49416 3.38104,1.4297 1.40536,1.44596 1.96792,1.8848 3.10531,2.4222 3.26842,1.54434 8.08942,2.02598 11.38984,1.13792 2.50265,-0.67341 4.57247,-2.11685 5.29941,-3.69565 0.52389,-1.13786 0.46826,-2.92945 -0.1282,-4.12631 -1.16284,-2.33355 -3.81051,-3.42112 -10.02365,-4.1174 -3.68681,-0.41318 -4.25765,-0.5254 -6.15706,-1.21055 -2.99327,-1.07974 -5.21394,-2.92242 -6.38178,-5.29552 -1.57548,-3.2015 -1.58195,-6.60269 -0.0183,-9.57852 0.68219,-1.29823 2.20671,-2.97473 3.49784,-3.84653 3.63476,-2.45431 8.94745,-3.09947 14.28404,-1.73461 1.95374,0.49969 4.787,1.89816 7.05508,3.48234 3.84188,2.68342 4.02652,3.36384 1.50542,5.54779 -1.03617,0.89759 -1.64938,1.15541 -2.74807,1.15541 -0.59241,0 -2.0178,-0.51974 -2.0178,-0.73578 0,-0.077 -0.43295,-0.57979 -0.96212,-1.11737 -1.06987,-1.08689 -2.83144,-2.01758 -4.77912,-2.52495 -1.85923,-0.48433 -5.28939,-0.44574 -6.94501,0.0782 -2.54497,0.80531 -3.79661,2.25034 -3.79661,4.38323 0,1.44417 0.30102,2.36178 1.0691,3.25914 1.24595,1.45559 2.96192,2.03673 7.62189,2.58124 9.8938,1.15605 14.09979,3.51188 15.29109,8.56475 0.35558,1.50811 0.35553,4.40161 -4e-5,5.7668 -1.10282,4.23386 -4.66704,7.39288 -9.89747,8.77225 -1.51988,0.40082 -2.25078,0.47501 -5.19493,0.52733 -2.28188,0.0406 -3.89016,-0.0211 -4.81523,-0.18442 z m -101.11288,-0.12985 c -0.86253,-0.26234 -1.62555,-0.82763 -1.92843,-1.42872 -0.20121,-0.39925 -0.27181,-3.90696 -0.36599,-18.18137 -0.0778,-11.81389 -0.0539,-17.91334 0.0724,-18.36928 0.10444,-0.37691 0.45428,-0.90583 0.78137,-1.18107 0.55896,-0.47032 0.67236,-0.493 2.00823,-0.40145 0.77872,0.0533 1.61396,0.20035 1.85611,0.3266 0.78414,0.40886 6.43247,5.31801 20.44121,17.76615 4.99079,4.4348 9.80429,8.70917 10.69665,9.49858 0.8924,0.78942 1.74901,1.43531 1.9036,1.43531 0.5248,0 0.59456,-0.82708 0.44505,-5.27822 -0.082,-2.44466 -0.28931,-8.57844 -0.4605,-13.63062 -0.22294,-6.58168 -0.25497,-9.29073 -0.113,-9.55602 0.405,-0.75671 4.90142,-0.68599 5.94663,0.0936 l 0.47281,0.3526 0.11211,6.27723 c 0.0616,3.45248 0.14503,11.70039 0.18521,18.32869 l 0.0731,12.05144 -0.5341,0.70127 c -0.63318,0.83135 -1.76443,1.39204 -2.81997,1.39768 -1.33045,0.007 -1.70317,-0.29685 -16.4624,-13.4252 -13.68754,-12.17507 -15.9004,-14.09302 -16.73197,-14.50195 -1.19084,-0.58566 -1.151,-1.10178 -1.03277,13.38122 0.11543,14.14659 0.14891,13.64063 -0.9355,14.16059 -0.68965,0.33065 -2.77647,0.43645 -3.60971,0.18303 z m 59.4098,0.0249 c -10.30866,-0.0946 -10.50607,-0.10342 -11.01903,-0.48641 -0.29005,-0.21663 -0.60847,-0.69724 -0.71607,-1.08079 -0.30044,-1.0708 -0.2185,-36.85193 0.0852,-37.21791 0.62142,-0.74877 0.92823,-0.76115 17.51659,-0.70724 l 15.92728,0.0518 0.72428,0.50384 c 1.24138,0.86352 1.86489,2.63078 1.41218,4.0025 -0.12183,0.36917 -0.40236,0.77476 -0.62339,0.90129 -0.3062,0.17532 -3.70052,0.25212 -14.26063,0.32269 -13.51704,0.0903 -13.8654,0.10162 -14.12536,0.45728 -0.54522,0.74591 -0.67691,1.80656 -0.55249,4.45053 0.0987,2.0978 0.18048,2.63702 0.42836,2.8243 0.239,0.18064 3.493,0.23151 14.80545,0.23151 12.80082,0 14.58502,0.0346 15.23265,0.2935 1.10064,0.44039 1.39853,1.01469 1.40137,2.70176 0.003,1.57218 -0.36144,2.34455 -1.21809,2.58419 -0.24551,0.0686 -7.03513,0.13317 -15.08808,0.14332 -12.32746,0.0156 -14.69863,0.0601 -15.00128,0.28117 -0.34186,0.2498 -0.36213,0.5737 -0.41289,6.59851 -0.0483,5.73959 -0.0238,6.36841 0.26023,6.68232 0.29583,0.3269 0.73399,0.34769 7.73921,0.36715 4.08407,0.0115 10.23177,0.0738 13.6615,0.13888 l 6.23589,0.11825 0.47971,0.45095 c 0.61836,0.58126 0.90487,1.66786 0.75448,2.86154 -0.19245,1.52731 -0.448,2.13308 -1.02592,2.43195 -0.57589,0.2978 -0.40027,0.29708 -22.62118,0.0931 z m 89.85537,-0.0242 c -0.5895,-0.23821 -1.26456,-0.86704 -1.56862,-1.46121 -0.1863,-0.36396 -0.25186,-4.35165 -0.30653,-18.6438 l -0.0696,-18.18078 0.43908,-0.46763 c 0.26495,-0.28221 0.80104,-0.54528 1.35182,-0.66339 1.19559,-0.25643 20.47537,-0.2617 23.16811,-0.007 5.7174,0.54219 10.83577,2.84184 14.14024,6.35312 2.22762,2.36699 3.58937,4.95107 4.37317,8.2986 0.34943,1.49209 0.40561,2.26465 0.40221,5.53096 -0.007,3.21074 -0.0651,4.05925 -0.3991,5.49859 -0.80535,3.46966 -2.07001,5.92963 -4.20293,8.17559 -3.25547,3.42801 -7.67207,5.21247 -13.58429,5.4885 -4.30244,0.20086 -23.28512,0.26308 -23.74362,0.0778 z m 21.94618,-6.16951 c 2.76179,-0.44049 4.96192,-1.11036 7.10648,-2.16369 5.18225,-2.54537 7.3314,-7.23567 6.22436,-13.58383 -1.13692,-6.5198 -5.57442,-10.2558 -13.64156,-11.48507 -2.63662,-0.40176 -7.24528,-0.52847 -12.16823,-0.33456 l -4.14488,0.16328 -0.50367,0.56369 c -0.43201,0.48345 -0.52141,0.78507 -0.6284,2.11972 -0.12156,1.51677 0.12824,15.54218 0.3659,20.53913 0.18849,3.96387 0.43795,4.26766 3.66757,4.46604 3.49553,0.2147 11.6522,0.0454 13.72243,-0.28471 z m 36.35911,6.19365 c -10.30868,-0.0946 -10.50613,-0.10342 -11.01905,-0.48641 -0.29001,-0.21663 -0.60845,-0.69723 -0.71606,-1.08078 -0.30048,-1.0708 -0.21848,-36.85194 0.0851,-37.21791 0.62146,-0.74877 0.92823,-0.76114 17.5166,-0.70726 l 15.92731,0.0518 0.72429,0.50383 c 1.24131,0.86353 1.86482,2.63079 1.41215,4.0025 -0.12183,0.36918 -0.40236,0.77477 -0.62339,0.90131 -0.30622,0.17531 -3.70053,0.2521 -14.26064,0.32268 -13.51701,0.0903 -13.86538,0.10163 -14.12534,0.45727 -0.54522,0.74592 -0.6769,1.80657 -0.55251,4.45054 0.0988,2.0978 0.18052,2.637 0.42839,2.82432 0.23896,0.18063 3.49297,0.2315 14.80543,0.2315 12.8008,0 14.58504,0.0344 15.23268,0.29349 1.10059,0.44039 1.3985,1.01469 1.40129,2.70178 0,1.57217 -0.36138,2.34454 -1.21807,2.58418 -0.24547,0.0686 -7.0351,0.13316 -15.08805,0.14331 -12.32743,0.0155 -14.69862,0.06 -15.00127,0.28117 -0.3418,0.24981 -0.36216,0.57371 -0.41288,6.5985 -0.0486,5.7396 -0.0237,6.36842 0.26021,6.68233 0.29583,0.32691 0.73399,0.34768 7.73922,0.36715 4.08408,0.0115 10.23173,0.0737 13.66149,0.13888 l 6.2359,0.11825 0.47976,0.45095 c 0.61835,0.58126 0.90484,1.66785 0.75439,2.86154 -0.1924,1.52732 -0.44793,2.1331 -1.02588,2.43198 -0.5759,0.29778 -0.40026,0.29705 -22.62117,0.0931 z m -309.75145,-0.29974 c -1.2607,-0.46019 -2.16773,-1.45749 -3.30509,-3.63411 -1.17328,-2.24533 -1.7593,-2.84513 -2.95494,-3.02441 -0.45697,-0.0686 -6.10735,-0.0938 -12.55636,-0.0564 -13.34948,0.0776 -12.23313,-0.0707 -13.32258,1.77153 -0.34877,0.58983 -0.99118,1.67613 -1.42753,2.41401 -1.38045,2.33435 -2.11897,2.74264 -4.72311,2.61112 -2.12019,-0.10713 -2.94138,-0.96588 -2.49801,-2.61248 0.10419,-0.38682 2.15635,-3.88853 4.56039,-7.7816 11.76606,-19.05357 13.99954,-22.78866 15.53497,-25.97945 1.23661,-2.56979 1.51395,-2.86065 2.72621,-2.85925 0.99251,9e-4 1.67427,0.58336 2.6332,2.24865 3.84278,6.67343 15.33572,25.63105 18.0871,29.83468 1.11599,1.70505 2.10685,3.37132 2.20192,3.70279 0.30446,1.06154 0.21299,2.64431 -0.18092,3.13114 -0.32359,0.39996 -0.50917,0.44064 -2.17609,0.47727 -1.26226,0.0277 -2.0611,-0.0472 -2.59916,-0.2435 z m -9.23608,-12.47822 c 0.30112,-0.11441 0.47506,-0.32254 0.47506,-0.56829 0,-0.35369 -1.86343,-3.6166 -6.90221,-12.0859 -1.50444,-2.5287 -1.92043,-3.1013 -2.22005,-3.05582 -0.23631,0.036 -0.7646,0.68586 -1.47114,1.81004 -2.33502,3.71526 -7.35913,12.00576 -7.66765,12.65274 -0.31012,0.6503 -0.30946,0.69475 0.0152,1.05341 0.3307,0.36541 0.54351,0.37445 8.81735,0.37445 5.06065,0 8.66998,-0.0728 8.95353,-0.18063 z m 18.49079,12.42387 c -0.3283,-0.2084 -0.64331,-0.569 -0.7,-0.80135 -0.0567,-0.23235 -0.0798,-8.56289 -0.0512,-18.5123 0.0518,-18.06058 0.0525,-18.0907 0.44156,-18.61268 0.21436,-0.28756 0.66529,-0.68416 1.00206,-0.88136 0.58165,-0.34058 1.1463,-0.36263 11.2779,-0.44054 13.67607,-0.10509 15.95396,0.0901 19.21737,1.64784 3.27015,1.56088 4.87526,4.2146 4.87526,8.06027 0,2.74165 -1.01685,4.96434 -3.28621,7.18317 l -1.11578,1.09096 0.8583,0.45595 c 2.90706,1.54424 5.61752,3.74378 6.7085,5.44394 1.72918,2.69466 1.70079,6.46918 -0.0722,9.60489 -0.72874,1.28882 -3.05586,3.60574 -4.44159,4.42206 -0.58395,0.344 -1.62356,0.83292 -2.31026,1.08647 l -1.24855,0.46103 -15.27906,0.0852 c -15.14922,0.0845 -15.28415,0.082 -15.876,-0.29363 z m 22.91363,-5.75786 c 6.65629,-0.16821 7.39566,-0.26757 9.00356,-1.20986 0.62755,-0.36777 0.94757,-0.71951 1.22475,-1.3461 0.47535,-1.07463 0.50055,-2.80458 0.0565,-3.8828 -0.56052,-1.36123 -2.70236,-3.0014 -6.42982,-4.9238 -1.94606,-1.00366 -2.05005,-0.98086 -11.07786,2.43021 -8.99684,3.39938 -9.4543,3.58578 -9.78862,3.98861 -0.61687,0.74328 -0.36327,3.43535 0.40416,4.29025 0.22122,0.24646 0.6939,0.52769 1.05041,0.62501 0.81072,0.22126 7.44771,0.23342 15.55688,0.0285 z m -13.31528,-12.20292 c 11.01643,-4.25177 17.77886,-7.24537 19.02644,-8.42265 1.30657,-1.2329 1.65714,-2.80029 0.96655,-4.32136 -0.59927,-1.31993 -2.10463,-2.07748 -5.09609,-2.56457 -2.21348,-0.3604 -9.3813,-0.54426 -14.42082,-0.36988 -3.76641,0.13033 -4.07392,0.16715 -4.50721,0.53986 l -0.46503,0.39999 -0.0313,7.85248 c -0.0316,7.91208 -1.8e-4,8.34405 0.60514,8.34405 0.0796,0 1.84468,-0.65606 3.92229,-1.45792 z m -90.1814,17.72273 c -3.693838,-0.463 -7.702726,-1.90095 -10.513126,-3.77092 -1.703995,-1.1338 -4.050714,-3.34615 -4.962876,-4.67874 -1.017844,-1.48694 -0.84266,-3.01202 0.51123,-4.45104 0.775893,-0.82466 1.425828,-1.1417 2.340575,-1.1417 0.985785,0 1.553762,0.3139 2.685407,1.48409 2.703286,2.79535 6.620372,4.90603 10.454694,5.63339 1.728795,0.32795 5.014434,0.37468 6.95419,0.0989 4.335044,-0.61629 8.688745,-2.42969 11.05337,-4.60398 l 0.982039,-0.903 0.12387,-2.93821 c 0.06809,-1.61602 0.131689,-10.73056 0.141271,-20.25449 0.01152,-11.37709 0.08345,-17.55438 0.210192,-18.01048 0.235601,-0.84832 0.815237,-1.18515 2.434221,-1.4144 2.135,-0.30238 3.583849,0.13237 4.489717,1.34717 0.380777,0.51061 0.381808,0.57337 0.370747,22.45118 l -0.01152,21.9391 -1.563118,1.58224 c -2.369112,2.39809 -4.300504,3.87714 -6.378336,4.88441 -3.101596,1.50355 -6.139711,2.33371 -10.132443,2.76864 -2.125447,0.23151 -7.265408,0.21911 -9.190507,-0.0223 z"
       inkscape:connector-curvature="0" />
  </g>
</svg>
